<svg xmlns="http://www.w3.org/2000/svg" xmlns:xlink="http://www.w3.org/1999/xlink" contentStyleType="text/css" height="949px" preserveAspectRatio="none" style="width:1529px;height:949px;background:#FFFFFF;" version="1.1" viewBox="0 0 1529 949" width="1529px" zoomAndPan="magnify"><title>Map Activation and Visibility Sequence</title><defs/><g><text fill="#000000" font-family="sans-serif" font-size="14" font-weight="bold" lengthAdjust="spacing" textLength="308.4307" x="606.4055" y="27.9951">Map Activation and Visibility Sequence</text><rect fill="none" height="352.3984" style="stroke:#000000;stroke-width:1.5;" width="1502.2417" x="10" y="252.125"/><line style="stroke:#181818;stroke-width:0.5;stroke-dasharray:5.0,5.0;" x1="91" x2="91" y1="118.5938" y2="868.5859"/><line style="stroke:#181818;stroke-width:0.5;stroke-dasharray:5.0,5.0;" x1="393.0791" x2="393.0791" y1="118.5938" y2="868.5859"/><line style="stroke:#181818;stroke-width:0.5;stroke-dasharray:5.0,5.0;" x1="659.2036" x2="659.2036" y1="118.5938" y2="868.5859"/><line style="stroke:#181818;stroke-width:0.5;stroke-dasharray:5.0,5.0;" x1="841.5229" x2="841.5229" y1="118.5938" y2="868.5859"/><line style="stroke:#181818;stroke-width:0.5;stroke-dasharray:5.0,5.0;" x1="988.7485" x2="988.7485" y1="118.5938" y2="868.5859"/><line style="stroke:#181818;stroke-width:0.5;stroke-dasharray:5.0,5.0;" x1="1250.6323" x2="1250.6323" y1="118.5938" y2="868.5859"/><line style="stroke:#181818;stroke-width:0.5;stroke-dasharray:5.0,5.0;" x1="1409.3823" x2="1409.3823" y1="118.5938" y2="868.5859"/><text fill="#000000" font-family="sans-serif" font-size="14" lengthAdjust="spacing" textLength="136.5205" x="20" y="115.292">Adventure Runtime</text><ellipse cx="91.2603" cy="50.7969" fill="#E2E2F0" rx="8" ry="8" style="stroke:#181818;stroke-width:0.5;"/><path d="M91.2603,58.7969 L91.2603,85.7969 M78.2603,66.7969 L104.2603,66.7969 M91.2603,85.7969 L78.2603,100.7969 M91.2603,85.7969 L104.2603,100.7969 " fill="none" style="stroke:#181818;stroke-width:0.5;"/><text fill="#000000" font-family="sans-serif" font-size="14" lengthAdjust="spacing" textLength="136.5205" x="20" y="880.5811">Adventure Runtime</text><ellipse cx="91.2603" cy="892.3828" fill="#E2E2F0" rx="8" ry="8" style="stroke:#181818;stroke-width:0.5;"/><path d="M91.2603,900.3828 L91.2603,927.3828 M78.2603,908.3828 L104.2603,908.3828 M91.2603,927.3828 L78.2603,942.3828 M91.2603,927.3828 L104.2603,942.3828 " fill="none" style="stroke:#181818;stroke-width:0.5;"/><rect fill="#E2E2F0" height="30.2969" rx="2.5" ry="2.5" style="stroke:#181818;stroke-width:0.5;" width="183.75" x="302.0791" y="87.2969"/><text fill="#000000" font-family="sans-serif" font-size="14" lengthAdjust="spacing" textLength="169.75" x="309.0791" y="107.292">CombatMapViewService</text><rect fill="#E2E2F0" height="30.2969" rx="2.5" ry="2.5" style="stroke:#181818;stroke-width:0.5;" width="183.75" x="302.0791" y="867.5859"/><text fill="#000000" font-family="sans-serif" font-size="14" lengthAdjust="spacing" textLength="169.75" x="309.0791" y="887.5811">CombatMapViewService</text><rect fill="#E2E2F0" height="30.2969" rx="2.5" ry="2.5" style="stroke:#181818;stroke-width:0.5;" width="169.3193" x="575.2036" y="87.2969"/><text fill="#000000" font-family="sans-serif" font-size="14" lengthAdjust="spacing" textLength="155.3193" x="582.2036" y="107.292">CombatMapViewStore</text><rect fill="#E2E2F0" height="30.2969" rx="2.5" ry="2.5" style="stroke:#181818;stroke-width:0.5;" width="169.3193" x="575.2036" y="867.5859"/><text fill="#000000" font-family="sans-serif" font-size="14" lengthAdjust="spacing" textLength="155.3193" x="582.2036" y="887.5811">CombatMapViewStore</text><rect fill="#E2E2F0" height="30.2969" rx="2.5" ry="2.5" style="stroke:#181818;stroke-width:0.5;" width="175.2256" x="754.5229" y="87.2969"/><text fill="#000000" font-family="sans-serif" font-size="14" lengthAdjust="spacing" textLength="161.2256" x="761.5229" y="107.292">SpawnResolutionPolicy</text><rect fill="#E2E2F0" height="30.2969" rx="2.5" ry="2.5" style="stroke:#181818;stroke-width:0.5;" width="175.2256" x="754.5229" y="867.5859"/><text fill="#000000" font-family="sans-serif" font-size="14" lengthAdjust="spacing" textLength="161.2256" x="761.5229" y="887.5811">SpawnResolutionPolicy</text><rect fill="#E2E2F0" height="30.2969" rx="2.5" ry="2.5" style="stroke:#181818;stroke-width:0.5;" width="98.4785" x="939.7485" y="87.2969"/><text fill="#000000" font-family="sans-serif" font-size="14" lengthAdjust="spacing" textLength="84.4785" x="946.7485" y="107.292">CombatMap</text><rect fill="#E2E2F0" height="30.2969" rx="2.5" ry="2.5" style="stroke:#181818;stroke-width:0.5;" width="98.4785" x="939.7485" y="867.5859"/><text fill="#000000" font-family="sans-serif" font-size="14" lengthAdjust="spacing" textLength="84.4785" x="946.7485" y="887.5811">CombatMap</text><rect fill="#E2E2F0" height="30.2969" rx="2.5" ry="2.5" style="stroke:#181818;stroke-width:0.5;" width="113.75" x="1194.6323" y="87.2969"/><text fill="#000000" font-family="sans-serif" font-size="14" lengthAdjust="spacing" textLength="99.75" x="1201.6323" y="107.292">VisibilityPolicy</text><rect fill="#E2E2F0" height="30.2969" rx="2.5" ry="2.5" style="stroke:#181818;stroke-width:0.5;" width="113.75" x="1194.6323" y="867.5859"/><text fill="#000000" font-family="sans-serif" font-size="14" lengthAdjust="spacing" textLength="99.75" x="1201.6323" y="887.5811">VisibilityPolicy</text><rect fill="#E2E2F0" height="30.2969" rx="2.5" ry="2.5" style="stroke:#181818;stroke-width:0.5;" width="183.8594" x="1318.3823" y="87.2969"/><text fill="#000000" font-family="sans-serif" font-size="14" lengthAdjust="spacing" textLength="169.8594" x="1325.3823" y="107.292">PlayerSafeFogProjection</text><rect fill="#E2E2F0" height="30.2969" rx="2.5" ry="2.5" style="stroke:#181818;stroke-width:0.5;" width="183.8594" x="1318.3823" y="867.5859"/><text fill="#000000" font-family="sans-serif" font-size="14" lengthAdjust="spacing" textLength="169.8594" x="1325.3823" y="887.5811">PlayerSafeFogProjection</text><polygon fill="#181818" points="381.9541,145.7266,391.9541,149.7266,381.9541,153.7266,385.9541,149.7266" style="stroke:#181818;stroke-width:1.0;"/><line style="stroke:#181818;stroke-width:1.0;" x1="91.2603" x2="387.9541" y1="149.7266" y2="149.7266"/><text fill="#000000" font-family="sans-serif" font-size="13" lengthAdjust="spacing" textLength="278.6938" x="98.2603" y="144.6606">activate(mapId, expectedVersion, context)</text><polygon fill="#181818" points="647.8633,174.8594,657.8633,178.8594,647.8633,182.8594,651.8633,178.8594" style="stroke:#181818;stroke-width:1.0;"/><line style="stroke:#181818;stroke-width:1.0;" x1="393.9541" x2="653.8633" y1="178.8594" y2="178.8594"/><text fill="#000000" font-family="sans-serif" font-size="13" lengthAdjust="spacing" textLength="176.249" x="400.9541" y="173.7935">load owned/versioned map</text><polygon fill="#181818" points="404.9541,203.9922,394.9541,207.9922,404.9541,211.9922,400.9541,207.9922" style="stroke:#181818;stroke-width:1.0;"/><line style="stroke:#181818;stroke-width:1.0;stroke-dasharray:2.0,2.0;" x1="398.9541" x2="658.8633" y1="207.9922" y2="207.9922"/><text fill="#000000" font-family="sans-serif" font-size="13" lengthAdjust="spacing" textLength="141.9844" x="410.9541" y="202.9263">prepared CombatMap</text><polygon fill="#181818" points="830.1357,233.125,840.1357,237.125,830.1357,241.125,834.1357,237.125" style="stroke:#181818;stroke-width:1.0;"/><line style="stroke:#181818;stroke-width:1.0;" x1="393.9541" x2="836.1357" y1="237.125" y2="237.125"/><text fill="#000000" font-family="sans-serif" font-size="13" lengthAdjust="spacing" textLength="143.8887" x="400.9541" y="232.0591">resolve(map, context)</text><path d="M10,252.125 L74.4429,252.125 L74.4429,259.2578 L64.4429,269.2578 L10,269.2578 L10,252.125 " fill="#EEEEEE" style="stroke:#000000;stroke-width:1.5;"/><rect fill="none" height="352.3984" style="stroke:#000000;stroke-width:1.5;" width="1502.2417" x="10" y="252.125"/><text fill="#000000" font-family="sans-serif" font-size="13" font-weight="bold" lengthAdjust="spacing" textLength="19.4429" x="25" y="265.1919">alt</text><text fill="#000000" font-family="sans-serif" font-size="11" font-weight="bold" lengthAdjust="spacing" textLength="83.73" x="89.4429" y="264.3354">[valid spawn]</text><polygon fill="#181818" points="404.9541,286.3906,394.9541,290.3906,404.9541,294.3906,400.9541,290.3906" style="stroke:#181818;stroke-width:1.0;"/><line style="stroke:#181818;stroke-width:1.0;stroke-dasharray:2.0,2.0;" x1="398.9541" x2="841.1357" y1="290.3906" y2="290.3906"/><text fill="#000000" font-family="sans-serif" font-size="13" lengthAdjust="spacing" textLength="111.8521" x="410.9541" y="285.3247">SpawnResolution</text><polygon fill="#181818" points="976.9878,315.5234,986.9878,319.5234,976.9878,323.5234,980.9878,319.5234" style="stroke:#181818;stroke-width:1.0;"/><line style="stroke:#181818;stroke-width:1.0;" x1="393.9541" x2="982.9878" y1="319.5234" y2="319.5234"/><text fill="#000000" font-family="sans-serif" font-size="13" lengthAdjust="spacing" textLength="241.5854" x="400.9541" y="314.4575">add/move PLAYER + refresh visibility</text><polygon fill="#181818" points="1239.5073,344.6563,1249.5073,348.6563,1239.5073,352.6563,1243.5073,348.6563" style="stroke:#181818;stroke-width:1.0;"/><line style="stroke:#181818;stroke-width:1.0;" x1="988.9878" x2="1245.5073" y1="348.6563" y2="348.6563"/><text fill="#000000" font-family="sans-serif" font-size="13" lengthAdjust="spacing" textLength="238.5195" x="995.9878" y="343.5903">calculate(profile, blockers, explored)</text><polygon fill="#181818" points="999.9878,373.7891,989.9878,377.7891,999.9878,381.7891,995.9878,377.7891" style="stroke:#181818;stroke-width:1.0;"/><line style="stroke:#181818;stroke-width:1.0;stroke-dasharray:2.0,2.0;" x1="993.9878" x2="1250.5073" y1="377.7891" y2="377.7891"/><text fill="#000000" font-family="sans-serif" font-size="13" lengthAdjust="spacing" textLength="115.54" x="1005.9878" y="372.7231">VisibilitySnapshot</text><polygon fill="#181818" points="647.8633,402.9219,657.8633,406.9219,647.8633,410.9219,651.8633,406.9219" style="stroke:#181818;stroke-width:1.0;"/><line style="stroke:#181818;stroke-width:1.0;" x1="393.9541" x2="653.8633" y1="406.9219" y2="406.9219"/><text fill="#000000" font-family="sans-serif" font-size="13" lengthAdjust="spacing" textLength="241.9092" x="400.9541" y="401.856">atomic activate(map, active relation)</text><polygon fill="#181818" points="404.9541,432.0547,394.9541,436.0547,404.9541,440.0547,400.9541,436.0547" style="stroke:#181818;stroke-width:1.0;"/><line style="stroke:#181818;stroke-width:1.0;stroke-dasharray:2.0,2.0;" x1="398.9541" x2="658.8633" y1="436.0547" y2="436.0547"/><text fill="#000000" font-family="sans-serif" font-size="13" lengthAdjust="spacing" textLength="122.2305" x="410.9541" y="430.9888">committed version</text><polygon fill="#181818" points="1398.312,461.1875,1408.312,465.1875,1398.312,469.1875,1402.312,465.1875" style="stroke:#181818;stroke-width:1.0;"/><line style="stroke:#181818;stroke-width:1.0;" x1="393.9541" x2="1404.312" y1="465.1875" y2="465.1875"/><text fill="#000000" font-family="sans-serif" font-size="13" lengthAdjust="spacing" textLength="159.4722" x="400.9541" y="460.1216">project player-safe state</text><polygon fill="#181818" points="404.9541,490.3203,394.9541,494.3203,404.9541,498.3203,400.9541,494.3203" style="stroke:#181818;stroke-width:1.0;"/><line style="stroke:#181818;stroke-width:1.0;stroke-dasharray:2.0,2.0;" x1="398.9541" x2="1409.312" y1="494.3203" y2="494.3203"/><text fill="#000000" font-family="sans-serif" font-size="13" lengthAdjust="spacing" textLength="181.9175" x="410.9541" y="489.2544">PlayerCombatMapResponse</text><polygon fill="#181818" points="102.2603,519.4531,92.2603,523.4531,102.2603,527.4531,98.2603,523.4531" style="stroke:#181818;stroke-width:1.0;"/><line style="stroke:#181818;stroke-width:1.0;stroke-dasharray:2.0,2.0;" x1="96.2603" x2="392.9541" y1="523.4531" y2="523.4531"/><text fill="#000000" font-family="sans-serif" font-size="13" lengthAdjust="spacing" textLength="141.8701" x="108.2603" y="518.3872">active map projection</text><line style="stroke:#000000;stroke-width:1.0;stroke-dasharray:2.0,2.0;" x1="10" x2="1512.2417" y1="532.4531" y2="532.4531"/><text fill="#000000" font-family="sans-serif" font-size="11" font-weight="bold" lengthAdjust="spacing" textLength="102.9478" x="15" y="542.6636">[no valid spawn]</text><polygon fill="#181818" points="404.9541,563.3906,394.9541,567.3906,404.9541,571.3906,400.9541,567.3906" style="stroke:#181818;stroke-width:1.0;"/><line style="stroke:#181818;stroke-width:1.0;stroke-dasharray:2.0,2.0;" x1="398.9541" x2="841.1357" y1="567.3906" y2="567.3906"/><text fill="#000000" font-family="sans-serif" font-size="13" lengthAdjust="spacing" textLength="175.0557" x="410.9541" y="562.3247">NO_VALID_PLAYER_SPAWN</text><polygon fill="#181818" points="102.2603,592.5234,92.2603,596.5234,102.2603,600.5234,98.2603,596.5234" style="stroke:#181818;stroke-width:1.0;"/><line style="stroke:#181818;stroke-width:1.0;stroke-dasharray:2.0,2.0;" x1="96.2603" x2="392.9541" y1="596.5234" y2="596.5234"/><text fill="#000000" font-family="sans-serif" font-size="13" lengthAdjust="spacing" textLength="233.8223" x="108.2603" y="591.4575">activation failure; no partial commit</text><rect fill="#EEEEEE" height="3" style="stroke:#EEEEEE;stroke-width:1.0;" width="1522.2417" x="0" y="632.0898"/><line style="stroke:#000000;stroke-width:1.0;" x1="0" x2="1522.2417" y1="632.0898" y2="632.0898"/><line style="stroke:#000000;stroke-width:1.0;" x1="0" x2="1522.2417" y1="635.0898" y2="635.0898"/><rect fill="#EEEEEE" height="23.1328" style="stroke:#000000;stroke-width:2.0;" width="136.2749" x="692.9834" y="621.5234"/><text fill="#000000" font-family="sans-serif" font-size="13" font-weight="bold" lengthAdjust="spacing" textLength="117.749" x="698.9834" y="637.5903">Runtime update</text><polygon fill="#181818" points="381.9541,671.7891,391.9541,675.7891,381.9541,679.7891,385.9541,675.7891" style="stroke:#181818;stroke-width:1.0;"/><line style="stroke:#181818;stroke-width:1.0;" x1="91.2603" x2="387.9541" y1="675.7891" y2="675.7891"/><text fill="#000000" font-family="sans-serif" font-size="13" lengthAdjust="spacing" textLength="213.2178" x="98.2603" y="670.7231">move/door command(versioned)</text><polygon fill="#181818" points="976.9878,700.9219,986.9878,704.9219,976.9878,708.9219,980.9878,704.9219" style="stroke:#181818;stroke-width:1.0;"/><line style="stroke:#181818;stroke-width:1.0;" x1="393.9541" x2="982.9878" y1="704.9219" y2="704.9219"/><text fill="#000000" font-family="sans-serif" font-size="13" lengthAdjust="spacing" textLength="120.6943" x="400.9541" y="699.856">validate and apply</text><polygon fill="#181818" points="1239.5073,730.0547,1249.5073,734.0547,1239.5073,738.0547,1243.5073,734.0547" style="stroke:#181818;stroke-width:1.0;"/><line style="stroke:#181818;stroke-width:1.0;" x1="988.9878" x2="1245.5073" y1="734.0547" y2="734.0547"/><text fill="#000000" font-family="sans-serif" font-size="13" lengthAdjust="spacing" textLength="165.293" x="995.9878" y="728.9888">refresh bounded visibility</text><polygon fill="#181818" points="999.9878,759.1875,989.9878,763.1875,999.9878,767.1875,995.9878,763.1875" style="stroke:#181818;stroke-width:1.0;"/><line style="stroke:#181818;stroke-width:1.0;stroke-dasharray:2.0,2.0;" x1="993.9878" x2="1250.5073" y1="763.1875" y2="763.1875"/><text fill="#000000" font-family="sans-serif" font-size="13" lengthAdjust="spacing" textLength="123.6714" x="1005.9878" y="758.1216">current + explored</text><polygon fill="#181818" points="647.8633,788.3203,657.8633,792.3203,647.8633,796.3203,651.8633,792.3203" style="stroke:#181818;stroke-width:1.0;"/><line style="stroke:#181818;stroke-width:1.0;" x1="393.9541" x2="653.8633" y1="792.3203" y2="792.3203"/><text fill="#000000" font-family="sans-serif" font-size="13" lengthAdjust="spacing" textLength="148.9097" x="400.9541" y="787.2544">persist versioned state</text><polygon fill="#181818" points="1398.312,817.4531,1408.312,821.4531,1398.312,825.4531,1402.312,821.4531" style="stroke:#181818;stroke-width:1.0;"/><line style="stroke:#181818;stroke-width:1.0;" x1="393.9541" x2="1404.312" y1="821.4531" y2="821.4531"/><text fill="#000000" font-family="sans-serif" font-size="13" lengthAdjust="spacing" textLength="170.4536" x="400.9541" y="816.3872">filter hidden tokens/layers</text><polygon fill="#181818" points="102.2603,846.5859,92.2603,850.5859,102.2603,854.5859,98.2603,850.5859" style="stroke:#181818;stroke-width:1.0;"/><line style="stroke:#181818;stroke-width:1.0;stroke-dasharray:2.0,2.0;" x1="96.2603" x2="1409.312" y1="850.5859" y2="850.5859"/><text fill="#000000" font-family="sans-serif" font-size="13" lengthAdjust="spacing" textLength="136.335" x="108.2603" y="845.52">player-safe response</text><!--SRC=[ZLJBRjim4BphAnQvD45b6q4TeqZW0cxQ0W7InB1G5pq5DBcksT0aIr5AVF6tTqb9bXGuGIzwpd9sPuPy1pF7Dz8ZzuL3o2no60y_xCV3SGeNmuyfJ8Rd-ydmuWhcpeY2U_XnFHZlwJ99uVDYCDdJvVmyyT8hXE_CmenxMJ8lZGQc1InbBbTIIR-33FyMg3ac2UFUE3YPYH9r95uKsiijdW3Bc-V4CkSbbvPf3oVNPhjYdjPVIdpAq9MIL-Zw-IqqSTNOyDH7PfOzwGNcHXMXvRbHakygSFZpoh8HGFV-xtRKpZBjnpvuhjWENSRM-Cty9ct_a0NKGAnfNvEaLWC6dvfHuH9OfJ6URfcz4IdWCnddKIpHvLIL0ZVQuxC_IvgQK1wcfs9bc03pf56CoWgF0cYXf08CUapM8RLDWCFilIM3HeHoGS0ojjFXPif3oPGKa4SjeSRt6Luu450jGGWKZIl4Q6jAXFdjxDVN1RmdmZLnRg1irOK8fffEuYw1CyKB5QIopgobmXHMol176ZpAfcXaSKR5dQh1WRZzc6bcyutn_VOQIPatMybxjgJL6rAhAkw6G79COMwsM-d9FAZTw5EqMOXkn1UmCJo3dD83kIT6gka0-mHLqWx-aTJMw1oxD8HlSdRPz4qpD7oXALGvWZR_OUZT_SDoTdlpvQ5owo6RptxUlSrM7HTh9XKT1bU19kuLfcfr4jGYIQRJGrrX1KqDq-dn_H72CXA6pfXGJyVGwI7flIrHkHn72ik5yufPgtR9iIWrcLkPGejWLvkze-7XXNDql55QcvmTsuqsD9PxQBTYPUXh4Q0CUtImaKAW1cyUKUUZw72Ul8X0At8tBwxs_ny0]--></g></svg>