<svg xmlns="http://www.w3.org/2000/svg" xmlns:xlink="http://www.w3.org/1999/xlink" contentStyleType="text/css" height="1295px" preserveAspectRatio="none" style="width:569px;height:1295px;background:#FFFFFF;" version="1.1" viewBox="0 0 569 1295" width="569px" zoomAndPan="magnify"><defs/><g><!--cluster Combat UI / Combat Mode--><g id="cluster_Combat UI / Combat Mode"><rect fill="none" height="926" rx="2.5" ry="2.5" style="stroke:#181818;stroke-width:1.0;" width="222.18" x="322.11" y="212.13"/><text fill="#000000" font-family="sans-serif" font-size="14" font-weight="bold" lengthAdjust="spacing" textLength="205.5361" x="330.4319" y="227.1251">Combat UI / Combat Mode</text></g><g id="elem_UC001"><ellipse cx="433.202" cy="1009.1273" fill="#F1F1F1" rx="51.062" ry="26.0473" style="stroke:#181818;stroke-width:0.5;"/><text fill="#000000" font-family="sans-serif" font-size="14" lengthAdjust="spacing" textLength="51.7959" x="407.3041" y="1003.8255">UC-001</text><text fill="#000000" font-family="sans-serif" font-size="14" lengthAdjust="spacing" textLength="55.97" x="405.217" y="1020.1224">&#51204;&#53804; &#51652;&#51077;</text></g><g id="elem_UC002"><ellipse cx="433.1992" cy="273.1273" fill="#F1F1F1" rx="95.0892" ry="26.0473" style="stroke:#181818;stroke-width:0.5;"/><text fill="#000000" font-family="sans-serif" font-size="14" lengthAdjust="spacing" textLength="51.7959" x="407.3012" y="267.8255">UC-002</text><text fill="#000000" font-family="sans-serif" font-size="14" lengthAdjust="spacing" textLength="118.2338" x="374.0823" y="284.1224">&#54540;&#47112;&#51060;&#50612; Turn &#51652;&#54665;</text></g><g id="elem_UC003"><ellipse cx="433.2038" cy="464.1273" fill="#F1F1F1" rx="72.4238" ry="26.0473" style="stroke:#181818;stroke-width:0.5;"/><text fill="#000000" font-family="sans-serif" font-size="14" lengthAdjust="spacing" textLength="51.7959" x="407.3058" y="458.8255">UC-003</text><text fill="#000000" font-family="sans-serif" font-size="14" lengthAdjust="spacing" textLength="86.1801" x="390.1138" y="475.1224">&#51221;&#54805; &#54665;&#46041; &#49892;&#54665;</text></g><g id="elem_UC004"><ellipse cx="433.2005" cy="574.1273" fill="#F1F1F1" rx="48.1105" ry="26.0473" style="stroke:#181818;stroke-width:0.5;"/><text fill="#000000" font-family="sans-serif" font-size="14" lengthAdjust="spacing" textLength="51.7959" x="407.3026" y="568.8255">UC-004</text><text fill="#000000" font-family="sans-serif" font-size="14" lengthAdjust="spacing" textLength="25.7599" x="420.3206" y="585.1224">&#51060;&#46041;</text></g><g id="elem_UC005"><ellipse cx="433.2038" cy="661.1273" fill="#F1F1F1" rx="72.4238" ry="26.0473" style="stroke:#181818;stroke-width:0.5;"/><text fill="#000000" font-family="sans-serif" font-size="14" lengthAdjust="spacing" textLength="51.7959" x="407.3058" y="655.8255">UC-005</text><text fill="#000000" font-family="sans-serif" font-size="14" lengthAdjust="spacing" textLength="86.1801" x="390.1138" y="672.1224">&#51088;&#50976; &#54665;&#46041; &#49440;&#50616;</text></g><g id="elem_UC006"><ellipse cx="433.1978" cy="377.1273" fill="#F1F1F1" rx="76.2878" ry="26.0473" style="stroke:#181818;stroke-width:0.5;"/><text fill="#000000" font-family="sans-serif" font-size="14" lengthAdjust="spacing" textLength="51.7959" x="407.2999" y="371.8255">UC-006</text><text fill="#000000" font-family="sans-serif" font-size="14" lengthAdjust="spacing" textLength="91.6447" x="387.3755" y="388.1224">Reaction &#52376;&#47532;</text></g><g id="elem_UC007"><ellipse cx="433.1983" cy="835.1273" fill="#F1F1F1" rx="77.4583" ry="26.0473" style="stroke:#181818;stroke-width:0.5;"/><text fill="#000000" font-family="sans-serif" font-size="14" lengthAdjust="spacing" textLength="51.7959" x="407.3004" y="829.8255">UC-007</text><text fill="#000000" font-family="sans-serif" font-size="14" lengthAdjust="spacing" textLength="93.3" x="386.5483" y="846.1224">AI &#54028;&#54000;&#50896; Turn</text></g><g id="elem_UC008"><ellipse cx="433.1974" cy="922.1273" fill="#F1F1F1" rx="70.0274" ry="26.0473" style="stroke:#181818;stroke-width:0.5;"/><text fill="#000000" font-family="sans-serif" font-size="14" lengthAdjust="spacing" textLength="51.7959" x="407.2995" y="916.8255">UC-008</text><text fill="#000000" font-family="sans-serif" font-size="14" lengthAdjust="spacing" textLength="82.7911" x="391.8019" y="933.1224">&#51201;/NPC Turn</text></g><g id="elem_UC009"><ellipse cx="433.202" cy="1096.1273" fill="#F1F1F1" rx="51.062" ry="26.0473" style="stroke:#181818;stroke-width:0.5;"/><text fill="#000000" font-family="sans-serif" font-size="14" lengthAdjust="spacing" textLength="51.7959" x="407.3041" y="1090.8255">UC-009</text><text fill="#000000" font-family="sans-serif" font-size="14" lengthAdjust="spacing" textLength="55.97" x="405.217" y="1107.1224">&#51204;&#53804; &#51333;&#47308;</text></g><g id="elem_UC010"><ellipse cx="433.202" cy="748.1273" fill="#F1F1F1" rx="51.062" ry="26.0473" style="stroke:#181818;stroke-width:0.5;"/><text fill="#000000" font-family="sans-serif" font-size="14" lengthAdjust="spacing" textLength="51.7959" x="407.3041" y="742.8255">UC-010</text><text fill="#000000" font-family="sans-serif" font-size="14" lengthAdjust="spacing" textLength="55.97" x="405.217" y="759.1224">&#51204;&#53804; &#51116;&#44060;</text></g><!--entity Player--><g id="elem_Player"><ellipse cx="68.0229" cy="351.48" fill="#F1F1F1" rx="8" ry="8" style="stroke:#181818;stroke-width:0.5;"/><path d="M68.0229,359.48 L68.0229,386.48 M55.0229,367.48 L81.0229,367.48 M68.0229,386.48 L55.0229,401.48 M68.0229,386.48 L81.0229,401.48 " fill="none" style="stroke:#181818;stroke-width:0.5;"/><text fill="#000000" font-family="sans-serif" font-size="14" lengthAdjust="spacing" textLength="98.5059" x="18.77" y="415.9751">Human Player</text></g><!--entity Party--><g id="elem_Party"><ellipse cx="68.019" cy="1000.48" fill="#F1F1F1" rx="8" ry="8" style="stroke:#181818;stroke-width:0.5;"/><path d="M68.019,1008.48 L68.019,1035.48 M55.019,1016.48 L81.019,1016.48 M68.019,1035.48 L55.019,1050.48 M68.019,1035.48 L81.019,1050.48 " fill="none" style="stroke:#181818;stroke-width:0.5;"/><text fill="#000000" font-family="sans-serif" font-size="14" lengthAdjust="spacing" textLength="124.0381" x="6" y="1064.9751">AI Party Members</text></g><!--entity GM--><g id="elem_GM"><ellipse cx="68.022" cy="1111.48" fill="#F1F1F1" rx="8" ry="8" style="stroke:#181818;stroke-width:0.5;"/><path d="M68.022,1119.48 L68.022,1146.48 M55.022,1127.48 L81.022,1127.48 M68.022,1146.48 L55.022,1161.48 M68.022,1146.48 L81.022,1161.48 " fill="none" style="stroke:#181818;stroke-width:0.5;"/><text fill="#000000" font-family="sans-serif" font-size="14" lengthAdjust="spacing" textLength="41.084" x="47.48" y="1175.9751">AI GM</text></g><!--entity Engine--><g id="elem_Engine"><ellipse cx="68.0152" cy="836.48" fill="#F1F1F1" rx="8" ry="8" style="stroke:#181818;stroke-width:0.5;"/><path d="M68.0152,844.48 L68.0152,871.48 M55.0152,852.48 L81.0152,852.48 M68.0152,871.48 L55.0152,886.48 M68.0152,871.48 L81.0152,886.48 " fill="none" style="stroke:#181818;stroke-width:0.5;"/><text fill="#000000" font-family="sans-serif" font-size="14" lengthAdjust="spacing" textLength="94.1104" x="20.96" y="900.9751">Game Engine</text></g><!--entity SessionUI--><g id="elem_SessionUI"><ellipse cx="68.0181" cy="1222.48" fill="#F1F1F1" rx="8" ry="8" style="stroke:#181818;stroke-width:0.5;"/><path d="M68.0181,1230.48 L68.0181,1257.48 M55.0181,1238.48 L81.0181,1238.48 M68.0181,1257.48 L55.0181,1272.48 M68.0181,1257.48 L81.0181,1272.48 " fill="none" style="stroke:#181818;stroke-width:0.5;"/><text fill="#000000" font-family="sans-serif" font-size="14" lengthAdjust="spacing" textLength="74.7961" x="30.62" y="1286.9751">&#51068;&#48152; &#49464;&#49496; UI</text></g><g id="elem_GMN50"><path d="M334.11,81 L334.11,121.2656 L532.2917,121.2656 L532.2917,91 L522.2917,81 L334.11,81 " fill="#FEFFDD" style="stroke:#181818;stroke-width:0.5;"/><path d="M522.2917,81 L522.2917,91 L532.2917,91 L522.2917,81 " fill="#FEFFDD" style="stroke:#181818;stroke-width:1.0;"/><text fill="#000000" font-family="sans-serif" font-size="13" lengthAdjust="spacing" textLength="168.314" x="340.11" y="98.0669">&#49892;&#54665; &#51204; &#49324;&#44144;&#47532;&#183;&#54665;&#46041; &#51312;&#44148; &#44160;&#51613;.</text><text fill="#000000" font-family="sans-serif" font-size="13" lengthAdjust="spacing" textLength="177.1817" x="340.11" y="113.1997">&#48520;&#44032;&#45733;&#54616;&#47732; &#51088;&#50896; &#49548;&#48708; &#50630;&#51060; &#52264;&#45800;.</text></g><g id="elem_GMN53"><path d="M329.58,156 L329.58,196.2656 L536.8188,196.2656 L536.8188,166 L526.8188,156 L329.58,156 " fill="#FEFFDD" style="stroke:#181818;stroke-width:0.5;"/><path d="M526.8188,156 L526.8188,166 L536.8188,166 L526.8188,156 " fill="#FEFFDD" style="stroke:#181818;stroke-width:1.0;"/><text fill="#000000" font-family="sans-serif" font-size="13" lengthAdjust="spacing" textLength="160.0494" x="335.58" y="173.0669">&#51077;&#47141; &#51088;&#52404;&#45716; &#44144;&#48512;&#54616;&#51648; &#50506;&#45716;&#45796;.</text><text fill="#000000" font-family="sans-serif" font-size="13" lengthAdjust="spacing" textLength="186.2388" x="335.58" y="188.1997">AI GM&#51060; &#48708;&#50857;&#44284; &#54032;&#51221;&#51012; &#54644;&#49437;&#54620;&#45796;.</text></g><g id="elem_GMN56"><path d="M304.04,6 L304.04,46.2656 L562.3604,46.2656 L562.3604,16 L552.3604,6 L304.04,6 " fill="#FEFFDD" style="stroke:#181818;stroke-width:0.5;"/><path d="M552.3604,6 L552.3604,16 L562.3604,16 L552.3604,6 " fill="#FEFFDD" style="stroke:#181818;stroke-width:1.0;"/><text fill="#000000" font-family="sans-serif" font-size="13" lengthAdjust="spacing" textLength="165.8935" x="310.04" y="23.0669">&#51652;&#54665; &#51473; Turn&#51012; &#51068;&#49884; &#51473;&#45800;&#54616;&#44256;</text><text fill="#000000" font-family="sans-serif" font-size="13" lengthAdjust="spacing" textLength="237.3204" x="310.04" y="38.1997">Reaction &#54644;&#44208; &#54980; &#44057;&#51008; &#51648;&#51216;&#50640;&#49436; &#44228;&#49549;&#54620;&#45796;.</text></g><!--link Player to UC002--><g id="link_Player_UC002"><path d="M87.57,342.68 C102.87,315.78 127.38,281.93 160.04,266.13 C224.07,235.15 301.002,241.8061 358.372,253.5561 " fill="none" id="Player-to-UC002" style="stroke:#181818;stroke-width:1.0;"/><polygon fill="#181818" points="364.25,254.76,356.2356,249.0355,359.3517,253.7568,354.6304,256.8728,364.25,254.76" style="stroke:#181818;stroke-width:1.0;"/></g><!--link Player to UC003--><g id="link_Player_UC003"><path d="M117.71,376.51 C160.48,374.33 223.57,375.75 274.04,396.13 C290.13,402.63 288.88,412.67 304.04,421.13 C325.35,433.03 344.7655,440.5948 367.1155,447.4748 " fill="none" id="Player-to-UC003" style="stroke:#181818;stroke-width:1.0;"/><polygon fill="#181818" points="372.85,449.24,365.4251,442.7692,368.0713,447.769,363.0715,450.4151,372.85,449.24" style="stroke:#181818;stroke-width:1.0;"/></g><!--link Player to UC004--><g id="link_Player_UC004"><path d="M117.54,398.59 C160.76,415.38 224.62,443.32 274.04,478.13 C289.45,488.99 288.81,497.02 304.04,508.13 C332.24,528.71 362.2861,544.0031 388.7761,555.8931 " fill="none" id="Player-to-UC004" style="stroke:#181818;stroke-width:1.0;"/><polygon fill="#181818" points="394.25,558.35,387.6771,551.0153,389.6884,556.3025,384.4012,558.3138,394.25,558.35" style="stroke:#181818;stroke-width:1.0;"/></g><!--link Player to UC005--><g id="link_Player_UC005"><path d="M81.86,419.55 C95.97,456.77 121.83,512.77 160.04,549.13 C218.52,604.78 302.6567,632.9954 362.9567,647.5154 " fill="none" id="Player-to-UC005" style="stroke:#181818;stroke-width:1.0;"/><polygon fill="#181818" points="368.79,648.92,360.9765,642.9242,363.9289,647.7495,359.1037,650.7019,368.79,648.92" style="stroke:#181818;stroke-width:1.0;"/></g><!--link Player to UC006--><g id="link_Player_UC006"><path d="M99.34,342.73 C115.33,325.6 136.51,307.25 160.04,298.13 C207.28,279.83 225.38,284.02 274.04,298.13 C289.2,302.53 290.2,309.55 304.04,317.13 C330.11,331.42 354.6974,343.1401 379.1474,354.1301 " fill="none" id="Player-to-UC006" style="stroke:#181818;stroke-width:1.0;"/><polygon fill="#181818" points="384.62,356.59,378.051,349.2518,380.0595,354.5401,374.7712,356.5486,384.62,356.59" style="stroke:#181818;stroke-width:1.0;"/></g><!--link Player to UC010--><g id="link_Player_UC010"><path d="M71.42,419.63 C77.1,478.03 96.17,589.06 160.04,654.13 C168.37,662.62 308.9182,708.5627 383.4982,732.5527 " fill="none" id="Player-to-UC010" style="stroke:#181818;stroke-width:1.0;"/><polygon fill="#181818" points="389.21,734.39,381.8672,727.8262,384.4502,732.8589,379.4175,735.4419,389.21,734.39" style="stroke:#181818;stroke-width:1.0;"/></g><!--link Party to UC007--><g id="link_Party_UC007"><path d="M129.29,991.68 C170.22,965.48 225.53,929.92 274.04,898.13 C287.44,889.35 289.65,885.19 304.04,878.13 C325.53,867.59 344.5219,860.4475 366.4819,853.4675 " fill="none" id="Party-to-UC007" style="stroke:#181818;stroke-width:1.0;"/><polygon fill="#181818" points="372.2,851.65,362.4112,850.5642,367.4349,853.1646,364.8345,858.1883,372.2,851.65" style="stroke:#181818;stroke-width:1.0;"/></g><!--link GM to UC001--><g id="link_GM_UC001"><path d="M88.8,1147.62 C128.25,1159.22 217.74,1178.74 274.04,1138.13 C306.87,1114.45 275.24,1080.58 304.04,1052.13 C325.16,1031.26 350.8265,1021.7457 377.3265,1016.2157 " fill="none" id="GM-to-UC001" style="stroke:#181818;stroke-width:1.0;"/><polygon fill="#181818" points="383.2,1014.99,373.5727,1012.9129,378.3054,1016.0114,375.2069,1020.7442,383.2,1014.99" style="stroke:#181818;stroke-width:1.0;"/></g><!--link GM to UC005--><g id="link_GM_UC005"><path d="M88.96,1128.44 C102.72,1118.59 120.24,1103.69 130.04,1086.13 C166.15,1021.43 126.32,988.11 160.04,922.13 C193.37,856.91 237.07,866.36 274.04,803.13 C297.24,763.44 272.01,737.12 304.04,704.13 C320.39,687.29 337.7447,678.6766 359.8647,672.4466 " fill="none" id="GM-to-UC005" style="stroke:#181818;stroke-width:1.0;"/><polygon fill="#181818" points="365.64,670.82,355.8926,669.4097,360.8272,672.1755,358.0614,677.1101,365.64,670.82" style="stroke:#181818;stroke-width:1.0;"/></g><!--link GM to UC008--><g id="link_GM_UC008"><path d="M88.89,1122.71 C127.58,1087.67 216.92,1010.85 304.04,965.13 C326.27,953.46 346.5761,945.807 369.3561,938.787 " fill="none" id="GM-to-UC008" style="stroke:#181818;stroke-width:1.0;"/><polygon fill="#181818" points="375.09,937.02,365.3111,935.8479,370.3117,938.4925,367.6671,943.4931,375.09,937.02" style="stroke:#181818;stroke-width:1.0;"/></g><!--link GM to UC009--><g id="link_GM_UC009"><path d="M88.87,1158.98 C114.32,1181.79 155.73,1218.52 160.04,1220.13 C207.5,1237.86 226.15,1236.67 274.04,1220.13 C331.42,1200.32 379.8062,1154.5643 407.5162,1124.4643 " fill="none" id="GM-to-UC009" style="stroke:#181818;stroke-width:1.0;"/><polygon fill="#181818" points="411.58,1120.05,402.5415,1123.9622,408.1935,1123.7286,408.4272,1129.3806,411.58,1120.05" style="stroke:#181818;stroke-width:1.0;"/></g><!--link Engine to UC001--><g id="link_Engine_UC001"><path d="M115.45,898.37 C129.38,907.16 144.97,916.17 160.04,923.13 C236.29,958.36 325.0576,983.191 380.2676,996.931 " fill="none" id="Engine-to-UC001" style="stroke:#181818;stroke-width:1.0;"/><polygon fill="#181818" points="386.09,998.38,378.3224,992.3249,381.238,997.1725,376.3904,1000.0881,386.09,998.38" style="stroke:#181818;stroke-width:1.0;"/></g><!--link Engine to UC003--><g id="link_Engine_UC003"><path d="M72.55,827.73 C81.46,740.12 107.93,529.62 160.04,485.13 C217.98,435.67 304.5412,439.056 365.3512,449.166 " fill="none" id="Engine-to-UC003" style="stroke:#181818;stroke-width:1.0;"/><polygon fill="#181818" points="371.27,450.15,363.0479,444.7281,366.3377,449.33,361.7358,452.6198,371.27,450.15" style="stroke:#181818;stroke-width:1.0;"/></g><!--link Engine to UC004--><g id="link_Engine_UC004"><path d="M73.04,827.7 C80.59,775.74 101.81,683.87 160.04,634.13 C223.68,579.76 319.6001,571.4457 378.9901,571.7857 " fill="none" id="Engine-to-UC004" style="stroke:#181818;stroke-width:1.0;"/><polygon fill="#181818" points="384.99,571.82,376.013,567.7685,379.9901,571.7914,375.9672,575.7684,384.99,571.82" style="stroke:#181818;stroke-width:1.0;"/></g><!--link Engine to UC005--><g id="link_Engine_UC005"><path d="M115.57,832.69 C129.5,823.45 145.06,813.84 160.04,806.13 C208.32,781.27 233.6,798.39 274.04,762.13 C295.65,742.76 282,723.02 304.04,704.13 C321.95,688.78 339.7876,680.5318 361.8476,674.1318 " fill="none" id="Engine-to-UC005" style="stroke:#181818;stroke-width:1.0;"/><polygon fill="#181818" points="367.61,672.46,357.8519,671.1261,362.808,673.8531,360.0809,678.8093,367.61,672.46" style="stroke:#181818;stroke-width:1.0;"/></g><!--link Engine to UC006--><g id="link_Engine_UC006"><path d="M72.01,827.6 C80.12,733.23 105.69,494.25 160.04,439.13 C211.08,387.37 289.7415,375.1149 351.1115,373.7349 " fill="none" id="Engine-to-UC006" style="stroke:#181818;stroke-width:1.0;"/><polygon fill="#181818" points="357.11,373.6,348.0224,369.8033,352.1113,373.7124,348.2022,377.8013,357.11,373.6" style="stroke:#181818;stroke-width:1.0;"/></g><!--link Engine to UC007--><g id="link_Engine_UC007"><path d="M115.5,877.76 C129.7,880.79 145.43,883.62 160.04,885.13 C210.44,890.34 223.96,892.86 274.04,885.13 C294.39,881.99 335.6735,868.7036 373.1735,855.8636 " fill="none" id="Engine-to-UC007" style="stroke:#181818;stroke-width:1.0;"/><polygon fill="#181818" points="378.85,853.92,369.0395,853.0511,374.1196,855.5397,371.631,860.6197,378.85,853.92" style="stroke:#181818;stroke-width:1.0;"/></g><!--link Engine to UC008--><g id="link_Engine_UC008"><path d="M115.14,884.86 C129.33,889.93 145.14,894.91 160.04,898.13 C228.07,912.85 301.5448,918.341 356.9848,920.551 " fill="none" id="Engine-to-UC008" style="stroke:#181818;stroke-width:1.0;"/><polygon fill="#181818" points="362.98,920.79,354.1465,916.4347,357.984,920.5908,353.8278,924.4283,362.98,920.79" style="stroke:#181818;stroke-width:1.0;"/></g><!--link Engine to UC009--><g id="link_Engine_UC009"><path d="M96.22,904.54 C112.96,926.39 135.8,953.27 160.04,973.13 C229.82,1030.32 324.7278,1064.8502 382.0578,1082.2202 " fill="none" id="Engine-to-UC009" style="stroke:#181818;stroke-width:1.0;"/><polygon fill="#181818" points="387.8,1083.96,380.3465,1077.5222,383.0148,1082.5102,378.0268,1085.1785,387.8,1083.96" style="stroke:#181818;stroke-width:1.0;"/></g><!--link Engine to UC010--><g id="link_Engine_UC010"><path d="M115.55,857.56 C158.01,848.78 221.88,833.15 274.04,810.13 C288.48,803.76 289.79,797.91 304.04,791.13 C330.85,778.37 356.7014,769.4486 381.8214,761.9386 " fill="none" id="Engine-to-UC010" style="stroke:#181818;stroke-width:1.0;"/><polygon fill="#181818" points="387.57,760.22,377.8014,758.9655,382.7795,761.6522,380.0929,766.6303,387.57,760.22" style="stroke:#181818;stroke-width:1.0;"/></g><!--link SessionUI to UC001--><g id="link_SessionUI_UC001"><path d="M105.91,1247.59 C152.07,1239.92 230.33,1220.01 274.04,1170.13 C309.7,1129.44 267.23,1091.8 304.04,1052.13 C324.31,1030.28 350.1236,1020.6919 376.9236,1015.4019 " fill="none" id="SessionUI-to-UC001" style="stroke:#181818;stroke-width:1.0;"/><polygon fill="#181818" points="382.81,1014.24,373.2058,1012.0586,377.9046,1015.2083,374.755,1019.9071,382.81,1014.24" style="stroke:#181818;stroke-width:1.0;"/></g><!--link SessionUI to UC009--><g id="link_SessionUI_UC009"><path d="M105.85,1257.39 C148.21,1261.83 219,1264.26 274.04,1241.13 C335.51,1215.3 384.684,1159.4575 410.904,1125.3375 " fill="none" id="SessionUI-to-UC009" style="stroke:#181818;stroke-width:1.0;"/><polygon fill="#181818" points="414.56,1120.58,405.9044,1125.2789,411.5134,1124.5446,412.2477,1130.1536,414.56,1120.58" style="stroke:#181818;stroke-width:1.0;"/></g><!--link SessionUI to UC010--><g id="link_SessionUI_UC010"><path d="M105.84,1223.63 C114.53,1215.7 123.23,1206.64 130.04,1197.13 C137.18,1187.15 295.02,799.45 304.04,791.13 C325.78,771.09 351.3078,761.6387 377.5778,755.9087 " fill="none" id="SessionUI-to-UC010" style="stroke:#181818;stroke-width:1.0;"/><polygon fill="#181818" points="383.44,754.63,373.7943,752.6399,378.5549,755.6955,375.4992,760.4561,383.44,754.63" style="stroke:#181818;stroke-width:1.0;"/></g><!--link UC001 to UC002--><g id="link_UC001_UC002"><path d="M383.16,1003.27 C356.57,997.74 325.12,987 304.04,966.13 C194.21,857.43 169.7,787.9 196.06,635.63 C220.42,494.97 207.85,438.61 304.04,333.13 C320.87,314.68 338.9726,303.7361 361.4426,294.4761 " fill="none" id="UC001-to-UC002" style="stroke:#181818;stroke-width:1.0;stroke-dasharray:7.0,7.0;"/><polygon fill="#181818" points="366.99,292.19,357.1448,291.9209,362.3672,294.0951,360.193,299.3174,366.99,292.19" style="stroke:#181818;stroke-width:1.0;"/><text fill="#000000" font-family="sans-serif" font-size="13" lengthAdjust="spacing" textLength="112.6359" x="161.04" y="648.6969">Combat UI &#54364;&#49884; &#54980;</text></g><!--link UC002 to UC003--><g id="link_UC002_UC003"><path d="M349.97,260.19 C306.6,258.55 256.49,265.62 226.56,299.63 C184.26,347.71 252.18,383.55 304.04,421.13 C323.37,435.14 341.7948,443.0938 363.9848,449.6338 " fill="none" id="UC002-to-UC003" style="stroke:#181818;stroke-width:1.0;stroke-dasharray:7.0,7.0;"/><polygon fill="#181818" points="369.74,451.33,362.238,444.9488,364.944,449.9165,359.9763,452.6225,369.74,451.33" style="stroke:#181818;stroke-width:1.0;"/><text fill="#000000" font-family="sans-serif" font-size="13" lengthAdjust="spacing" textLength="51.9724" x="191.54" y="312.6969">&#51221;&#54805; &#54665;&#46041;</text></g><!--link UC002 to UC004--><g id="link_UC002_UC004"><path d="M366.33,292.04 C343.93,301.26 320.49,314.51 304.04,333.13 C190.9,461.23 229.51,534.95 240.56,547.63 C276.17,588.47 336.8972,589.2709 381.6872,583.6209 " fill="none" id="UC002-to-UC004" style="stroke:#181818;stroke-width:1.0;stroke-dasharray:7.0,7.0;"/><polygon fill="#181818" points="387.64,582.87,378.2102,580.0278,382.6793,583.4958,379.2114,587.9649,387.64,582.87" style="stroke:#181818;stroke-width:1.0;"/><text fill="#000000" font-family="sans-serif" font-size="13" lengthAdjust="spacing" textLength="23.92" x="205.54" y="543.6969">&#51060;&#46041;</text></g><!--link UC002 to UC005--><g id="link_UC002_UC005"><path d="M368.99,292.74 C346.33,302.12 322.04,315.29 304.04,333.13 C205.51,430.77 206.94,490.19 220.56,525.63 C240.44,577.32 257.69,587.83 304.04,618.13 C324.22,631.32 343.0709,639.113 365.3709,645.773 " fill="none" id="UC002-to-UC005" style="stroke:#181818;stroke-width:1.0;stroke-dasharray:7.0,7.0;"/><polygon fill="#181818" points="371.12,647.49,363.641,641.0818,366.3291,646.0592,361.3517,648.7472,371.12,647.49" style="stroke:#181818;stroke-width:1.0;"/><text fill="#000000" font-family="sans-serif" font-size="13" lengthAdjust="spacing" textLength="63.9324" x="185.54" y="521.6969">&#48708;&#51221;&#54805; &#49440;&#50616;</text></g><!--link UC002 to UC006--><g id="link_UC002_UC006"><path d="M433.2,299.6 C433.2,315.23 433.2,328.97 433.2,344.62 " fill="none" id="UC002-to-UC006" style="stroke:#181818;stroke-width:1.0;stroke-dasharray:7.0,7.0;"/><polygon fill="#181818" points="433.2,350.62,437.2,341.62,433.2,345.62,429.2,341.62,433.2,350.62" style="stroke:#181818;stroke-width:1.0;"/><text fill="#000000" font-family="sans-serif" font-size="13" lengthAdjust="spacing" textLength="90.8888" x="376.7" y="329.6969">Trigger &#48156;&#49373; &#49884;</text></g><!--link UC007 to UC006--><g id="link_UC007_UC006"><path d="M365.39,822.1 C310.09,807.29 236.5,776.86 207.06,716.63 C195.54,693.06 136.47,585.61 304.04,420.13 C320.1,404.27 336.397,395.9638 357.737,389.6438 " fill="none" id="UC007-to-UC006" style="stroke:#181818;stroke-width:1.0;stroke-dasharray:7.0,7.0;"/><polygon fill="#181818" points="363.49,387.94,353.7246,386.6604,358.6958,389.3598,355.9964,394.331,363.49,387.94" style="stroke:#181818;stroke-width:1.0;"/><text fill="#000000" font-family="sans-serif" font-size="13" lengthAdjust="spacing" textLength="90.8888" x="172.04" y="712.6969">Trigger &#48156;&#49373; &#49884;</text></g><!--link UC008 to UC006--><g id="link_UC008_UC006"><path d="M370.8,910.07 C348.22,903.56 323.5,893.75 304.04,879.13 C238.3,829.77 194.33,802.84 207.06,721.63 C228.88,582.57 205.01,520.17 304.04,420.13 C319.83,404.17 335.9382,395.8479 357.1882,389.5379 " fill="none" id="UC008-to-UC006" style="stroke:#181818;stroke-width:1.0;stroke-dasharray:7.0,7.0;"/><polygon fill="#181818" points="362.94,387.83,353.1737,386.5574,358.1469,389.2533,355.451,394.2264,362.94,387.83" style="stroke:#181818;stroke-width:1.0;"/><text fill="#000000" font-family="sans-serif" font-size="13" lengthAdjust="spacing" textLength="90.8888" x="172.04" y="734.6969">Trigger &#48156;&#49373; &#49884;</text></g><!--link UC009 to UC002--><g id="link_UC009_UC002"><path d="M383.2,1090.22 C356.63,1084.68 325.17,1073.94 304.04,1053.13 C205.88,956.49 224.66,896.43 201.56,760.63 C168.8,568.02 179.63,483.79 304.04,333.13 C319.7,314.16 337.1502,303.1502 359.4202,294.0002 " fill="none" id="UC009-to-UC002" style="stroke:#181818;stroke-width:1.0;stroke-dasharray:7.0,7.0;"/><polygon fill="#181818" points="364.97,291.72,355.1251,291.4405,360.3451,293.6202,358.1654,298.8402,364.97,291.72" style="stroke:#181818;stroke-width:1.0;"/><text fill="#000000" font-family="sans-serif" font-size="13" lengthAdjust="spacing" textLength="101.9612" x="166.54" y="756.6969">&#47784;&#46304; Turn &#51652;&#54665; &#51473;</text></g><!--link UC010 to UC002--><g id="link_UC010_UC002"><path d="M383.56,741.02 C357.42,735.12 326.26,724.42 304.04,705.13 C223.32,635.07 173.02,589.06 203.56,486.63 C226.86,408.49 242.37,386.47 304.04,333.13 C323.67,316.15 343.3935,305.3125 366.3535,295.7225 " fill="none" id="UC010-to-UC002" style="stroke:#181818;stroke-width:1.0;stroke-dasharray:7.0,7.0;"/><polygon fill="#181818" points="371.89,293.41,362.0437,293.1878,367.2763,295.3371,365.127,300.5697,371.89,293.41" style="stroke:#181818;stroke-width:1.0;"/><text fill="#000000" font-family="sans-serif" font-size="13" lengthAdjust="spacing" textLength="97.8288" x="168.54" y="499.6969">&#51200;&#51109;&#46108; Turn &#48373;&#50896;</text></g><!--link UC003 to GMN50--><g id="link_UC003_GMN50"><path d="M360.32,464.88 C311.35,461.07 249.95,447.02 217.04,403.63 C150.43,315.82 149.29,242.58 217.04,155.63 C244.45,120.45 290.99,105.9 333.88,100.53 " fill="none" id="UC003-GMN50" style="stroke:#181818;stroke-width:1.0;stroke-dasharray:7.0,7.0;"/></g><!--link UC005 to GMN53--><g id="link_UC005_GMN53"><path d="M360.32,661.88 C311.35,658.07 249.95,644.02 217.04,600.63 C122.49,475.99 125.68,375.63 217.04,248.63 C242.87,212.72 287.34,194.35 329.25,185.04 " fill="none" id="UC005-GMN53" style="stroke:#181818;stroke-width:1.0;stroke-dasharray:7.0,7.0;"/></g><!--link UC006 to GMN56--><g id="link_UC006_GMN56"><path d="M358.21,371.63 C309.26,363.7 248.76,344.7 217.04,299.63 C161.02,220.04 157.21,157.41 217.04,80.63 C238.09,53.61 270.42,38.76 303.71,30.89 " fill="none" id="UC006-GMN56" style="stroke:#181818;stroke-width:1.0;stroke-dasharray:7.0,7.0;"/></g><!--SRC=[ZPHBRzD04CVl-ob6lN1gclS392IeKEaXg09wwsMRk6b4OYFR5QeGKW2tAaqGGJHje4vbeAK5zM3Qy99wukDurz-1MJjn7HiXJlR-vpSpkxEpSmKMLAMwLj6XMgSrbJQXeiYwIYlwLLYSdKucKuc4-AQIr-3cNNyjlgdqDRWniejlEaqQqeeEkW9glROgmgbIHQyhCj4UrEM7L8JMLcbLULINQx126veKiZoabGUq9jtJrniI24SgrneI8RWFHOMfssjDAiD2WwvBwXHGRVGxDj-OXmMgwkjGbfhBaghvY512n5pPa-VAOssEDYMu9TVgikHP_D-nbGykcDq7Rlpa6trOdFUGUvAcuP4Mvma9DWbJiqfpcUh8m0oC_ijA5OC-9W1hcbIX6b9-DPTaRXdkrYdmOuCVR7XH5sVH44FJIxAxqs7M5XyC-UuGxg-fil1oTry4NkcOLqOawBdz7Y37Nhq5tZuCUsHY7bdq60mH3PXiZCaXSz3bfXL4DIo- -pFmoCKyyaloNObw3G3yhCy-dGPmFWONbcIy8BVJSTist-zwHmtmGWmlYZC-dRcpC3j95cDawRBS7pROnqw0bg9eAdc97fmwjZb6KqdoX12_ts1w-lgexX4X4nMoKI4N5V8H0HCHlul7H87CbOD5Ahp8XHV5yA94_3OE-KM4J5J8HeLSLCX7XK9KA4Q5w3xmTC7Z2UqjhfNYcgYCXqDYL7wu2fUFpdrjyhO9xhv1VEE8oY0ryHOcpLbXzXf_Ki-XpduP8q-_qIU9F1BtSShLyFAORVBd0tnbfiSK_eCf_WTJ2X-LVJbXRwpm001- -9fubGbpt6hnWoFMDNsKdN_3nqI8hEWIB2kwhZH1MHdrW3yMqCK0_kpK-MhZ2_tzO_owtzlEro4uPot-QP0WxFkMOxVOzf7RwxFFGn2Z05yft-nWdO3lRM8PWTidh7sI899S1P7nhtbp16SUiuwy46T3jhq38lNt5aRcnotWlMtKMFimGRo9BGABktZtsJc_m07HnLlX0mFStf0R0xTdUkW_K-R9PScykWX_7EwYPL32FMDkvzmYmRZ2uCwPBVe97Fij7-2sZblSwlAzBZTCSCuDllaobliF]--></g></svg>