<svg xmlns="http://www.w3.org/2000/svg" xmlns:xlink="http://www.w3.org/1999/xlink" contentStyleType="text/css" height="1119px" preserveAspectRatio="none" style="width:884px;height:1119px;background:#FFFFFF;" version="1.1" viewBox="0 0 884 1119" width="884px" zoomAndPan="magnify"><title>RuntimeTurn State</title><defs/><g><text fill="#000000" font-family="sans-serif" font-size="14" font-weight="bold" lengthAdjust="spacing" textLength="149.96" x="360.0212" y="22.9951">RuntimeTurn State</text><ellipse cx="472.7" cy="53.2969" fill="#222222" rx="10" ry="10" style="stroke:#222222;stroke-width:1.0;"/><g id="REQUESTED"><rect fill="#F1F1F1" height="50" rx="12.5" ry="12.5" style="stroke:#181818;stroke-width:0.5;" width="105.75" x="419.83" y="124.2969"/><line style="stroke:#181818;stroke-width:0.5;" x1="419.83" x2="525.58" y1="150.5938" y2="150.5938"/><text fill="#000000" font-family="sans-serif" font-size="14" lengthAdjust="spacing" textLength="85.75" x="429.83" y="142.292">REQUESTED</text></g><g id="RESOLVING"><rect fill="#F1F1F1" height="50" rx="12.5" ry="12.5" style="stroke:#181818;stroke-width:0.5;" width="101.3066" x="422.05" y="235.2969"/><line style="stroke:#181818;stroke-width:0.5;" x1="422.05" x2="523.3566" y1="261.5938" y2="261.5938"/><text fill="#000000" font-family="sans-serif" font-size="14" lengthAdjust="spacing" textLength="81.3066" x="432.05" y="253.292">RESOLVING</text></g><g id="PENDING_ROLL"><rect fill="#F1F1F1" height="50" rx="12.5" ry="12.5" style="stroke:#181818;stroke-width:0.5;" width="127.3379" x="311.03" y="362.2969"/><line style="stroke:#181818;stroke-width:0.5;" x1="311.03" x2="438.3679" y1="388.5938" y2="388.5938"/><text fill="#000000" font-family="sans-serif" font-size="14" lengthAdjust="spacing" textLength="107.3379" x="321.03" y="380.292">PENDING_ROLL</text></g><g id="RESOLUTION_FIXED"><rect fill="#F1F1F1" height="50" rx="12.5" ry="12.5" style="stroke:#181818;stroke-width:0.5;" width="159.0977" x="496.15" y="362.2969"/><line style="stroke:#181818;stroke-width:0.5;" x1="496.15" x2="655.2477" y1="388.5938" y2="388.5938"/><text fill="#000000" font-family="sans-serif" font-size="14" lengthAdjust="spacing" textLength="139.0977" x="506.15" y="380.292">RESOLUTION_FIXED</text></g><g id="NARRATING"><rect fill="#F1F1F1" height="50" rx="12.5" ry="12.5" style="stroke:#181818;stroke-width:0.5;" width="103.084" x="337.16" y="473.2969"/><line style="stroke:#181818;stroke-width:0.5;" x1="337.16" x2="440.244" y1="499.5938" y2="499.5938"/><text fill="#000000" font-family="sans-serif" font-size="14" lengthAdjust="spacing" textLength="83.084" x="347.16" y="491.292">NARRATING</text></g><g id="SAFETY_CHECKING"><rect fill="#F1F1F1" height="50" rx="12.5" ry="12.5" style="stroke:#181818;stroke-width:0.5;" width="153.0205" x="97.19" y="600.2969"/><line style="stroke:#181818;stroke-width:0.5;" x1="97.19" x2="250.2105" y1="626.5938" y2="626.5938"/><text fill="#000000" font-family="sans-serif" font-size="14" lengthAdjust="spacing" textLength="133.0205" x="107.19" y="618.292">SAFETY_CHECKING</text></g><g id="READY_TO_COMMIT"><rect fill="#F1F1F1" height="50" rx="12.5" ry="12.5" style="stroke:#181818;stroke-width:0.5;" width="158.6875" x="94.36" y="727.2969"/><line style="stroke:#181818;stroke-width:0.5;" x1="94.36" x2="253.0475" y1="753.5938" y2="753.5938"/><text fill="#000000" font-family="sans-serif" font-size="14" lengthAdjust="spacing" textLength="138.6875" x="104.36" y="745.292">READY_TO_COMMIT</text></g><g id="PRESENTATION_FAILED_RETRYABLE"><rect fill="#F1F1F1" height="50" rx="12.5" ry="12.5" style="stroke:#181818;stroke-width:0.5;" width="271.9385" x="325.73" y="600.2969"/><line style="stroke:#181818;stroke-width:0.5;" x1="325.73" x2="597.6685" y1="626.5938" y2="626.5938"/><text fill="#000000" font-family="sans-serif" font-size="14" lengthAdjust="spacing" textLength="251.9385" x="335.73" y="618.292">PRESENTATION_FAILED_RETRYABLE</text></g><g id="COMMITTING"><rect fill="#F1F1F1" height="50" rx="12.5" ry="12.5" style="stroke:#181818;stroke-width:0.5;" width="111.6357" x="117.88" y="838.2969"/><line style="stroke:#181818;stroke-width:0.5;" x1="117.88" x2="229.5157" y1="864.5938" y2="864.5938"/><text fill="#000000" font-family="sans-serif" font-size="14" lengthAdjust="spacing" textLength="91.6357" x="127.88" y="856.292">COMMITTING</text></g><g id="COMMIT_REPAIR_REQUIRED"><rect fill="#F1F1F1" height="50" rx="12.5" ry="12.5" style="stroke:#181818;stroke-width:0.5;" width="215.4053" x="7" y="980.2969"/><line style="stroke:#181818;stroke-width:0.5;" x1="7" x2="222.4053" y1="1006.5938" y2="1006.5938"/><text fill="#000000" font-family="sans-serif" font-size="14" lengthAdjust="spacing" textLength="195.4053" x="17" y="998.292">COMMIT_REPAIR_REQUIRED</text></g><g id="COMMITTED"><rect fill="#F1F1F1" height="50" rx="12.5" ry="12.5" style="stroke:#181818;stroke-width:0.5;" width="105.8115" x="281.8" y="980.2969"/><line style="stroke:#181818;stroke-width:0.5;" x1="281.8" x2="387.6115" y1="1006.5938" y2="1006.5938"/><text fill="#000000" font-family="sans-serif" font-size="14" lengthAdjust="spacing" textLength="85.8115" x="291.8" y="998.292">COMMITTED</text></g><g id="DISCARDED"><rect fill="#F1F1F1" height="50" rx="12.5" ry="12.5" style="stroke:#181818;stroke-width:0.5;" width="103.2822" x="493.06" y="727.2969"/><line style="stroke:#181818;stroke-width:0.5;" x1="493.06" x2="596.3422" y1="753.5938" y2="753.5938"/><text fill="#000000" font-family="sans-serif" font-size="14" lengthAdjust="spacing" textLength="83.2822" x="503.06" y="745.292">DISCARDED</text></g><ellipse cx="334.7" cy="1102.2969" fill="none" rx="11" ry="11" style="stroke:#222222;stroke-width:1.0;"/><ellipse cx="334.7" cy="1102.2969" fill="#222222" rx="6" ry="6" style="stroke:#222222;stroke-width:1.0;"/><!--link *start* to REQUESTED--><g id="link_*start*_REQUESTED"><path d="M472.7,63.6569 C472.7,77.5869 472.7,98.2469 472.7,117.9469 " fill="none" id="*start*-to-REQUESTED" style="stroke:#181818;stroke-width:1.0;"/><polygon fill="#181818" points="472.7,123.9469,476.7,114.9469,472.7,118.9469,468.7,114.9469,472.7,123.9469" style="stroke:#181818;stroke-width:1.0;"/></g><!--link REQUESTED to RESOLVING--><g id="link_REQUESTED_RESOLVING"><path d="M472.7,174.7569 C472.7,192.7069 472.7,210.9869 472.7,228.9169 " fill="none" id="REQUESTED-to-RESOLVING" style="stroke:#181818;stroke-width:1.0;"/><polygon fill="#181818" points="472.7,234.9169,476.7,225.9169,472.7,229.9169,468.7,225.9169,472.7,234.9169" style="stroke:#181818;stroke-width:1.0;"/></g><!--link RESOLVING to PENDING_ROLL--><g id="link_RESOLVING_PENDING_ROLL"><path d="M421.79,269.7869 C395.21,277.0869 364.92,290.5469 348.7,315.2969 C339.35,329.5669 343.0095,342.5755 352.0195,356.9255 " fill="none" id="RESOLVING-to-PENDING_ROLL" style="stroke:#181818;stroke-width:1.0;"/><polygon fill="#181818" points="355.21,362.0069,353.8119,352.2578,352.5513,357.7724,347.0367,356.5117,355.21,362.0069" style="stroke:#181818;stroke-width:1.0;"/><text fill="#000000" font-family="sans-serif" font-size="13" lengthAdjust="spacing" textLength="79.6948" x="349.7" y="328.3638">roll required</text></g><!--link PENDING_ROLL to RESOLVING--><g id="link_PENDING_ROLL_RESOLVING"><path d="M405.08,361.9369 C414.9,353.2069 425.38,342.8869 433.7,332.2969 C445,317.9169 452.248,305.2288 459.238,290.9088 " fill="none" id="PENDING_ROLL-to-RESOLVING" style="stroke:#181818;stroke-width:1.0;"/><polygon fill="#181818" points="461.87,285.5169,454.3275,291.8501,459.6767,290.0101,461.5167,295.3594,461.87,285.5169" style="stroke:#181818;stroke-width:1.0;"/><text fill="#000000" font-family="sans-serif" font-size="13" lengthAdjust="spacing" textLength="61.7183" x="446.11" y="328.3638">roll result</text></g><!--link RESOLVING to RESOLUTION_FIXED--><g id="link_RESOLVING_RESOLUTION_FIXED"><path d="M492.81,285.6969 C510.96,307.7169 533.7042,335.3266 551.8342,357.3266 " fill="none" id="RESOLVING-to-RESOLUTION_FIXED" style="stroke:#181818;stroke-width:1.0;"/><polygon fill="#181818" points="555.65,361.9569,553.0132,352.4676,552.4702,358.0983,546.8394,357.5553,555.65,361.9569" style="stroke:#181818;stroke-width:1.0;"/><text fill="#000000" font-family="sans-serif" font-size="13" lengthAdjust="spacing" textLength="116.2129" x="531.37" y="328.3638">adjudication fixed</text></g><!--link RESOLUTION_FIXED to NARRATING--><g id="link_RESOLUTION_FIXED_NARRATING"><path d="M533.74,412.7569 C502.94,430.7069 466.4737,451.9653 435.7137,469.8953 " fill="none" id="RESOLUTION_FIXED-to-NARRATING" style="stroke:#181818;stroke-width:1.0;"/><polygon fill="#181818" points="430.53,472.9169,440.3198,471.8403,434.8497,470.3989,436.2911,464.9288,430.53,472.9169" style="stroke:#181818;stroke-width:1.0;"/></g><!--link NARRATING to SAFETY_CHECKING--><g id="link_NARRATING_SAFETY_CHECKING"><path d="M336.75,506.2269 C282.58,514.5669 202.82,530.3669 182.7,553.2969 C171.72,565.8069 169.5205,578.6821 170.1505,593.8221 " fill="none" id="NARRATING-to-SAFETY_CHECKING" style="stroke:#181818;stroke-width:1.0;"/><polygon fill="#181818" points="170.4,599.8169,174.0224,590.6584,170.1921,594.8212,166.0293,590.991,170.4,599.8169" style="stroke:#181818;stroke-width:1.0;"/></g><!--link SAFETY_CHECKING to NARRATING--><g id="link_SAFETY_CHECKING_NARRATING"><path d="M192.63,599.8469 C205.4,584.7269 223.4,565.8569 242.7,553.2969 C271.47,534.5769 301.8858,522.8702 331.0158,514.0802 " fill="none" id="SAFETY_CHECKING-to-NARRATING" style="stroke:#181818;stroke-width:1.0;"/><polygon fill="#181818" points="336.76,512.3469,326.9882,511.1174,331.9732,513.7913,329.2993,518.7763,336.76,512.3469" style="stroke:#181818;stroke-width:1.0;"/><text fill="#000000" font-family="sans-serif" font-size="13" lengthAdjust="spacing" textLength="128.6733" x="243.7" y="566.3638">unsafe / regenerate</text></g><!--link SAFETY_CHECKING to READY_TO_COMMIT--><g id="link_SAFETY_CHECKING_READY_TO_COMMIT"><path d="M173.7,650.6969 C173.7,672.7169 173.7,698.9569 173.7,720.9569 " fill="none" id="SAFETY_CHECKING-to-READY_TO_COMMIT" style="stroke:#181818;stroke-width:1.0;"/><polygon fill="#181818" points="173.7,726.9569,177.7,717.9569,173.7,721.9569,169.7,717.9569,173.7,726.9569" style="stroke:#181818;stroke-width:1.0;"/><text fill="#000000" font-family="sans-serif" font-size="13" lengthAdjust="spacing" textLength="27.314" x="174.7" y="693.3638">safe</text></g><!--link NARRATING to PRESENTATION_FAILED_RETRYABLE--><g id="link_NARRATING_PRESENTATION_FAILED_RETRYABLE"><path d="M381.89,523.6069 C379.23,537.9569 378.35,556.0469 385.7,570.2969 C391.86,582.2369 397.1582,588.5908 408.0682,596.4808 " fill="none" id="NARRATING-to-PRESENTATION_FAILED_RETRYABLE" style="stroke:#181818;stroke-width:1.0;"/><polygon fill="#181818" points="412.93,599.9969,407.9813,591.4816,408.8785,597.0668,403.2932,597.9641,412.93,599.9969" style="stroke:#181818;stroke-width:1.0;"/><text fill="#000000" font-family="sans-serif" font-size="13" lengthAdjust="spacing" textLength="179.6196" x="386.7" y="566.3638">retryable generation failure</text></g><!--link PRESENTATION_FAILED_RETRYABLE to NARRATING--><g id="link_PRESENTATION_FAILED_RETRYABLE_NARRATING"><path d="M544.18,599.8169 C568.49,588.2469 585.16,572.6669 570.7,553.2969 C555.03,532.2969 494.5193,517.6513 446.4393,508.7313 " fill="none" id="PRESENTATION_FAILED_RETRYABLE-to-NARRATING" style="stroke:#181818;stroke-width:1.0;"/><polygon fill="#181818" points="440.54,507.6369,448.6594,513.2115,445.4561,508.5489,450.1186,505.3457,440.54,507.6369" style="stroke:#181818;stroke-width:1.0;"/></g><!--link READY_TO_COMMIT to COMMITTING--><g id="link_READY_TO_COMMIT_COMMITTING"><path d="M173.7,777.7569 C173.7,795.7069 173.7,813.9869 173.7,831.9169 " fill="none" id="READY_TO_COMMIT-to-COMMITTING" style="stroke:#181818;stroke-width:1.0;"/><polygon fill="#181818" points="173.7,837.9169,177.7,828.9169,173.7,832.9169,169.7,828.9169,173.7,837.9169" style="stroke:#181818;stroke-width:1.0;"/></g><!--link COMMITTING to COMMITTING--><g id="link_COMMITTING_COMMITTING"><path d="M230.02,852.8869 C249.15,852.8369 264.52,856.3069 264.52,863.2969 C264.52,870.2869 255.15,873.7726 236.02,873.7226 " fill="none" id="COMMITTING-to-COMMITTING" style="stroke:#181818;stroke-width:1.0;"/><polygon fill="#181818" points="230.02,873.7069,239.0095,877.7304,235.02,873.7199,239.0304,869.7304,230.02,873.7069" style="stroke:#181818;stroke-width:1.0;"/><text fill="#000000" font-family="sans-serif" font-size="13" lengthAdjust="spacing" textLength="197.8691" x="270.52" y="867.8638">retry failed/pending command</text></g><!--link COMMITTING to COMMIT_REPAIR_REQUIRED--><g id="link_COMMITTING_COMMIT_REPAIR_REQUIRED"><path d="M117.77,887.9769 C105.76,895.8069 94.61,905.7969 87.7,918.2969 C76.95,937.7469 83.3669,956.9177 93.9469,974.7377 " fill="none" id="COMMITTING-to-COMMIT_REPAIR_REQUIRED" style="stroke:#181818;stroke-width:1.0;"/><polygon fill="#181818" points="97.01,979.8969,95.8548,970.116,94.4574,975.5975,88.9759,974.2001,97.01,979.8969" style="stroke:#181818;stroke-width:1.0;"/><text fill="#000000" font-family="sans-serif" font-size="13" lengthAdjust="spacing" textLength="202.9282" x="88.7" y="938.8638">non-retryable command failure</text></g><!--link COMMITTING to COMMITTED--><g id="link_COMMITTING_COMMITTED"><path d="M229.83,879.4569 C252.54,887.8669 277.61,900.3669 295.7,918.2969 C312.82,935.2569 321.4156,955.35 327.0956,974.28 " fill="none" id="COMMITTING-to-COMMITTED" style="stroke:#181818;stroke-width:1.0;"/><polygon fill="#181818" points="328.82,980.0269,330.0647,970.257,327.383,975.2378,322.4022,972.5561,328.82,980.0269" style="stroke:#181818;stroke-width:1.0;"/><text fill="#000000" font-family="sans-serif" font-size="13" lengthAdjust="spacing" textLength="185.6372" x="318.27" y="931.3638">all external commands done</text><text fill="#000000" font-family="sans-serif" font-size="13" lengthAdjust="spacing" textLength="170.4727" x="325.8523" y="946.4966">+ local Adventure commit</text></g><!--link RESOLUTION_FIXED to DISCARDED--><g id="link_RESOLUTION_FIXED_DISCARDED"><path d="M588.56,412.7669 C615.27,467.2169 670.31,601.1969 620.7,697.2969 C614.54,709.2369 609.2534,715.593 598.3334,723.483 " fill="none" id="RESOLUTION_FIXED-to-DISCARDED" style="stroke:#181818;stroke-width:1.0;"/><polygon fill="#181818" points="593.47,726.9969,603.1077,724.9682,597.5228,724.0686,598.4224,718.4837,593.47,726.9969" style="stroke:#181818;stroke-width:1.0;"/><text fill="#000000" font-family="sans-serif" font-size="13" lengthAdjust="spacing" textLength="236.6724" x="639.33" y="566.3638">unrecoverable before commit phase</text></g><!--link PRESENTATION_FAILED_RETRYABLE to DISCARDED--><g id="link_PRESENTATION_FAILED_RETRYABLE_DISCARDED"><path d="M477.9,650.6969 C492.53,672.7169 510.6107,699.9586 525.2207,721.9586 " fill="none" id="PRESENTATION_FAILED_RETRYABLE-to-DISCARDED" style="stroke:#181818;stroke-width:1.0;"/><polygon fill="#181818" points="528.54,726.9569,526.8932,717.2467,525.7739,722.7917,520.2289,721.6724,528.54,726.9569" style="stroke:#181818;stroke-width:1.0;"/><text fill="#000000" font-family="sans-serif" font-size="13" lengthAdjust="spacing" textLength="103.8667" x="509.17" y="693.3638">retry exhausted</text></g><!--link COMMITTED to *end*--><g id="link_COMMITTED_*end*"><path d="M334.7,1030.7569 C334.7,1050.3369 334.7,1070.7869 334.7,1085.0969 " fill="none" id="COMMITTED-to-*end*" style="stroke:#181818;stroke-width:1.0;"/><polygon fill="#181818" points="334.7,1091.0969,338.7,1082.0969,334.7,1086.0969,330.7,1082.0969,334.7,1091.0969" style="stroke:#181818;stroke-width:1.0;"/></g><!--link DISCARDED to *end*--><g id="link_DISCARDED_*end*"><path d="M545.97,777.7869 C546.89,816.8769 544.14,894.6369 512.7,950.2969 C470.25,1025.4569 380.5255,1077.2748 349.7955,1093.5048 " fill="none" id="DISCARDED-to-*end*" style="stroke:#181818;stroke-width:1.0;"/><polygon fill="#181818" points="344.49,1096.3069,354.3163,1095.6407,348.9112,1093.9718,350.5802,1088.5667,344.49,1096.3069" style="stroke:#181818;stroke-width:1.0;"/></g><!--link COMMIT_REPAIR_REQUIRED to *end*--><g id="link_COMMIT_REPAIR_REQUIRED_*end*"><path d="M171.36,1030.7569 C224.07,1053.5269 292.8214,1083.2188 319.3214,1094.6588 " fill="none" id="COMMIT_REPAIR_REQUIRED-to-*end*" style="stroke:#181818;stroke-width:1.0;"/><polygon fill="#181818" points="324.83,1097.0369,318.1525,1089.7974,320.2395,1095.0552,314.9817,1097.1422,324.83,1097.0369" style="stroke:#181818;stroke-width:1.0;"/></g><!--SRC=[ZLFDZjCm4BxxAUQ61Egk41Uq1oJJU24YcnOdYwXsKUGcqwrHwXJ7NhKt7e8dv4cmtJJPXYxYDfvllfblVlm2g2xNqc1fh4R8jbZ2cukt5w_XzyzVmAqoSeEvrGfgkS9oNzO8GbMWiMmUKUzXsLXL2Isn9KOQXpxbP4OO9EJkvJUOJDu1PvzlMPQpYFHMvyzcoPSu_K18RmPWpjB8sGMV9GbSWMxgsbN-OQN6Yfo09sc6qDRMPfmql6xpU9OMr_5N9-4AHFNTLh8KHZOALdBdifE_mZmtfPpJt2ljhU3Fw3NB5yNq8vj-2dsC7ATaLz6gLgmGBft61rIe_PpESJYZqQB8PyLqTdCJvuxfUMHKVkx4iZId1xKqJbXKS9Rp1NsVC3yDD7elbcuxNR7Gfv2rspdvD_cqQpBMu-636V3172574Q4gLfTRL9LK3r0scusxf_D49sDEOrxuQubvs9Hgr6JefcFthPmlVrYnkmVS6THAr4TU2rMZy5wzWhefdPjMZwZ2F_01qZnp156SJIcFGbghkfyGz2nnrVHisAv5-p_ZVPhlC2JShOLjZJ_3eGSVwduI6SAFdcUcrS5_0000]--></g></svg>