<svg xmlns="http://www.w3.org/2000/svg" xmlns:xlink="http://www.w3.org/1999/xlink" contentStyleType="text/css" height="1617px" preserveAspectRatio="none" style="width:2897px;height:1617px;background:#FFFFFF;" version="1.1" viewBox="0 0 2897 1617" width="2897px" zoomAndPan="magnify"><title>UC-02 &#54869;&#51221;&#46108; GM Turn &#54980; &#50724;&#47000;&#46108; &#45824;&#54868;&#47484; &#50517;&#52629;&#54620;&#45796; &#8212; &#50529;&#54000;&#48708;&#54000;</title><defs/><g><text fill="#000000" font-family="sans-serif" font-size="14" font-weight="bold" lengthAdjust="spacing" textLength="398.4513" x="1248.1999" y="32.9951">UC-02 &#54869;&#51221;&#46108; GM Turn &#54980; &#50724;&#47000;&#46108; &#45824;&#54868;&#47484; &#50517;&#52629;&#54620;&#45796; &#8212; &#50529;&#54000;&#48708;&#54000;</text><rect fill="none" height="20.9531" style="stroke:none;stroke-width:1.0;" width="2864.8511" x="15" y="50.042"/><ellipse cx="238.6591" cy="85.9951" fill="#222222" rx="10" ry="10" style="stroke:#222222;stroke-width:1.0;"/><rect fill="#F1F1F1" height="33.9688" rx="12.5" ry="12.5" style="stroke:#181818;stroke-width:0.5;" width="155.8509" x="160.7336" y="115.9951"/><text fill="#000000" font-family="sans-serif" font-size="12" lengthAdjust="spacing" textLength="135.8509" x="170.7336" y="137.1338">GM Turn &#44208;&#44284;&#47484; &#54869;&#51221;&#54620;&#45796;</text><path d="M384.5593,174.3818 L384.5593,182.9482 L364.5593,186.9482 L384.5593,190.9482 L384.5593,199.5146 A0,0 0 0 0 384.5593,199.5146 L767.1771,199.5146 A0,0 0 0 0 767.1771,199.5146 L767.1771,184.3818 L757.1771,174.3818 L384.5593,174.3818 A0,0 0 0 0 384.5593,174.3818 " fill="#FEFFDD" style="stroke:#181818;stroke-width:0.5;"/><path d="M757.1771,174.3818 L757.1771,184.3818 L767.1771,184.3818 L757.1771,174.3818 " fill="#FEFFDD" style="stroke:#181818;stroke-width:0.5;"/><text fill="#000000" font-family="sans-serif" font-size="13" lengthAdjust="spacing" textLength="361.6178" x="390.5593" y="191.4487">&#51060;&#54980; &#45824;&#54868; &#50517;&#52629;&#51060; &#49892;&#54056;&#54644;&#46020; &#54869;&#51221;&#46108; &#53556;&#51032; &#51025;&#45813;&#51008; &#51204;&#45804;&#54620;&#45796;. (AC-08)</text><rect fill="#F1F1F1" height="33.9688" rx="12.5" ry="12.5" style="stroke:#181818;stroke-width:0.5;" width="251.8005" x="112.7588" y="169.9639"/><text fill="#000000" font-family="sans-serif" font-size="12" lengthAdjust="spacing" textLength="231.8005" x="122.7588" y="191.1025">&#54869;&#51221;&#46108; GM Turn&#51032; &#54540;&#47112;&#51060;&#50612; &#51025;&#45813;&#51012; &#51204;&#45804;&#54620;&#45796;</text><rect fill="#F1F1F1" height="33.9688" rx="12.5" ry="12.5" style="stroke:#181818;stroke-width:0.5;" width="209.4713" x="133.9234" y="1206.6904"/><text fill="#000000" font-family="sans-serif" font-size="12" lengthAdjust="spacing" textLength="189.4713" x="143.9234" y="1227.8291">&#45796;&#51020; GM &#50836;&#52397;&#51032; &#54532;&#47212;&#54532;&#53944;&#47484; &#51456;&#48708;&#54620;&#45796;</text><path d="M345.4674,1318.5967 L345.4674,1343.7295 L771.4016,1343.7295 L771.4016,1328.5967 L761.4016,1318.5967 L345.4674,1318.5967 " fill="#FEFFDD" style="stroke:#181818;stroke-width:0.5;"/><path d="M761.4016,1318.5967 L761.4016,1328.5967 L771.4016,1328.5967 L761.4016,1318.5967 " fill="#FEFFDD" style="stroke:#181818;stroke-width:0.5;"/><text fill="#000000" font-family="sans-serif" font-size="13" lengthAdjust="spacing" textLength="404.9342" x="351.4674" y="1335.6636">&#45236;&#48512; &#44228;&#54925;&#44284; &#48708;&#44277;&#44060; &#49324;&#49892;&#51008; &#49324;&#50857;&#51088;&#50640;&#44172; &#44277;&#44060;&#54616;&#51648; &#50506;&#45716;&#45796;. (BR-15, AC-10)</text><rect fill="#F1F1F1" height="33.9688" rx="12.5" ry="12.5" style="stroke:#181818;stroke-width:0.5;" width="150.4565" x="21" y="1495.667"/><text fill="#000000" font-family="sans-serif" font-size="12" lengthAdjust="spacing" textLength="130.4565" x="31" y="1516.8057">&#45796;&#51020; GM &#50836;&#52397;&#51012; &#51652;&#54665;&#54620;&#45796;</text><path d="M539.6274,1392.1475 L539.6274,1400.7139 L519.6274,1404.7139 L539.6274,1408.7139 L539.6274,1417.2803 A0,0 0 0 0 539.6274,1417.2803 L1063.1811,1417.2803 A0,0 0 0 0 1063.1811,1417.2803 L1063.1811,1402.1475 L1053.1811,1392.1475 L539.6274,1392.1475 A0,0 0 0 0 539.6274,1392.1475 " fill="#FEFFDD" style="stroke:#181818;stroke-width:0.5;"/><path d="M1053.1811,1392.1475 L1053.1811,1402.1475 L1063.1811,1402.1475 L1053.1811,1392.1475 " fill="#FEFFDD" style="stroke:#181818;stroke-width:0.5;"/><text fill="#000000" font-family="sans-serif" font-size="13" lengthAdjust="spacing" textLength="502.5536" x="545.6274" y="1409.2144">&#50724;&#47448;&#45716; &#54869;&#51221;&#46108; &#51060;&#51204; &#53556;&#51032; &#51025;&#45813;&#51060; &#50500;&#45768;&#46972; &#45796;&#51020; GM &#50836;&#52397; &#51456;&#48708;&#50640;&#47564; &#54644;&#45817;&#54620;&#45796;. (BR-13, AC-08)</text><rect fill="#F1F1F1" height="33.9688" rx="12.5" ry="12.5" style="stroke:#181818;stroke-width:0.5;" width="277.075" x="242.5524" y="1387.7295"/><text fill="#000000" font-family="sans-serif" font-size="12" lengthAdjust="spacing" textLength="257.075" x="252.5524" y="1408.8682">&#51060; GM &#50836;&#52397;&#50640; &#45824;&#54644; &#51116;&#49884;&#46020; &#44032;&#45733;&#54620; &#50724;&#47448;&#47484; &#48152;&#54872;&#54620;&#45796;</text><line style="stroke:#000000;stroke-width:1.5;" x1="15" x2="15" y1="50.042" y2="1605.6357"/><rect fill="#F1F1F1" height="33.9688" rx="12.5" ry="12.5" style="stroke:#181818;stroke-width:0.5;" width="263.6884" x="1502.4704" y="223.9326"/><text fill="#000000" font-family="sans-serif" font-size="12" lengthAdjust="spacing" textLength="243.6884" x="1512.4704" y="245.0713">&#47560;&#51648;&#47561; &#51221;&#49345; &#50836;&#50557;&#44284; &#45824;&#54868; &#50896;&#47928;&#51012; &#44592;&#51456;&#51004;&#47196; &#49340;&#45716;&#45796;</text><path d="M1811.6296,282.3193 L1811.6296,290.8857 L1791.6296,294.8857 L1811.6296,298.8857 L1811.6296,307.4521 A0,0 0 0 0 1811.6296,307.4521 L2349.3819,307.4521 A0,0 0 0 0 2349.3819,307.4521 L2349.3819,292.3193 L2339.3819,282.3193 L1811.6296,282.3193 A0,0 0 0 0 1811.6296,282.3193 " fill="#FEFFDD" style="stroke:#181818;stroke-width:0.5;"/><path d="M2339.3819,282.3193 L2339.3819,292.3193 L2349.3819,292.3193 L2339.3819,282.3193 " fill="#FEFFDD" style="stroke:#181818;stroke-width:0.5;"/><text fill="#000000" font-family="sans-serif" font-size="13" lengthAdjust="spacing" textLength="516.7523" x="1817.6296" y="299.3862">&#52572;&#49888; &#51077;&#47141;&#183;&#51109;&#47732;&#183;&#51025;&#45813;&#44284; &#51652;&#54665; &#51473;&#51064; &#44404;&#47548;&#183;&#49440;&#53469;&#51008; &#50896;&#47928; &#44536;&#45824;&#47196; &#48372;&#51316;&#54620;&#45796;. (BR-06, BR-07, AC-04)</text><rect fill="#F1F1F1" height="33.9688" rx="12.5" ry="12.5" style="stroke:#181818;stroke-width:0.5;" width="314.6299" x="1476.9997" y="277.9014"/><text fill="#000000" font-family="sans-serif" font-size="12" lengthAdjust="spacing" textLength="294.6299" x="1486.9997" y="299.04">&#54869;&#51221;&#46108; GM Turn&#48372;&#45796; &#50724;&#47000;&#46108; &#45824;&#54868;&#47564; &#50517;&#52629; &#45824;&#49345;&#51004;&#47196; &#51221;&#54620;&#45796;</text><rect fill="#F1F1F1" height="33.9688" rx="12.5" ry="12.5" style="stroke:#181818;stroke-width:0.5;" width="385.936" x="1441.3466" y="331.8701"/><text fill="#000000" font-family="sans-serif" font-size="12" lengthAdjust="spacing" textLength="365.936" x="1451.3466" y="353.0088">&#48156;&#50616;, &#51109;&#47732; &#55120;&#47492;, &#51060;&#51204; &#49345;&#54889; &#51060;&#54644;&#50640; &#54596;&#50836;&#54620; &#44208;&#44284;&#50752; &#48120;&#54644;&#44208; &#47928;&#51228;&#47484; &#50836;&#50557;&#54620;&#45796;</text><path d="M1829.5179,390.2568 L1829.5179,398.8232 L1809.5179,402.8232 L1829.5179,406.8232 L1829.5179,415.3896 A0,0 0 0 0 1829.5179,415.3896 L2286.5771,415.3896 A0,0 0 0 0 2286.5771,415.3896 L2286.5771,400.2568 L2276.5771,390.2568 L1829.5179,390.2568 A0,0 0 0 0 1829.5179,390.2568 " fill="#FEFFDD" style="stroke:#181818;stroke-width:0.5;"/><path d="M2276.5771,390.2568 L2276.5771,400.2568 L2286.5771,400.2568 L2276.5771,390.2568 " fill="#FEFFDD" style="stroke:#181818;stroke-width:0.5;"/><text fill="#000000" font-family="sans-serif" font-size="13" lengthAdjust="spacing" textLength="436.0592" x="1835.5179" y="407.3237">&#52572;&#49888; &#52880;&#47533;&#53552; &#49884;&#53944;&#50752; Current Situation&#51060; &#51221;&#48376;&#51060;&#45796;. (BR-08, BR-09, AC-05)</text><rect fill="#F1F1F1" height="33.9688" rx="12.5" ry="12.5" style="stroke:#181818;stroke-width:0.5;" width="350.4065" x="1459.1114" y="385.8389"/><text fill="#000000" font-family="sans-serif" font-size="12" lengthAdjust="spacing" textLength="330.4065" x="1469.1114" y="406.9775">HP&#183;&#51088;&#50896;&#183;&#50948;&#52824;&#183;&#51204;&#53804; &#49345;&#53468; &#46321; &#51221;&#48376; &#49688;&#52824;&#45716; &#50836;&#50557;&#51004;&#47196; &#44081;&#49888;&#54616;&#51648; &#50506;&#45716;&#45796;</text><polygon fill="#F1F1F1" points="1523.8864,439.8076,1744.7429,439.8076,1756.7429,451.8076,1744.7429,463.8076,1523.8864,463.8076,1511.8864,451.8076,1523.8864,439.8076" style="stroke:#181818;stroke-width:0.5;"/><text fill="#000000" font-family="sans-serif" font-size="11" lengthAdjust="spacing" textLength="220.8565" x="1523.8864" y="455.6157">&#51060;&#54980; &#54540;&#47112;&#51060;&#50640; &#50689;&#54693;&#51012; &#51452;&#45716; &#54869;&#51221; &#48320;&#54868;&#44032; &#51080;&#45716;&#44032;?</text><text fill="#000000" font-family="sans-serif" font-size="11" lengthAdjust="spacing" textLength="10.1199" x="1501.7664" y="449.2134">&#50696;</text><text fill="#000000" font-family="sans-serif" font-size="11" lengthAdjust="spacing" textLength="30.3598" x="1756.7429" y="449.2134">&#50500;&#45768;&#50836;</text><path d="M1298.8546,478.2256 L1298.8546,486.792 L1278.8546,490.792 L1298.8546,494.792 L1298.8546,503.3584 A0,0 0 0 0 1298.8546,503.3584 L2008.6165,503.3584 A0,0 0 0 0 2008.6165,503.3584 L2008.6165,488.2256 L1998.6165,478.2256 L1298.8546,478.2256 A0,0 0 0 0 1298.8546,478.2256 " fill="#FEFFDD" style="stroke:#181818;stroke-width:0.5;"/><path d="M1998.6165,478.2256 L1998.6165,488.2256 L2008.6165,488.2256 L1998.6165,478.2256 " fill="#FEFFDD" style="stroke:#181818;stroke-width:0.5;"/><text fill="#000000" font-family="sans-serif" font-size="13" lengthAdjust="spacing" textLength="688.7619" x="1304.8546" y="495.2925">&#49324;&#44148;&#183;&#44288;&#44228;&#183;&#47785;&#54364;&#183;&#50948;&#54801; &#48320;&#54868;&#47564; &#48152;&#50689;&#54620;&#45796;. &#47784;&#54744;&#48324; &#44592;&#47197;&#51012; &#50976;&#51648;&#54616;&#47728; &#52880;&#47533;&#53552; &#49884;&#53944; &#51221;&#48376;&#51012; &#48373;&#51228;&#54616;&#51648; &#50506;&#45716;&#45796;. (BR-10, BR-11, AC-06)</text><rect fill="#F1F1F1" height="33.9688" rx="12.5" ry="12.5" style="stroke:#181818;stroke-width:0.5;" width="204.6735" x="1074.1811" y="473.8076"/><text fill="#000000" font-family="sans-serif" font-size="12" lengthAdjust="spacing" textLength="184.6735" x="1084.1811" y="494.9463">&#54788;&#51116; &#49345;&#54889; &#44288;&#47144; &#51109;&#44592; &#44592;&#47197;&#51012; &#44081;&#49888;&#54620;&#45796;</text><rect fill="#F1F1F1" height="33.9688" rx="12.5" ry="12.5" style="stroke:#181818;stroke-width:0.5;" width="126.9897" x="2028.6165" y="473.8076"/><text fill="#000000" font-family="sans-serif" font-size="12" lengthAdjust="spacing" textLength="106.9897" x="2038.6165" y="494.9463">&#51109;&#44592; &#44592;&#47197;&#51012; &#50976;&#51648;&#54620;&#45796;</text><polygon fill="#F1F1F1" points="1634.3146,513.7764,1646.3146,525.7764,1634.3146,537.7764,1622.3146,525.7764,1634.3146,513.7764" style="stroke:#181818;stroke-width:0.5;"/><rect fill="#F1F1F1" height="33.9688" rx="12.5" ry="12.5" style="stroke:#181818;stroke-width:0.5;" width="174.9645" x="1546.8324" y="557.7764"/><text fill="#000000" font-family="sans-serif" font-size="12" lengthAdjust="spacing" textLength="154.9645" x="1556.8324" y="578.915">&#50517;&#52629; &#44208;&#44284;&#51032; &#50976;&#54952;&#49457;&#51012; &#54869;&#51064;&#54620;&#45796;</text><polygon fill="#F1F1F1" points="1581.4791,611.7451,1687.1501,611.7451,1699.1501,623.7451,1687.1501,635.7451,1581.4791,635.7451,1569.4791,623.7451,1581.4791,611.7451" style="stroke:#181818;stroke-width:0.5;"/><text fill="#000000" font-family="sans-serif" font-size="11" lengthAdjust="spacing" textLength="105.671" x="1581.4791" y="627.5532">&#50517;&#52629; &#44208;&#44284;&#44032; &#50976;&#54952;&#54620;&#44032;?</text><text fill="#000000" font-family="sans-serif" font-size="11" lengthAdjust="spacing" textLength="10.1199" x="1559.3592" y="621.1509">&#50696;</text><text fill="#000000" font-family="sans-serif" font-size="11" lengthAdjust="spacing" textLength="30.3598" x="1699.1501" y="621.1509">&#50500;&#45768;&#50836;</text><rect fill="#F1F1F1" height="33.9688" rx="12.5" ry="12.5" style="stroke:#181818;stroke-width:0.5;" width="265.075" x="1265.1536" y="645.7451"/><text fill="#000000" font-family="sans-serif" font-size="12" lengthAdjust="spacing" textLength="245.075" x="1275.1536" y="666.8838">&#49352; &#50836;&#50557;&#51012; &#45796;&#51020; GM &#50836;&#52397;&#48512;&#53552; &#49324;&#50857;&#54624; &#54980;&#48372;&#47196; &#46164;&#45796;</text><rect fill="#F1F1F1" height="33.9688" rx="12.5" ry="12.5" style="stroke:#181818;stroke-width:0.5;" width="200.8591" x="1770.5086" y="645.7451"/><text fill="#000000" font-family="sans-serif" font-size="12" lengthAdjust="spacing" textLength="180.8591" x="1780.5086" y="666.8838">&#47560;&#51648;&#47561; &#51221;&#49345; &#50836;&#50557;&#44284; &#50896;&#47928;&#51012; &#48372;&#51316;&#54620;&#45796;</text><rect fill="#F1F1F1" height="33.9688" rx="12.5" ry="12.5" style="stroke:#181818;stroke-width:0.5;" width="138.0298" x="1801.9232" y="699.7139"/><text fill="#000000" font-family="sans-serif" font-size="12" lengthAdjust="spacing" textLength="118.0298" x="1811.9232" y="720.8525">&#45824;&#54868; &#50517;&#52629;&#51012; &#51116;&#49884;&#46020;&#54620;&#45796;</text><polygon fill="#F1F1F1" points="1813.0427,753.6826,1928.8336,753.6826,1940.8336,765.6826,1928.8336,777.6826,1813.0427,777.6826,1801.0427,765.6826,1813.0427,753.6826" style="stroke:#181818;stroke-width:0.5;"/><text fill="#000000" font-family="sans-serif" font-size="11" lengthAdjust="spacing" textLength="115.7909" x="1813.0427" y="769.4907">&#51116;&#49884;&#46020; &#44208;&#44284;&#44032; &#50976;&#54952;&#54620;&#44032;?</text><text fill="#000000" font-family="sans-serif" font-size="11" lengthAdjust="spacing" textLength="10.1199" x="1790.9228" y="763.0884">&#50696;</text><text fill="#000000" font-family="sans-serif" font-size="11" lengthAdjust="spacing" textLength="30.3598" x="1940.8336" y="763.0884">&#50500;&#45768;&#50836;</text><rect fill="#F1F1F1" height="33.9688" rx="12.5" ry="12.5" style="stroke:#181818;stroke-width:0.5;" width="287.1552" x="1560.2286" y="787.6826"/><text fill="#000000" font-family="sans-serif" font-size="12" lengthAdjust="spacing" textLength="267.1552" x="1570.2286" y="808.8213">&#51116;&#49884;&#46020; &#50836;&#50557;&#51012; &#45796;&#51020; GM &#50836;&#52397;&#48512;&#53552; &#49324;&#50857;&#54624; &#54980;&#48372;&#47196; &#46164;&#45796;</text><rect fill="#F1F1F1" height="33.9688" rx="12.5" ry="12.5" style="stroke:#181818;stroke-width:0.5;" width="226.7537" x="1924.6932" y="787.6826"/><text fill="#000000" font-family="sans-serif" font-size="12" lengthAdjust="spacing" textLength="206.7537" x="1934.6932" y="808.8213">&#47560;&#51648;&#47561; &#51221;&#49345; &#50836;&#50557;&#44284; &#50896;&#47928;&#51012; &#44228;&#49549; &#48372;&#51316;&#54620;&#45796;</text><rect fill="#F1F1F1" height="33.9688" rx="12.5" ry="12.5" style="stroke:#181818;stroke-width:0.5;" width="341.3724" x="1867.3838" y="841.6514"/><text fill="#000000" font-family="sans-serif" font-size="12" lengthAdjust="spacing" textLength="321.3724" x="1877.3838" y="862.79">&#49352; &#50836;&#50557;&#51008; &#50500;&#51649; &#51201;&#50857;&#54616;&#51648; &#50506;&#44256; &#45796;&#51020; &#50836;&#52397; &#51456;&#48708;&#50640;&#49436; &#45796;&#49884; &#54869;&#51064;&#54620;&#45796;</text><polygon fill="#F1F1F1" points="1870.9381,881.6201,1882.9381,893.6201,1870.9381,905.6201,1858.9381,893.6201,1870.9381,881.6201" style="stroke:#181818;stroke-width:0.5;"/><polygon fill="#F1F1F1" points="1634.3146,911.6201,1646.3146,923.6201,1634.3146,935.6201,1622.3146,923.6201,1634.3146,911.6201" style="stroke:#181818;stroke-width:0.5;"/><path d="M1733.0064,945.6201 L1733.0064,970.7529 L2243.0977,970.7529 L2243.0977,955.6201 L2233.0977,945.6201 L1733.0064,945.6201 " fill="#FEFFDD" style="stroke:#181818;stroke-width:0.5;"/><path d="M2233.0977,945.6201 L2233.0977,955.6201 L2243.0977,955.6201 L2233.0977,945.6201 " fill="#FEFFDD" style="stroke:#181818;stroke-width:0.5;"/><text fill="#000000" font-family="sans-serif" font-size="13" lengthAdjust="spacing" textLength="489.0913" x="1739.0064" y="962.687">&#50517;&#52629;&#54616;&#51648; &#50506;&#51008; &#52572;&#44540; &#45824;&#54868;&#45716; &#51116;&#50517;&#52629;&#54616;&#51648; &#50506;&#45716;&#45796;. &#44592;&#47197;&#51008; &#49325;&#51228;&#54616;&#51648; &#50506;&#45716;&#45796;. (BR-12, AC-07)</text><polygon fill="#F1F1F1" points="1547.6228,970.7529,1721.0064,970.7529,1733.0064,982.7529,1721.0064,994.7529,1547.6228,994.7529,1535.6228,982.7529,1547.6228,970.7529" style="stroke:#181818;stroke-width:0.5;"/><text fill="#000000" font-family="sans-serif" font-size="11" lengthAdjust="spacing" textLength="173.3837" x="1547.6228" y="986.561">&#45572;&#51201; &#50836;&#50557;&#51060; &#44256;&#51221; &#44396;&#50669;&#50640; &#46308;&#50612;&#44032;&#45716;&#44032;?</text><text fill="#000000" font-family="sans-serif" font-size="11" lengthAdjust="spacing" textLength="10.1199" x="1525.5029" y="980.1587">&#50696;</text><text fill="#000000" font-family="sans-serif" font-size="11" lengthAdjust="spacing" textLength="30.3598" x="1733.0064" y="980.1587">&#50500;&#45768;&#50836;</text><rect fill="#F1F1F1" height="33.9688" rx="12.5" ry="12.5" style="stroke:#181818;stroke-width:0.5;" width="187.3912" x="1271.8216" y="1004.7529"/><text fill="#000000" font-family="sans-serif" font-size="12" lengthAdjust="spacing" textLength="167.3912" x="1281.8216" y="1025.8916">&#50836;&#50557;&#51012; &#45796;&#51020; GM &#50836;&#52397;&#50857;&#51004;&#47196; &#46164;&#45796;</text><rect fill="#F1F1F1" height="33.9688" rx="12.5" ry="12.5" style="stroke:#181818;stroke-width:0.5;" width="149.0698" x="1828.5772" y="1004.7529"/><text fill="#000000" font-family="sans-serif" font-size="12" lengthAdjust="spacing" textLength="129.0698" x="1838.5772" y="1025.8916">&#50724;&#47000;&#46108; &#50836;&#50557;&#51012; &#51116;&#50517;&#52629;&#54620;&#45796;</text><polygon fill="#F1F1F1" points="1799.4921,1058.7217,2006.7321,1058.7217,2018.7321,1070.7217,2006.7321,1082.7217,1799.4921,1082.7217,1787.4921,1070.7217,1799.4921,1058.7217" style="stroke:#181818;stroke-width:0.5;"/><text fill="#000000" font-family="sans-serif" font-size="11" lengthAdjust="spacing" textLength="207.24" x="1799.4921" y="1074.5298">&#51116;&#50517;&#52629; &#54980;&#50640;&#46020; &#51204;&#52404; &#44592;&#47197;&#51060; &#46308;&#50612;&#44032;&#51648; &#50506;&#45716;&#44032;?</text><text fill="#000000" font-family="sans-serif" font-size="11" lengthAdjust="spacing" textLength="10.1199" x="1777.3722" y="1068.1274">&#50696;</text><text fill="#000000" font-family="sans-serif" font-size="11" lengthAdjust="spacing" textLength="30.3598" x="2018.7321" y="1068.1274">&#50500;&#45768;&#50836;</text><rect fill="#F1F1F1" height="33.9688" rx="12.5" ry="12.5" style="stroke:#181818;stroke-width:0.5;" width="455.5878" x="1489.2127" y="1092.7217"/><text fill="#000000" font-family="sans-serif" font-size="12" lengthAdjust="spacing" textLength="435.5878" x="1499.2127" y="1113.8604">&#51204;&#52404; &#44592;&#47197;&#51008; &#48372;&#51316;&#54616;&#44256; &#54788;&#51116; &#49345;&#54889;&#44284; &#44288;&#47144;&#46108; &#50724;&#47000;&#46108; &#50836;&#50557;&#47564; &#45796;&#51020; &#54532;&#47212;&#54532;&#53944;&#50857;&#51004;&#47196; &#49440;&#53469;&#54620;&#45796;</text><rect fill="#F1F1F1" height="33.9688" rx="12.5" ry="12.5" style="stroke:#181818;stroke-width:0.5;" width="248.8339" x="1964.8006" y="1092.7217"/><text fill="#000000" font-family="sans-serif" font-size="12" lengthAdjust="spacing" textLength="228.8339" x="1974.8006" y="1113.8604">&#50517;&#52629;&#54620; &#50836;&#50557; &#51204;&#52404;&#47484; &#45796;&#51020; &#54532;&#47212;&#54532;&#53944;&#50857;&#51004;&#47196; &#46164;&#45796;</text><polygon fill="#F1F1F1" points="1903.1121,1132.6904,1915.1121,1144.6904,1903.1121,1156.6904,1891.1121,1144.6904,1903.1121,1132.6904" style="stroke:#181818;stroke-width:0.5;"/><polygon fill="#F1F1F1" points="1634.3146,1162.6904,1646.3146,1174.6904,1634.3146,1186.6904,1622.3146,1174.6904,1634.3146,1162.6904" style="stroke:#181818;stroke-width:0.5;"/><rect fill="#F1F1F1" height="47.9375" rx="12.5" ry="12.5" style="stroke:#181818;stroke-width:0.5;" width="278.543" x="1495.0431" y="1260.6592"/><text fill="#000000" font-family="sans-serif" font-size="12" lengthAdjust="spacing" textLength="258.543" x="1505.0431" y="1281.7979">&#51221;&#49345; &#50836;&#50557; &#46608;&#45716; &#47560;&#51648;&#47561; &#51221;&#49345; &#50836;&#50557;&#44284; &#48372;&#51316;&#46108; &#50896;&#47928;&#51004;&#47196;</text><text fill="#000000" font-family="sans-serif" font-size="12" lengthAdjust="spacing" textLength="229.7938" x="1505.0431" y="1295.7666">&#54596;&#49688; &#51221;&#48372;&#50752; &#52572;&#49888; &#51077;&#47141;&#51060; &#46308;&#50612;&#44032;&#45716;&#51648; &#54869;&#51064;&#54620;&#45796;</text><path d="M1741.1229,1318.5967 L1741.1229,1343.7295 L2167.0571,1343.7295 L2167.0571,1328.5967 L2157.0571,1318.5967 L1741.1229,1318.5967 " fill="#FEFFDD" style="stroke:#181818;stroke-width:0.5;"/><path d="M2157.0571,1318.5967 L2157.0571,1328.5967 L2167.0571,1328.5967 L2157.0571,1318.5967 " fill="#FEFFDD" style="stroke:#181818;stroke-width:0.5;"/><text fill="#000000" font-family="sans-serif" font-size="13" lengthAdjust="spacing" textLength="404.9342" x="1747.1229" y="1335.6636">&#45236;&#48512; &#44228;&#54925;&#44284; &#48708;&#44277;&#44060; &#49324;&#49892;&#51008; &#49324;&#50857;&#51088;&#50640;&#44172; &#44277;&#44060;&#54616;&#51648; &#50506;&#45716;&#45796;. (BR-15, AC-10)</text><polygon fill="#F1F1F1" points="1539.5063,1343.7295,1729.1229,1343.7295,1741.1229,1355.7295,1729.1229,1367.7295,1539.5063,1367.7295,1527.5063,1355.7295,1539.5063,1343.7295" style="stroke:#181818;stroke-width:0.5;"/><text fill="#000000" font-family="sans-serif" font-size="11" lengthAdjust="spacing" textLength="189.6167" x="1539.5063" y="1359.5376">&#54596;&#49688; &#51221;&#48372;&#50752; &#52572;&#49888; &#51077;&#47141;&#51012; &#45812;&#51012; &#49688; &#51080;&#45716;&#44032;?</text><text fill="#000000" font-family="sans-serif" font-size="11" lengthAdjust="spacing" textLength="10.1199" x="1517.3864" y="1353.1353">&#50696;</text><text fill="#000000" font-family="sans-serif" font-size="11" lengthAdjust="spacing" textLength="30.3598" x="1741.1229" y="1353.1353">&#50500;&#45768;&#50836;</text><rect fill="#F1F1F1" height="33.9688" rx="12.5" ry="12.5" style="stroke:#181818;stroke-width:0.5;" width="252.6483" x="1365.5596" y="1387.7295"/><text fill="#000000" font-family="sans-serif" font-size="12" lengthAdjust="spacing" textLength="232.6483" x="1375.5596" y="1408.8682">&#54869;&#51221;&#46108; &#49352; &#50836;&#50557;&#51060; &#51080;&#51004;&#47732; &#51060; &#50836;&#52397;&#48512;&#53552; &#49324;&#50857;&#54620;&#45796;</text><rect fill="#F1F1F1" height="33.9688" rx="12.5" ry="12.5" style="stroke:#181818;stroke-width:0.5;" width="237.7938" x="1372.9869" y="1441.6982"/><text fill="#000000" font-family="sans-serif" font-size="12" lengthAdjust="spacing" textLength="217.7938" x="1382.9869" y="1462.8369">&#45796;&#51020; &#50836;&#52397;&#51012; &#50948;&#54620; &#45800;&#51068; &#54532;&#47212;&#54532;&#53944;&#47484; &#54869;&#51221;&#54620;&#45796;</text><polygon fill="#F1F1F1" points="1634.3146,1539.6357,1646.3146,1551.6357,1634.3146,1563.6357,1622.3146,1551.6357,1634.3146,1539.6357" style="stroke:#181818;stroke-width:0.5;"/><line style="stroke:#000000;stroke-width:1.5;" x1="1068.1811" x2="1068.1811" y1="50.042" y2="1605.6357"/><path d="M2447.056,1318.5967 L2447.056,1343.7295 L2872.9902,1343.7295 L2872.9902,1328.5967 L2862.9902,1318.5967 L2447.056,1318.5967 " fill="#FEFFDD" style="stroke:#181818;stroke-width:0.5;"/><path d="M2862.9902,1318.5967 L2862.9902,1328.5967 L2872.9902,1328.5967 L2862.9902,1318.5967 " fill="#FEFFDD" style="stroke:#181818;stroke-width:0.5;"/><text fill="#000000" font-family="sans-serif" font-size="13" lengthAdjust="spacing" textLength="404.9342" x="2453.056" y="1335.6636">&#45236;&#48512; &#44228;&#54925;&#44284; &#48708;&#44277;&#44060; &#49324;&#49892;&#51008; &#49324;&#50857;&#51088;&#50640;&#44172; &#44277;&#44060;&#54616;&#51648; &#50506;&#45716;&#45796;. (BR-15, AC-10)</text><rect fill="#F1F1F1" height="33.9688" rx="12.5" ry="12.5" style="stroke:#181818;stroke-width:0.5;" width="182.5934" x="2391.3819" y="1441.6982"/><text fill="#000000" font-family="sans-serif" font-size="12" lengthAdjust="spacing" textLength="162.5934" x="2401.3819" y="1462.8369">&#45796;&#51020; &#50836;&#52397;&#51012; &#45796;&#49884; &#49884;&#46020;&#54624; &#49688; &#51080;&#45796;</text><ellipse cx="2370.3819" cy="1594.6357" fill="none" rx="11" ry="11" style="stroke:#222222;stroke-width:1.0;"/><ellipse cx="2370.3819" cy="1594.6357" fill="#222222" rx="6" ry="6" style="stroke:#222222;stroke-width:1.0;"/><line style="stroke:#000000;stroke-width:1.5;" x1="2354.3819" x2="2354.3819" y1="50.042" y2="1605.6357"/><line style="stroke:#000000;stroke-width:1.5;" x1="2877.9902" x2="2877.9902" y1="50.042" y2="1605.6357"/><line style="stroke:#181818;stroke-width:1.0;" x1="238.6591" x2="238.6591" y1="95.9951" y2="115.9951"/><polygon fill="#181818" points="234.6591,105.9951,238.6591,115.9951,242.6591,105.9951,238.6591,109.9951" style="stroke:#181818;stroke-width:1.0;"/><line style="stroke:#181818;stroke-width:1.0;" x1="238.6591" x2="238.6591" y1="149.9639" y2="169.9639"/><polygon fill="#181818" points="234.6591,159.9639,238.6591,169.9639,242.6591,159.9639,238.6591,163.9639" style="stroke:#181818;stroke-width:1.0;"/><line style="stroke:#181818;stroke-width:1.0;" x1="1634.3146" x2="1634.3146" y1="257.9014" y2="277.9014"/><polygon fill="#181818" points="1630.3146,267.9014,1634.3146,277.9014,1638.3146,267.9014,1634.3146,271.9014" style="stroke:#181818;stroke-width:1.0;"/><line style="stroke:#181818;stroke-width:1.0;" x1="1634.3146" x2="1634.3146" y1="311.8701" y2="331.8701"/><polygon fill="#181818" points="1630.3146,321.8701,1634.3146,331.8701,1638.3146,321.8701,1634.3146,325.8701" style="stroke:#181818;stroke-width:1.0;"/><line style="stroke:#181818;stroke-width:1.0;" x1="1634.3146" x2="1634.3146" y1="365.8389" y2="385.8389"/><polygon fill="#181818" points="1630.3146,375.8389,1634.3146,385.8389,1638.3146,375.8389,1634.3146,379.8389" style="stroke:#181818;stroke-width:1.0;"/><line style="stroke:#181818;stroke-width:1.0;" x1="1511.8864" x2="1176.5179" y1="451.8076" y2="451.8076"/><line style="stroke:#181818;stroke-width:1.0;" x1="1176.5179" x2="1176.5179" y1="451.8076" y2="473.8076"/><polygon fill="#181818" points="1172.5179,463.8076,1176.5179,473.8076,1180.5179,463.8076,1176.5179,467.8076" style="stroke:#181818;stroke-width:1.0;"/><line style="stroke:#181818;stroke-width:1.0;" x1="1756.7429" x2="2092.1114" y1="451.8076" y2="451.8076"/><line style="stroke:#181818;stroke-width:1.0;" x1="2092.1114" x2="2092.1114" y1="451.8076" y2="473.8076"/><polygon fill="#181818" points="2088.1114,463.8076,2092.1114,473.8076,2096.1114,463.8076,2092.1114,467.8076" style="stroke:#181818;stroke-width:1.0;"/><line style="stroke:#181818;stroke-width:1.0;" x1="1176.5179" x2="1176.5179" y1="507.7764" y2="525.7764"/><line style="stroke:#181818;stroke-width:1.0;" x1="1176.5179" x2="1622.3146" y1="525.7764" y2="525.7764"/><polygon fill="#181818" points="1612.3146,521.7764,1622.3146,525.7764,1612.3146,529.7764,1616.3146,525.7764" style="stroke:#181818;stroke-width:1.0;"/><line style="stroke:#181818;stroke-width:1.0;" x1="2092.1114" x2="2092.1114" y1="507.7764" y2="525.7764"/><line style="stroke:#181818;stroke-width:1.0;" x1="2092.1114" x2="1646.3146" y1="525.7764" y2="525.7764"/><polygon fill="#181818" points="1656.3146,521.7764,1646.3146,525.7764,1656.3146,529.7764,1652.3146,525.7764" style="stroke:#181818;stroke-width:1.0;"/><line style="stroke:#181818;stroke-width:1.0;" x1="1634.3146" x2="1634.3146" y1="419.8076" y2="439.8076"/><polygon fill="#181818" points="1630.3146,429.8076,1634.3146,439.8076,1638.3146,429.8076,1634.3146,433.8076" style="stroke:#181818;stroke-width:1.0;"/><line style="stroke:#181818;stroke-width:1.0;" x1="1634.3146" x2="1634.3146" y1="537.7764" y2="557.7764"/><polygon fill="#181818" points="1630.3146,547.7764,1634.3146,557.7764,1638.3146,547.7764,1634.3146,551.7764" style="stroke:#181818;stroke-width:1.0;"/><line style="stroke:#181818;stroke-width:1.0;" x1="1870.9381" x2="1870.9381" y1="679.7139" y2="699.7139"/><polygon fill="#181818" points="1866.9381,689.7139,1870.9381,699.7139,1874.9381,689.7139,1870.9381,693.7139" style="stroke:#181818;stroke-width:1.0;"/><line style="stroke:#181818;stroke-width:1.0;" x1="2038.07" x2="2038.07" y1="821.6514" y2="841.6514"/><polygon fill="#181818" points="2034.07,831.6514,2038.07,841.6514,2042.07,831.6514,2038.07,835.6514" style="stroke:#181818;stroke-width:1.0;"/><line style="stroke:#181818;stroke-width:1.0;" x1="1801.0427" x2="1703.8062" y1="765.6826" y2="765.6826"/><line style="stroke:#181818;stroke-width:1.0;" x1="1703.8062" x2="1703.8062" y1="765.6826" y2="787.6826"/><polygon fill="#181818" points="1699.8062,777.6826,1703.8062,787.6826,1707.8062,777.6826,1703.8062,781.6826" style="stroke:#181818;stroke-width:1.0;"/><line style="stroke:#181818;stroke-width:1.0;" x1="1940.8336" x2="2038.07" y1="765.6826" y2="765.6826"/><line style="stroke:#181818;stroke-width:1.0;" x1="2038.07" x2="2038.07" y1="765.6826" y2="787.6826"/><polygon fill="#181818" points="2034.07,777.6826,2038.07,787.6826,2042.07,777.6826,2038.07,781.6826" style="stroke:#181818;stroke-width:1.0;"/><line style="stroke:#181818;stroke-width:1.0;" x1="1703.8062" x2="1703.8062" y1="821.6514" y2="893.6201"/><line style="stroke:#181818;stroke-width:1.0;" x1="1703.8062" x2="1858.9381" y1="893.6201" y2="893.6201"/><polygon fill="#181818" points="1848.9381,889.6201,1858.9381,893.6201,1848.9381,897.6201,1852.9381,893.6201" style="stroke:#181818;stroke-width:1.0;"/><line style="stroke:#181818;stroke-width:1.0;" x1="2038.07" x2="2038.07" y1="875.6201" y2="893.6201"/><line style="stroke:#181818;stroke-width:1.0;" x1="2038.07" x2="1882.9381" y1="893.6201" y2="893.6201"/><polygon fill="#181818" points="1892.9381,889.6201,1882.9381,893.6201,1892.9381,897.6201,1888.9381,893.6201" style="stroke:#181818;stroke-width:1.0;"/><line style="stroke:#181818;stroke-width:1.0;" x1="1870.9381" x2="1870.9381" y1="733.6826" y2="753.6826"/><polygon fill="#181818" points="1866.9381,743.6826,1870.9381,753.6826,1874.9381,743.6826,1870.9381,747.6826" style="stroke:#181818;stroke-width:1.0;"/><line style="stroke:#181818;stroke-width:1.0;" x1="1569.4791" x2="1397.6911" y1="623.7451" y2="623.7451"/><line style="stroke:#181818;stroke-width:1.0;" x1="1397.6911" x2="1397.6911" y1="623.7451" y2="645.7451"/><polygon fill="#181818" points="1393.6911,635.7451,1397.6911,645.7451,1401.6911,635.7451,1397.6911,639.7451" style="stroke:#181818;stroke-width:1.0;"/><line style="stroke:#181818;stroke-width:1.0;" x1="1699.1501" x2="1870.9381" y1="623.7451" y2="623.7451"/><line style="stroke:#181818;stroke-width:1.0;" x1="1870.9381" x2="1870.9381" y1="623.7451" y2="645.7451"/><polygon fill="#181818" points="1866.9381,635.7451,1870.9381,645.7451,1874.9381,635.7451,1870.9381,639.7451" style="stroke:#181818;stroke-width:1.0;"/><line style="stroke:#181818;stroke-width:1.0;" x1="1397.6911" x2="1397.6911" y1="679.7139" y2="923.6201"/><line style="stroke:#181818;stroke-width:1.0;" x1="1397.6911" x2="1622.3146" y1="923.6201" y2="923.6201"/><polygon fill="#181818" points="1612.3146,919.6201,1622.3146,923.6201,1612.3146,927.6201,1616.3146,923.6201" style="stroke:#181818;stroke-width:1.0;"/><line style="stroke:#181818;stroke-width:1.0;" x1="1870.9381" x2="1870.9381" y1="905.6201" y2="923.6201"/><line style="stroke:#181818;stroke-width:1.0;" x1="1870.9381" x2="1646.3146" y1="923.6201" y2="923.6201"/><polygon fill="#181818" points="1656.3146,919.6201,1646.3146,923.6201,1656.3146,927.6201,1652.3146,923.6201" style="stroke:#181818;stroke-width:1.0;"/><line style="stroke:#181818;stroke-width:1.0;" x1="1634.3146" x2="1634.3146" y1="591.7451" y2="611.7451"/><polygon fill="#181818" points="1630.3146,601.7451,1634.3146,611.7451,1638.3146,601.7451,1634.3146,605.7451" style="stroke:#181818;stroke-width:1.0;"/><line style="stroke:#181818;stroke-width:1.0;" x1="1787.4921" x2="1717.0067" y1="1070.7217" y2="1070.7217"/><line style="stroke:#181818;stroke-width:1.0;" x1="1717.0067" x2="1717.0067" y1="1070.7217" y2="1092.7217"/><polygon fill="#181818" points="1713.0067,1082.7217,1717.0067,1092.7217,1721.0067,1082.7217,1717.0067,1086.7217" style="stroke:#181818;stroke-width:1.0;"/><line style="stroke:#181818;stroke-width:1.0;" x1="2018.7321" x2="2089.2175" y1="1070.7217" y2="1070.7217"/><line style="stroke:#181818;stroke-width:1.0;" x1="2089.2175" x2="2089.2175" y1="1070.7217" y2="1092.7217"/><polygon fill="#181818" points="2085.2175,1082.7217,2089.2175,1092.7217,2093.2175,1082.7217,2089.2175,1086.7217" style="stroke:#181818;stroke-width:1.0;"/><line style="stroke:#181818;stroke-width:1.0;" x1="1717.0067" x2="1717.0067" y1="1126.6904" y2="1144.6904"/><line style="stroke:#181818;stroke-width:1.0;" x1="1717.0067" x2="1891.1121" y1="1144.6904" y2="1144.6904"/><polygon fill="#181818" points="1881.1121,1140.6904,1891.1121,1144.6904,1881.1121,1148.6904,1885.1121,1144.6904" style="stroke:#181818;stroke-width:1.0;"/><line style="stroke:#181818;stroke-width:1.0;" x1="2089.2175" x2="2089.2175" y1="1126.6904" y2="1144.6904"/><line style="stroke:#181818;stroke-width:1.0;" x1="2089.2175" x2="1915.1121" y1="1144.6904" y2="1144.6904"/><polygon fill="#181818" points="1925.1121,1140.6904,1915.1121,1144.6904,1925.1121,1148.6904,1921.1121,1144.6904" style="stroke:#181818;stroke-width:1.0;"/><line style="stroke:#181818;stroke-width:1.0;" x1="1903.1121" x2="1903.1121" y1="1038.7217" y2="1058.7217"/><polygon fill="#181818" points="1899.1121,1048.7217,1903.1121,1058.7217,1907.1121,1048.7217,1903.1121,1052.7217" style="stroke:#181818;stroke-width:1.0;"/><line style="stroke:#181818;stroke-width:1.0;" x1="1535.6228" x2="1365.5171" y1="982.7529" y2="982.7529"/><line style="stroke:#181818;stroke-width:1.0;" x1="1365.5171" x2="1365.5171" y1="982.7529" y2="1004.7529"/><polygon fill="#181818" points="1361.5171,994.7529,1365.5171,1004.7529,1369.5171,994.7529,1365.5171,998.7529" style="stroke:#181818;stroke-width:1.0;"/><line style="stroke:#181818;stroke-width:1.0;" x1="1733.0064" x2="1903.1121" y1="982.7529" y2="982.7529"/><line style="stroke:#181818;stroke-width:1.0;" x1="1903.1121" x2="1903.1121" y1="982.7529" y2="1004.7529"/><polygon fill="#181818" points="1899.1121,994.7529,1903.1121,1004.7529,1907.1121,994.7529,1903.1121,998.7529" style="stroke:#181818;stroke-width:1.0;"/><line style="stroke:#181818;stroke-width:1.0;" x1="1365.5171" x2="1365.5171" y1="1038.7217" y2="1174.6904"/><line style="stroke:#181818;stroke-width:1.0;" x1="1365.5171" x2="1622.3146" y1="1174.6904" y2="1174.6904"/><polygon fill="#181818" points="1612.3146,1170.6904,1622.3146,1174.6904,1612.3146,1178.6904,1616.3146,1174.6904" style="stroke:#181818;stroke-width:1.0;"/><line style="stroke:#181818;stroke-width:1.0;" x1="1903.1121" x2="1903.1121" y1="1156.6904" y2="1174.6904"/><line style="stroke:#181818;stroke-width:1.0;" x1="1903.1121" x2="1646.3146" y1="1174.6904" y2="1174.6904"/><polygon fill="#181818" points="1656.3146,1170.6904,1646.3146,1174.6904,1656.3146,1178.6904,1652.3146,1174.6904" style="stroke:#181818;stroke-width:1.0;"/><line style="stroke:#181818;stroke-width:1.0;" x1="1634.3146" x2="1634.3146" y1="935.6201" y2="970.7529"/><polygon fill="#181818" points="1630.3146,960.7529,1634.3146,970.7529,1638.3146,960.7529,1634.3146,964.7529" style="stroke:#181818;stroke-width:1.0;"/><line style="stroke:#181818;stroke-width:1.0;" x1="1491.8838" x2="1491.8838" y1="1421.6982" y2="1441.6982"/><polygon fill="#181818" points="1487.8838,1431.6982,1491.8838,1441.6982,1495.8838,1431.6982,1491.8838,1435.6982" style="stroke:#181818;stroke-width:1.0;"/><line style="stroke:#181818;stroke-width:1.0;" x1="1527.5063" x2="1491.8838" y1="1355.7295" y2="1355.7295"/><line style="stroke:#181818;stroke-width:1.0;" x1="1491.8838" x2="1491.8838" y1="1355.7295" y2="1387.7295"/><polygon fill="#181818" points="1487.8838,1377.7295,1491.8838,1387.7295,1495.8838,1377.7295,1491.8838,1381.7295" style="stroke:#181818;stroke-width:1.0;"/><line style="stroke:#181818;stroke-width:1.0;" x1="1634.3146" x2="1634.3146" y1="1308.5967" y2="1343.7295"/><polygon fill="#181818" points="1630.3146,1333.7295,1634.3146,1343.7295,1638.3146,1333.7295,1634.3146,1337.7295" style="stroke:#181818;stroke-width:1.0;"/><line style="stroke:#181818;stroke-width:1.0;" x1="238.6591" x2="238.6591" y1="203.9326" y2="208.9326"/><line style="stroke:#181818;stroke-width:1.0;" x1="238.6591" x2="1634.3146" y1="208.9326" y2="208.9326"/><line style="stroke:#181818;stroke-width:1.0;" x1="1634.3146" x2="1634.3146" y1="208.9326" y2="223.9326"/><polygon fill="#181818" points="1630.3146,213.9326,1634.3146,223.9326,1638.3146,213.9326,1634.3146,217.9326" style="stroke:#181818;stroke-width:1.0;"/><line style="stroke:#181818;stroke-width:1.0;" x1="1634.3146" x2="1634.3146" y1="1186.6904" y2="1191.6904"/><line style="stroke:#181818;stroke-width:1.0;" x1="1634.3146" x2="238.6591" y1="1191.6904" y2="1191.6904"/><line style="stroke:#181818;stroke-width:1.0;" x1="238.6591" x2="238.6591" y1="1191.6904" y2="1206.6904"/><polygon fill="#181818" points="234.6591,1196.6904,238.6591,1206.6904,242.6591,1196.6904,238.6591,1200.6904" style="stroke:#181818;stroke-width:1.0;"/><line style="stroke:#181818;stroke-width:1.0;" x1="238.6591" x2="238.6591" y1="1240.6592" y2="1245.6592"/><line style="stroke:#181818;stroke-width:1.0;" x1="238.6591" x2="1634.3146" y1="1245.6592" y2="1245.6592"/><line style="stroke:#181818;stroke-width:1.0;" x1="1634.3146" x2="1634.3146" y1="1245.6592" y2="1260.6592"/><polygon fill="#181818" points="1630.3146,1250.6592,1634.3146,1260.6592,1638.3146,1250.6592,1634.3146,1254.6592" style="stroke:#181818;stroke-width:1.0;"/><line style="stroke:#181818;stroke-width:1.0;" x1="1491.8838" x2="1491.8838" y1="1475.667" y2="1480.667"/><line style="stroke:#181818;stroke-width:1.0;" x1="1491.8838" x2="96.2282" y1="1480.667" y2="1480.667"/><line style="stroke:#181818;stroke-width:1.0;" x1="96.2282" x2="96.2282" y1="1480.667" y2="1495.667"/><polygon fill="#181818" points="92.2282,1485.667,96.2282,1495.667,100.2282,1485.667,96.2282,1489.667" style="stroke:#181818;stroke-width:1.0;"/><line style="stroke:#181818;stroke-width:1.0;" x1="381.0899" x2="381.0899" y1="1421.6982" y2="1426.6982"/><line style="stroke:#181818;stroke-width:1.0;" x1="381.0899" x2="2482.6786" y1="1426.6982" y2="1426.6982"/><line style="stroke:#181818;stroke-width:1.0;" x1="2482.6786" x2="2482.6786" y1="1426.6982" y2="1441.6982"/><polygon fill="#181818" points="2478.6786,1431.6982,2482.6786,1441.6982,2486.6786,1431.6982,2482.6786,1435.6982" style="stroke:#181818;stroke-width:1.0;"/><line style="stroke:#181818;stroke-width:1.0;" x1="1741.1229" x2="1753.1229" y1="1355.7295" y2="1355.7295"/><line style="stroke:#181818;stroke-width:1.0;" x1="1753.1229" x2="1753.1229" y1="1355.7295" y2="1373.7295"/><line style="stroke:#181818;stroke-width:1.0;" x1="1753.1229" x2="381.0899" y1="1373.7295" y2="1373.7295"/><line style="stroke:#181818;stroke-width:1.0;" x1="381.0899" x2="381.0899" y1="1373.7295" y2="1387.7295"/><polygon fill="#181818" points="377.0899,1377.7295,381.0899,1387.7295,385.0899,1377.7295,381.0899,1381.7295" style="stroke:#181818;stroke-width:1.0;"/><line style="stroke:#181818;stroke-width:1.0;" x1="96.2282" x2="96.2282" y1="1529.6357" y2="1551.6357"/><line style="stroke:#181818;stroke-width:1.0;" x1="96.2282" x2="1622.3146" y1="1551.6357" y2="1551.6357"/><polygon fill="#181818" points="1612.3146,1547.6357,1622.3146,1551.6357,1612.3146,1555.6357,1616.3146,1551.6357" style="stroke:#181818;stroke-width:1.0;"/><line style="stroke:#181818;stroke-width:1.0;" x1="2482.6786" x2="2482.6786" y1="1475.667" y2="1551.6357"/><line style="stroke:#181818;stroke-width:1.0;" x1="2482.6786" x2="1646.3146" y1="1551.6357" y2="1551.6357"/><polygon fill="#181818" points="1656.3146,1547.6357,1646.3146,1551.6357,1656.3146,1555.6357,1652.3146,1551.6357" style="stroke:#181818;stroke-width:1.0;"/><line style="stroke:#181818;stroke-width:1.0;" x1="1634.3146" x2="1634.3146" y1="1563.6357" y2="1568.6357"/><line style="stroke:#181818;stroke-width:1.0;" x1="1634.3146" x2="2370.3819" y1="1568.6357" y2="1568.6357"/><line style="stroke:#181818;stroke-width:1.0;" x1="2370.3819" x2="2370.3819" y1="1568.6357" y2="1583.6357"/><polygon fill="#181818" points="2366.3819,1573.6357,2370.3819,1583.6357,2374.3819,1573.6357,2370.3819,1577.6357" style="stroke:#181818;stroke-width:1.0;"/><text fill="#000000" font-family="sans-serif" font-size="18" lengthAdjust="spacing" textLength="175.5264" x="453.8274" y="66.75">Adventure Runtime</text><text fill="#000000" font-family="sans-serif" font-size="18" lengthAdjust="spacing" textLength="219.7002" x="1601.4314" y="66.75">GM Context Compaction</text><text fill="#000000" font-family="sans-serif" font-size="18" lengthAdjust="spacing" textLength="100.1865" x="2566.0928" y="66.75">Solo Player</text><!--SRC=[fLPDRzj64BtpL-mn1fp2Jfl4LGv5waDxAH0axGym6gOHu4Y1J1Sju0DjRmlLKb094MtQ8GKQbI8ha57QecAvK2_vAJroT_z3PtRvgGytG2-YHEtElddlpSmQHMDJ9z-jtrwvGyInnJsBDHporJVas-rAYOWtb72xmzeslcLrKnotM7T2k6NnzvQm75Rha7_C5hmu5JMVNLFur7OUFlrHBndR5PqytYuPnHVwZhPbR5GChH073Y_zS3Z1KEfG5Ug1LfZ1m5sRY5QTULNk1lmm8Dnjijg8ku3CewmsYBUMoePEAiKVdXiQWKK1ObU88xZmZl1QHzJFX1MmtsacNq43F2SERUP2Vq9kFGH-rfOqlVIKu36QjWFeriibG__9WEUBbnlV6yLoQKShi5wLzqpM-mr2M7n_b_2J5hV-XcGJC6yQR316_E7OvnsJEnDswX2-Ds47hGKai660JCz8qQj7kU4BE2sEbHAQPsNay9f7UFiNvdK_NF5sb_K3UCgq4IBlKN48q3jDxev9E0hOsmdyJpsnxqfQ97OINetXF3m9WF7J8E7foyUtL-uj4tpSNoR8scSPrWhCT_ZXU9ceWubm6-mjNKQnW6y2-CLnNqfd1VoeGOH5WJq87jc57vk4_Jc6V-4tGH8zHxfHKfnOwEj7c5e3iCBJeVpQXgT7HNKWZzW7rAyla2Cs71DUjM41C1z5YHWC_GjWIbWsY0aK7yJIpANpBqZZN50VtEM8Wp72ND-kLA04o9EYiRs1rf3caqV2jvIiDKNMvugikncoYi_8hSZ5gVs156xlYiEkjFyVw9Z8nQ04EYBq0Mwx2k_XsnTBn7Ykbo2ENLq2l0LXKzuUn4I7WScyCnG3Z8XcPAUkj6MKkwAJa5pEaFNU8Bm0ry3sS4W_NB5tVT5q9DN2RaOuq9dCjn5iv0tsxamSsMn8CoTnnmD-WMNMzsTeJEY2CXwEGEffDHI5gokImjLLHU4zJ3GXKT_SqY5z2ugv2lfA4cRoZL6eV65lyPbMYCegCXxs1iSJ9sUSNk0MvDmTnrkaLDdrKWMv7fRC4uBlLsE_ONgr3dVhMEluxlASlJSb3Ni3Vj8NbeTj63i0rbjJ-N1UOZUqdhJdP0lsWToLRv50Hti00a1_J1V91EFN7vcZP3hUyhzo1Jrdi_tOVC6Y_DTNCsbFQO2kehm78RnTYIDsMZZqOiWAB_H64yOSL2AdZlohvapPGVeFFAG-fJjObKBavBW0O7bOjE5em8_EiQpPwmuCD-1nGUakPX3mHath9dEaeoEDXFfa1dbMQULcq0AmIG4zoY-3f6Y256zQaWjCaDzf9bBOo6sk8w5ogYb9d5E8PKjHkOiMPQS3-CHkcwIlnbH6XRckIJAEmaQfuHovCNh6ZHbry_CW2XsRH_fgv8HNyUoNOoObVRgTfHpnlVF53U-EwdJtS_UHELUkmenJv5KgJKxEJcddcBI5rvfSXH5cDp2Lc-uwKcGfdYf5IQA64xrggyuUu9pCtKXole83CFdPJljVCR120cblNBLu5YPth6mZ2707WktZHJEOtwJItfdj36gK89K0u8oxanckyrTTGkQ9baRDo4QZYraoe-OLEA1Djs170SjP0SdqRIIrAvqFfTMrfULzMnpRYsUzMfZSCYHTwhOsTMKEY8B3tCbCXqfx9jOmNhvhrzahu-gdoj5hkTaD_3mfRvR9eysDd_NApbo-e_uRpoilqJoTvBcCs5u0Mk9G42Ulf4-lQJWSXRuZnSNmPYGptY2F6k5bdQW52uhnheI-kf8fnYsZ_F9V]--></g></svg>