<svg xmlns="http://www.w3.org/2000/svg" xmlns:xlink="http://www.w3.org/1999/xlink" contentStyleType="text/css" height="510px" preserveAspectRatio="none" style="width:2218px;height:510px;background:#FFFFFF;" version="1.1" viewBox="0 0 2218 510" width="2218px" zoomAndPan="magnify"><title>&#44277;&#44036; &#50836;&#49548;&#51032; &#51333;&#47448;&#48324; &#50629;&#47924; &#49345;&#53468;</title><defs/><g><text fill="#000000" font-family="sans-serif" font-size="14" font-weight="bold" lengthAdjust="spacing" textLength="174.0554" x="1012.1358" y="22.9951">&#44277;&#44036; &#50836;&#49548;&#51032; &#51333;&#47448;&#48324; &#50629;&#47924; &#49345;&#53468;</text><path d="M19.5,183.7969 L191.6294,183.7969 A12.5,12.5 0 0 1 204.1294,196.2969 L204.1294,210.0938 L7,210.0938 L7,196.2969 A12.5,12.5 0 0 1 19.5,183.7969 " fill="#F1F1F1" style="stroke:#F1F1F1;stroke-width:1.0;"/><rect fill="none" height="181.2969" rx="12.5" ry="12.5" style="stroke:#181818;stroke-width:0.5;" width="197.1294" x="7" y="183.7969"/><line style="stroke:#181818;stroke-width:0.5;" x1="7" x2="204.1294" y1="210.0938" y2="210.0938"/><text fill="#000000" font-family="sans-serif" font-size="14" lengthAdjust="spacing" textLength="86.1801" x="62.4747" y="201.792">&#44277;&#53685; &#44277;&#44060; &#49345;&#53468;</text><rect fill="#F1F1F1" height="40" rx="12.5" ry="12.5" style="stroke:#181818;stroke-width:0.5;" width="50" x="19" y="222.0938"/><text fill="#000000" font-family="sans-serif" font-size="14" lengthAdjust="spacing" textLength="25.7599" x="31.1201" y="246.9404">&#49704;&#44608;</text><rect fill="#F1F1F1" height="40" rx="12.5" ry="12.5" style="stroke:#181818;stroke-width:0.5;" width="50" x="19" y="315.0938"/><text fill="#000000" font-family="sans-serif" font-size="14" lengthAdjust="spacing" textLength="38.6398" x="24.6801" y="339.9404">&#44277;&#44060;&#46120;</text><!--link CommonHidden to CommonRevealed--><g id="link_CommonHidden_CommonRevealed"><path d="M44,262.3938 C44,277.8338 44,293.3837 44,308.8238 " fill="none" id="CommonHidden-to-CommonRevealed" style="stroke:#181818;stroke-width:1.0;"/><polygon fill="#181818" points="44,314.8238,48,305.8238,44,309.8238,40,305.8238,44,314.8238" style="stroke:#181818;stroke-width:1.0;"/><text fill="#000000" font-family="sans-serif" font-size="13" lengthAdjust="spacing" textLength="149.1294" x="45" y="293.1606">&#48156;&#44204; &#46608;&#45716; &#44288;&#52272; &#44032;&#45733;&#54620; &#44277;&#44060;</text></g><path d="M1114.9,44.2969 L1452.227,44.2969 A12.5,12.5 0 0 1 1464.727,56.7969 L1464.727,70.5938 L1102.4,70.5938 L1102.4,56.7969 A12.5,12.5 0 0 1 1114.9,44.2969 " fill="#F1F1F1" style="stroke:#F1F1F1;stroke-width:1.0;"/><rect fill="none" height="460.2969" rx="12.5" ry="12.5" style="stroke:#181818;stroke-width:0.5;" width="362.327" x="1102.4" y="44.2969"/><line style="stroke:#181818;stroke-width:0.5;" x1="1102.4" x2="1464.727" y1="70.5938" y2="70.5938"/><text fill="#000000" font-family="sans-serif" font-size="14" lengthAdjust="spacing" textLength="25.7599" x="1270.6836" y="62.292">&#54632;&#51221;</text><rect fill="#F1F1F1" height="40" rx="12.5" ry="12.5" style="stroke:#181818;stroke-width:0.5;" width="50" x="1202.4" y="82.5938"/><text fill="#000000" font-family="sans-serif" font-size="14" lengthAdjust="spacing" textLength="25.7599" x="1214.5201" y="107.4404">&#49704;&#44608;</text><rect fill="#F1F1F1" height="40" rx="12.5" ry="12.5" style="stroke:#181818;stroke-width:0.5;" width="50" x="1131.4" y="175.5938"/><text fill="#000000" font-family="sans-serif" font-size="14" lengthAdjust="spacing" textLength="38.6398" x="1137.0801" y="200.4404">&#48156;&#44204;&#46120;</text><rect fill="#F1F1F1" height="40" rx="12.5" ry="12.5" style="stroke:#181818;stroke-width:0.5;" width="50" x="1114.4" y="454.5938"/><text fill="#000000" font-family="sans-serif" font-size="14" lengthAdjust="spacing" textLength="38.6398" x="1120.0801" y="479.4404">&#54644;&#51228;&#46120;</text><rect fill="#F1F1F1" height="40" rx="12.5" ry="12.5" style="stroke:#181818;stroke-width:0.5;" width="50" x="1227.4" y="268.5938"/><text fill="#000000" font-family="sans-serif" font-size="14" lengthAdjust="spacing" textLength="38.6398" x="1233.0801" y="293.4404">&#48156;&#46041;&#46120;</text><rect fill="#F1F1F1" height="40" rx="12.5" ry="12.5" style="stroke:#181818;stroke-width:0.5;" width="127.5102" x="1151.64" y="361.5938"/><text fill="#000000" font-family="sans-serif" font-size="14" lengthAdjust="spacing" textLength="117.5102" x="1156.64" y="386.4404">&#48152;&#48373; &#48156;&#46041; &#44032;&#45733; &#49345;&#53468;</text><!--link TrapHidden to TrapFound--><g id="link_TrapHidden_TrapFound"><path d="M1212.34,122.8938 C1200.29,138.3338 1187.1696,155.1523 1175.1296,170.5923 " fill="none" id="TrapHidden-to-TrapFound" style="stroke:#181818;stroke-width:1.0;"/><polygon fill="#181818" points="1171.44,175.3238,1180.1287,170.6862,1174.5147,171.3808,1173.82,165.7668,1171.44,175.3238" style="stroke:#181818;stroke-width:1.0;"/><text fill="#000000" font-family="sans-serif" font-size="13" lengthAdjust="spacing" textLength="23.92" x="1199.26" y="153.6606">&#48156;&#44204;</text></g><!--link TrapFound to TrapDisarmed--><g id="link_TrapFound_TrapDisarmed"><path d="M1150.9,216.0438 C1149.52,221.6638 1148.21,227.8338 1147.4,233.5938 C1136.03,314.9338 1137.2371,407.2065 1138.4871,448.1865 " fill="none" id="TrapFound-to-TrapDisarmed" style="stroke:#181818;stroke-width:1.0;"/><polygon fill="#181818" points="1138.67,454.1838,1142.3937,445.066,1138.5176,449.1861,1134.3975,445.3099,1138.67,454.1838" style="stroke:#181818;stroke-width:1.0;"/><text fill="#000000" font-family="sans-serif" font-size="13" lengthAdjust="spacing" textLength="51.9724" x="1140.37" y="339.6606">&#54644;&#51228; &#49457;&#44277;</text></g><!--link TrapHidden to TrapTriggered--><g id="link_TrapHidden_TrapTriggered"><path d="M1238.77,123.0238 C1252.52,147.7437 1274.86,192.1938 1283.4,233.5938 C1284.93,240.9938 1285.98,243.4938 1283.4,250.5938 C1281.11,256.8938 1281.0049,258.2182 1276.7449,263.4582 " fill="none" id="TrapHidden-to-TrapTriggered" style="stroke:#181818;stroke-width:1.0;"/><polygon fill="#181818" points="1272.96,268.1138,1281.7411,263.6536,1276.1141,264.2341,1275.5336,258.6071,1272.96,268.1138" style="stroke:#181818;stroke-width:1.0;"/><text fill="#000000" font-family="sans-serif" font-size="13" lengthAdjust="spacing" textLength="124.1694" x="1279.74" y="200.1606">&#51652;&#51077; &#46321; &#48156;&#46041; &#51312;&#44148; &#52649;&#51313;</text></g><!--link TrapFound to TrapTriggered--><g id="link_TrapFound_TrapTriggered"><path d="M1151.79,215.9538 C1150.28,227.0338 1150.48,240.6738 1157.4,250.5938 C1173.09,273.0938 1198.6798,281.0012 1221.0998,284.4512 " fill="none" id="TrapFound-to-TrapTriggered" style="stroke:#181818;stroke-width:1.0;"/><polygon fill="#181818" points="1227.03,285.3638,1218.7431,280.0415,1222.0882,284.6033,1217.5263,287.9484,1227.03,285.3638" style="stroke:#181818;stroke-width:1.0;"/><text fill="#000000" font-family="sans-serif" font-size="13" lengthAdjust="spacing" textLength="124.1694" x="1158.4" y="246.6606">&#51652;&#51077; &#46321; &#48156;&#46041; &#51312;&#44148; &#52649;&#51313;</text></g><!--link TrapTriggered to TrapRepeat--><g id="link_TrapTriggered_TrapRepeat"><path d="M1227.06,304.7038 C1219.64,310.5338 1212.44,317.9038 1208.4,326.5938 C1203.37,337.3938 1203.3962,344.8593 1206.3362,355.5293 " fill="none" id="TrapTriggered-to-TrapRepeat" style="stroke:#181818;stroke-width:1.0;"/><polygon fill="#181818" points="1207.93,361.3138,1209.3955,351.5745,1206.6018,356.4934,1201.683,353.6997,1207.93,361.3138" style="stroke:#181818;stroke-width:1.0;"/><text fill="#000000" font-family="sans-serif" font-size="13" lengthAdjust="spacing" textLength="131.997" x="1209.4" y="339.6606">&#47344;&#48513;&#51060; &#48152;&#48373; &#48156;&#46041;&#51012; &#54728;&#50857;</text></g><!--link TrapRepeat to TrapTriggered--><g id="link_TrapRepeat_TrapTriggered"><path d="M1279.57,377.2938 C1302.83,372.6138 1326.92,362.9438 1341.4,343.5938 C1360.62,317.9138 1316.2504,303.2153 1283.6504,295.7953 " fill="none" id="TrapRepeat-to-TrapTriggered" style="stroke:#181818;stroke-width:1.0;"/><polygon fill="#181818" points="1277.8,294.4638,1285.6878,300.3614,1282.6753,295.5734,1287.4633,292.5609,1277.8,294.4638" style="stroke:#181818;stroke-width:1.0;"/><text fill="#000000" font-family="sans-serif" font-size="13" lengthAdjust="spacing" textLength="108.077" x="1346.65" y="339.6606">&#48156;&#46041; &#51312;&#44148; &#45796;&#49884; &#52649;&#51313;</text></g><!--link TrapRepeat to TrapDisarmed--><g id="link_TrapRepeat_TrapDisarmed"><path d="M1199.28,401.8938 C1186.38,417.3338 1172.237,434.2793 1159.337,449.7193 " fill="none" id="TrapRepeat-to-TrapDisarmed" style="stroke:#181818;stroke-width:1.0;"/><polygon fill="#181818" points="1155.49,454.3238,1164.3301,449.9817,1158.6958,450.4867,1158.1908,444.8525,1155.49,454.3238" style="stroke:#181818;stroke-width:1.0;"/><text fill="#000000" font-family="sans-serif" font-size="13" lengthAdjust="spacing" textLength="51.9724" x="1185.21" y="432.6606">&#54644;&#51228; &#49457;&#44277;</text></g><path d="M1512.02,134.7069 L1649.1124,134.7069 A12.5,12.5 0 0 1 1661.6124,147.2069 L1661.6124,161.0038 L1499.52,161.0038 L1499.52,147.2069 A12.5,12.5 0 0 1 1512.02,134.7069 " fill="#F1F1F1" style="stroke:#F1F1F1;stroke-width:1.0;"/><rect fill="none" height="279.4906" rx="12.5" ry="12.5" style="stroke:#181818;stroke-width:0.5;" width="162.0924" x="1499.52" y="134.7069"/><line style="stroke:#181818;stroke-width:0.5;" x1="1499.52" x2="1661.6124" y1="161.0038" y2="161.0038"/><text fill="#000000" font-family="sans-serif" font-size="14" lengthAdjust="spacing" textLength="38.6398" x="1561.2463" y="152.702">&#48708;&#48128;&#47928;</text><rect fill="#F1F1F1" height="40" rx="12.5" ry="12.5" style="stroke:#181818;stroke-width:0.5;" width="50" x="1549.72" y="173.0038"/><text fill="#000000" font-family="sans-serif" font-size="14" lengthAdjust="spacing" textLength="25.7599" x="1561.8401" y="197.8504">&#49704;&#44608;</text><rect fill="#F1F1F1" height="42.5938" rx="12.5" ry="12.5" style="stroke:#181818;stroke-width:0.5;" width="126.3901" x="1511.52" y="266.0038"/><text fill="#000000" font-family="sans-serif" font-size="14" lengthAdjust="spacing" textLength="38.6398" x="1555.3952" y="283.9989">&#48156;&#44204;&#46120;</text><text fill="#000000" font-family="sans-serif" font-size="14" lengthAdjust="spacing" textLength="116.3901" x="1516.52" y="300.2957">&#53685;&#54665;&#183;&#49884;&#50556; &#48320;&#54868; &#50630;&#51020;</text><rect fill="#F1F1F1" height="42.5938" rx="12.5" ry="12.5" style="stroke:#181818;stroke-width:0.5;" width="96.1801" x="1526.63" y="361.6038"/><text fill="#000000" font-family="sans-serif" font-size="14" lengthAdjust="spacing" textLength="25.7599" x="1561.8401" y="379.5989">&#50676;&#47548;</text><text fill="#000000" font-family="sans-serif" font-size="14" lengthAdjust="spacing" textLength="86.1801" x="1531.63" y="395.8957">&#53685;&#54665;&#183;&#49884;&#50556; &#48320;&#54868;</text><!--link DoorHidden to DoorFound--><g id="link_DoorHidden_DoorFound"><path d="M1574.72,213.1338 C1574.72,228.4438 1574.72,243.8838 1574.72,259.6038 " fill="none" id="DoorHidden-to-DoorFound" style="stroke:#181818;stroke-width:1.0;"/><polygon fill="#181818" points="1574.72,265.6038,1578.72,256.6038,1574.72,260.6038,1570.72,256.6038,1574.72,265.6038" style="stroke:#181818;stroke-width:1.0;"/><text fill="#000000" font-family="sans-serif" font-size="13" lengthAdjust="spacing" textLength="23.92" x="1575.72" y="244.0706">&#48156;&#44204;</text></g><!--link DoorFound to DoorOpen--><g id="link_DoorFound_DoorOpen"><path d="M1574.72,309.0738 C1574.72,324.5838 1574.72,339.6838 1574.72,355.1838 " fill="none" id="DoorFound-to-DoorOpen" style="stroke:#181818;stroke-width:1.0;"/><polygon fill="#181818" points="1574.72,361.1838,1578.72,352.1838,1574.72,356.1838,1570.72,352.1838,1574.72,361.1838" style="stroke:#181818;stroke-width:1.0;"/><text fill="#000000" font-family="sans-serif" font-size="13" lengthAdjust="spacing" textLength="75.8924" x="1575.72" y="339.6706">&#48324;&#46020; &#49345;&#54840;&#51089;&#50857;</text></g><path d="M1708.82,137.2969 L1958.307,137.2969 A12.5,12.5 0 0 1 1970.807,149.7969 L1970.807,163.5938 L1696.32,163.5938 L1696.32,149.7969 A12.5,12.5 0 0 1 1708.82,137.2969 " fill="#F1F1F1" style="stroke:#F1F1F1;stroke-width:1.0;"/><rect fill="none" height="274.2969" rx="12.5" ry="12.5" style="stroke:#181818;stroke-width:0.5;" width="274.487" x="1696.32" y="137.2969"/><line style="stroke:#181818;stroke-width:0.5;" x1="1696.32" x2="1970.807" y1="163.5938" y2="163.5938"/><text fill="#000000" font-family="sans-serif" font-size="14" lengthAdjust="spacing" textLength="55.97" x="1805.5785" y="155.292">&#50948;&#54744; &#51648;&#50669;</text><rect fill="#F1F1F1" height="40" rx="12.5" ry="12.5" style="stroke:#181818;stroke-width:0.5;" width="109.06" x="1708.32" y="175.5938"/><text fill="#000000" font-family="sans-serif" font-size="14" lengthAdjust="spacing" textLength="99.06" x="1713.32" y="200.4404">&#49704;&#44608; &#46608;&#45716; &#44277;&#44060;&#46120;</text><rect fill="#F1F1F1" height="40" rx="12.5" ry="12.5" style="stroke:#181818;stroke-width:0.5;" width="50" x="1737.85" y="268.5938"/><text fill="#000000" font-family="sans-serif" font-size="14" lengthAdjust="spacing" textLength="25.7599" x="1749.9701" y="293.4404">&#54876;&#49457;</text><rect fill="#F1F1F1" height="40" rx="12.5" ry="12.5" style="stroke:#181818;stroke-width:0.5;" width="50" x="1737.85" y="361.5938"/><text fill="#000000" font-family="sans-serif" font-size="14" lengthAdjust="spacing" textLength="38.6398" x="1743.5301" y="386.4404">&#54644;&#44208;&#46120;</text><!--link HazardVisibility to HazardActive--><g id="link_HazardVisibility_HazardActive"><path d="M1762.85,215.8938 C1762.85,231.3338 1762.85,246.8838 1762.85,262.3238 " fill="none" id="HazardVisibility-to-HazardActive" style="stroke:#181818;stroke-width:1.0;"/><polygon fill="#181818" points="1762.85,268.3238,1766.85,259.3238,1762.85,263.3238,1758.85,259.3238,1762.85,268.3238" style="stroke:#181818;stroke-width:1.0;"/><text fill="#000000" font-family="sans-serif" font-size="13" lengthAdjust="spacing" textLength="91.9847" x="1763.85" y="246.6606">&#44396;&#49457;&#46108; &#51312;&#44148; &#52649;&#51313;</text></g><!--link HazardActive to HazardActive--><g id="link_HazardActive_HazardActive"><path d="M1788.03,279.9138 C1797.76,279.5238 1805.85,282.4138 1805.85,288.5938 C1805.85,294.7738 1803.7552,297.9041 1794.0252,297.5141 " fill="none" id="HazardActive-to-HazardActive" style="stroke:#181818;stroke-width:1.0;"/><polygon fill="#181818" points="1788.03,297.2738,1796.8626,301.631,1793.026,297.474,1797.183,293.6374,1788.03,297.2738" style="stroke:#181818;stroke-width:1.0;"/><text fill="#000000" font-family="sans-serif" font-size="13" lengthAdjust="spacing" textLength="143.957" x="1811.85" y="293.1606">&#49884;&#45208;&#47532;&#50724;&#183;&#47344;&#48513;&#50640; &#46384;&#46972; &#51648;&#49549;</text></g><!--link HazardActive to HazardResolved--><g id="link_HazardActive_HazardResolved"><path d="M1762.85,308.8938 C1762.85,324.3338 1762.85,339.8837 1762.85,355.3238 " fill="none" id="HazardActive-to-HazardResolved" style="stroke:#181818;stroke-width:1.0;"/><polygon fill="#181818" points="1762.85,361.3238,1766.85,352.3238,1762.85,356.3238,1758.85,352.3238,1762.85,361.3238" style="stroke:#181818;stroke-width:1.0;"/><text fill="#000000" font-family="sans-serif" font-size="13" lengthAdjust="spacing" textLength="23.92" x="1763.85" y="339.6606">&#54644;&#44208;</text></g><path d="M2018.3,137.2969 L2192.827,137.2969 A12.5,12.5 0 0 1 2205.327,149.7969 L2205.327,163.5938 L2005.8,163.5938 L2005.8,149.7969 A12.5,12.5 0 0 1 2018.3,137.2969 " fill="#F1F1F1" style="stroke:#F1F1F1;stroke-width:1.0;"/><rect fill="none" height="274.2969" rx="12.5" ry="12.5" style="stroke:#181818;stroke-width:0.5;" width="199.527" x="2005.8" y="137.2969"/><line style="stroke:#181818;stroke-width:0.5;" x1="2005.8" x2="2205.327" y1="163.5938" y2="163.5938"/><text fill="#000000" font-family="sans-serif" font-size="14" lengthAdjust="spacing" textLength="81.7299" x="2064.6986" y="155.292">&#49345;&#54840;&#51089;&#50857; &#45824;&#49345;</text><rect fill="#F1F1F1" height="40" rx="12.5" ry="12.5" style="stroke:#181818;stroke-width:0.5;" width="109.06" x="2030.68" y="175.5938"/><text fill="#000000" font-family="sans-serif" font-size="14" lengthAdjust="spacing" textLength="99.06" x="2035.68" y="200.4404">&#49704;&#44608; &#46608;&#45716; &#44277;&#44060;&#46120;</text><rect fill="#F1F1F1" height="40" rx="12.5" ry="12.5" style="stroke:#181818;stroke-width:0.5;" width="92.8499" x="2038.78" y="268.5938"/><text fill="#000000" font-family="sans-serif" font-size="14" lengthAdjust="spacing" textLength="82.8499" x="2043.78" y="293.4404">&#49345;&#54840;&#51089;&#50857; &#44032;&#45733;</text><rect fill="#F1F1F1" height="40" rx="12.5" ry="12.5" style="stroke:#181818;stroke-width:0.5;" width="134.8199" x="2017.8" y="361.5938"/><text fill="#000000" font-family="sans-serif" font-size="14" lengthAdjust="spacing" textLength="124.8199" x="2022.8" y="386.4404">&#49345;&#54840;&#51089;&#50857; &#44208;&#44284; &#48152;&#50689;&#46120;</text><!--link ObjectVisibility to ObjectAvailable--><g id="link_ObjectVisibility_ObjectAvailable"><path d="M2085.21,215.8938 C2085.21,231.3338 2085.21,246.8838 2085.21,262.3238 " fill="none" id="ObjectVisibility-to-ObjectAvailable" style="stroke:#181818;stroke-width:1.0;"/><polygon fill="#181818" points="2085.21,268.3238,2089.21,259.3238,2085.21,263.3238,2081.21,259.3238,2085.21,268.3238" style="stroke:#181818;stroke-width:1.0;"/><text fill="#000000" font-family="sans-serif" font-size="13" lengthAdjust="spacing" textLength="109.117" x="2086.21" y="246.6606">&#44277;&#44060; &#46608;&#45716; &#51217;&#44540; &#44032;&#45733;</text></g><!--link ObjectAvailable to ObjectReflected--><g id="link_ObjectAvailable_ObjectReflected"><path d="M2085.21,308.8938 C2085.21,324.3338 2085.21,339.8837 2085.21,355.3238 " fill="none" id="ObjectAvailable-to-ObjectReflected" style="stroke:#181818;stroke-width:1.0;"/><polygon fill="#181818" points="2085.21,361.3238,2089.21,352.3238,2085.21,356.3238,2081.21,352.3238,2085.21,361.3238" style="stroke:#181818;stroke-width:1.0;"/><text fill="#000000" font-family="sans-serif" font-size="13" lengthAdjust="spacing" textLength="103.9447" x="2086.21" y="339.6606">&#49345;&#54840;&#51089;&#50857; &#44208;&#44284; &#54869;&#51221;</text></g><path d="M531.71,137.2969 L801.4217,137.2969 A12.5,12.5 0 0 1 813.9217,149.7969 L813.9217,163.5938 L519.21,163.5938 L519.21,149.7969 A12.5,12.5 0 0 1 531.71,137.2969 " fill="#F1F1F1" style="stroke:#F1F1F1;stroke-width:1.0;"/><rect fill="none" height="274.2969" rx="12.5" ry="12.5" style="stroke:#181818;stroke-width:0.5;" width="294.7117" x="519.21" y="137.2969"/><line style="stroke:#181818;stroke-width:0.5;" x1="519.21" x2="813.9217" y1="163.5938" y2="163.5938"/><text fill="#000000" font-family="sans-serif" font-size="14" lengthAdjust="spacing" textLength="86.1801" x="623.4758" y="155.292">&#47560;&#48277; &#48276;&#50948; &#54952;&#44284;</text><rect fill="#F1F1F1" height="40" rx="12.5" ry="12.5" style="stroke:#181818;stroke-width:0.5;" width="78.8499" x="546.32" y="175.5938"/><text fill="#000000" font-family="sans-serif" font-size="14" lengthAdjust="spacing" textLength="68.8499" x="551.32" y="200.4404">&#49373;&#49457;&#46120;&#183;&#54876;&#49457;</text><rect fill="#F1F1F1" height="40" rx="12.5" ry="12.5" style="stroke:#181818;stroke-width:0.5;" width="50" x="560.74" y="268.5938"/><text fill="#000000" font-family="sans-serif" font-size="14" lengthAdjust="spacing" textLength="25.7599" x="572.8601" y="293.4404">&#51648;&#49549;</text><rect fill="#F1F1F1" height="40" rx="12.5" ry="12.5" style="stroke:#181818;stroke-width:0.5;" width="109.06" x="531.21" y="361.5938"/><text fill="#000000" font-family="sans-serif" font-size="14" lengthAdjust="spacing" textLength="99.06" x="536.21" y="386.4404">&#47564;&#47308; &#46608;&#45716; &#51228;&#44144;&#46120;</text><!--link MagicActive to MagicPersisting--><g id="link_MagicActive_MagicPersisting"><path d="M585.74,215.8938 C585.74,231.3338 585.74,246.8838 585.74,262.3238 " fill="none" id="MagicActive-to-MagicPersisting" style="stroke:#181818;stroke-width:1.0;"/><polygon fill="#181818" points="585.74,268.3238,589.74,259.3238,585.74,263.3238,581.74,259.3238,585.74,268.3238" style="stroke:#181818;stroke-width:1.0;"/><text fill="#000000" font-family="sans-serif" font-size="13" lengthAdjust="spacing" textLength="51.9724" x="586.74" y="246.6606">&#54952;&#44284; &#51648;&#49549;</text></g><!--link MagicPersisting to MagicPersisting--><g id="link_MagicPersisting_MagicPersisting"><path d="M610.92,279.9138 C620.65,279.5238 628.74,282.4138 628.74,288.5938 C628.74,294.7738 626.6452,297.9041 616.9152,297.5141 " fill="none" id="MagicPersisting-to-MagicPersisting" style="stroke:#181818;stroke-width:1.0;"/><polygon fill="#181818" points="610.92,297.2738,619.7526,301.631,615.916,297.474,620.073,293.6374,610.92,297.2738" style="stroke:#181818;stroke-width:1.0;"/><text fill="#000000" font-family="sans-serif" font-size="13" lengthAdjust="spacing" textLength="164.1817" x="634.74" y="293.1606">&#51652;&#51077;&#183;&#51060;&#53448;&#183;&#51204;&#53804; &#53556; &#49884;&#51089;&#50640; &#48152;&#51025;</text></g><!--link MagicPersisting to MagicEnded--><g id="link_MagicPersisting_MagicEnded"><path d="M585.74,308.8938 C585.74,324.3338 585.74,339.8837 585.74,355.3238 " fill="none" id="MagicPersisting-to-MagicEnded" style="stroke:#181818;stroke-width:1.0;"/><polygon fill="#181818" points="585.74,361.3238,589.74,352.3238,585.74,356.3238,581.74,352.3238,585.74,361.3238" style="stroke:#181818;stroke-width:1.0;"/><text fill="#000000" font-family="sans-serif" font-size="13" lengthAdjust="spacing" textLength="136.1294" x="586.74" y="339.6606">&#51648;&#49549; &#49884;&#44036; &#47564;&#47308; &#46608;&#45716; &#51228;&#44144;</text></g><g id="elem_GMN45"><path d="M239.07,246.7469 L239.07,270.4469 L204.56,274.4469 L239.07,278.4469 L239.07,302.1453 A0,0 0 0 0 239.07,302.1453 L484.0517,302.1453 A0,0 0 0 0 484.0517,302.1453 L484.0517,256.7469 L474.0517,246.7469 L239.07,246.7469 A0,0 0 0 0 239.07,246.7469 " fill="#FEFFDD" style="stroke:#181818;stroke-width:0.5;"/><path d="M474.0517,246.7469 L474.0517,256.7469 L484.0517,256.7469 L474.0517,246.7469 " fill="#FEFFDD" style="stroke:#181818;stroke-width:0.5;"/><text fill="#000000" font-family="sans-serif" font-size="13" lengthAdjust="spacing" textLength="160.0494" x="245.07" y="263.8138">&#44277;&#44060; &#50668;&#48512;&#45716; &#44277;&#53685; &#44288;&#51216;&#51060;&#51648;&#47564;,</text><text fill="#000000" font-family="sans-serif" font-size="13" lengthAdjust="spacing" textLength="188.1017" x="245.07" y="278.9466">&#51060;&#54980; &#50629;&#47924; &#49345;&#53468;&#45716; &#51333;&#47448;&#48324;&#47196; &#45796;&#47476;&#45796;.</text><text fill="#000000" font-family="sans-serif" font-size="13" lengthAdjust="spacing" textLength="223.9817" x="245.07" y="294.0794">&#54616;&#45208;&#51032; &#44277;&#53685; &#49373;&#47749;&#51452;&#44592;&#47484; &#44053;&#51228;&#54616;&#51648; &#50506;&#45716;&#45796;.</text></g><g id="elem_GMN48"><path d="M849.36,254.3169 L849.36,270.4469 L814.28,274.4469 L849.36,278.4469 L849.36,294.5825 A0,0 0 0 0 849.36,294.5825 L1067.7664,294.5825 A0,0 0 0 0 1067.7664,294.5825 L1067.7664,264.3169 L1057.7664,254.3169 L849.36,254.3169 A0,0 0 0 0 849.36,254.3169 " fill="#FEFFDD" style="stroke:#181818;stroke-width:0.5;"/><path d="M1057.7664,254.3169 L1057.7664,264.3169 L1067.7664,264.3169 L1057.7664,254.3169 " fill="#FEFFDD" style="stroke:#181818;stroke-width:0.5;"/><text fill="#000000" font-family="sans-serif" font-size="13" lengthAdjust="spacing" textLength="152.2217" x="855.36" y="271.3838">&#49373;&#49457; &#49884; &#51216;&#50976; &#52856;&#51008; &#44256;&#51221;&#46108;&#45796;.</text><text fill="#000000" font-family="sans-serif" font-size="13" lengthAdjust="spacing" textLength="197.4064" x="855.36" y="286.5166">&#50668;&#47084; &#47560;&#48277; &#48276;&#50948; &#54952;&#44284;&#44032; &#44217;&#52832; &#49688; &#51080;&#45796;.</text></g><!--SRC=[bLRVRzjK57xtNt6q5rvQn40WiOT9PGF60neAWwUzkF5TPvJQaMCg0K9ALxSANT1I4PEqs2MbwvgXJ79-z4UaFFNFyRt-7pZt-hVd87Z9LUplVESxvtxt-Bu3_gn91qDWHrt_OiIUZGBxpHtuVFMzzrVuxmShyCqziNnIMRqTBH-km1e-_5Wijp-IJDMi4V2d5xvdSIAsrsPk7zXVk_IiJwVuhBTBHpDWEzl1ZYD9JrM50Dcicp-0GXfLGwsRggv93LCs2Tn2dc3l8gHpefXR83VWMxMXhgir5SD-aW0YE6iD_NbJ0Exfcvkwza1L5AAbW928TeOPJ8Li4Rb654HbWs1rzMu10NU0Ueu_6G7jT-X-b_UBUHxuNfFkdmMs4mcLVfRY0W9xo0QsoFR8aEjBnF9NHQbXfbWgHtocVwyfAI2mPspWP07trOPiR18bHq9V76OnZmnrOuCOUH1kp0M4sAYORAzvM8NKYMnYJ2fLD2ZHbVGcmeGFOqYi356XR63M69jLJfXeH3WxjzZnBj3Vnh50TkBvOpJGvMjsCYxDzl_ZquYO8ooOLtNgqSjjviuWroVcMX3qMkpeTKGH1PHfo2Ucpr-ovqu-Vo5uQRjIOz6vHN6dHjTYYxucLOEOztNTME8m_cgfmnvhUCY2tt-vkK9Xp5u0dJQ3mouUrJtcjfFuWlzORqPVBPR49a4Fwo9bcbyKcT1bRPC-Z24yc2Ec5drX2Klshzdn0MzwsWdcM44F9ynva_NUYBmFv1zbGtcx4ycnpKs149qEbCm9EtImxndGMjLKjqZk2FeJBqzK8GszjYNELv5Pr9LbmjhueBN6jEEyvSiSi2GI-qsVzUch4Uk_lBcARDhh0Erwr5s8VkpzkfmdrXbw3Cl8jZJJQQ3j9luN5NwXcSIG1TF3zUz8rVolFGxHPJtEfGfdJoPYRKjMQ_9wZImBc7Z-TC5F9kjlvvDLo9CQBc8ZYkb56meP-5w4dvce0ZOuyAyMaQQ49CMd74aglYibye936py2sSDxtg8J6-YaY-Q5u6Y8A27zItb3hQuPHCurTiSL5XdUN6KS6K8BXWmtFNt_5J4QQiDKjOtCiJzlqzDsMgNZZnCBYw1FDKLqBPD155jWvCOHobEh5H7bKU58ne7XpeAT5gu3AsYD8B1ctDEyTTp5kANkmRzn2fc2ZcVdeVpAKLOTxxocO-quav-Qe3_9N1-a-6xH6z7BPkHSSUV0R_kWWngH7qbN92xtZyBzHUI8hpRqnE73dPxDyFTTAR3xU3xvvITYn7saV- -oquL_xT4pxYoqXOCmp03CtaSo4KXm0dAvHT69EQJG4I0-8wZH6G2RNpEtYPa6w3IS9eA8r_GdNbPAt8QkHdVEsHn3MpWyZrkvrFy0]--></g></svg>