<svg xmlns="http://www.w3.org/2000/svg" xmlns:xlink="http://www.w3.org/1999/xlink" contentStyleType="text/css" height="725px" preserveAspectRatio="none" style="width:1714px;height:725px;background:#FFFFFF;" version="1.1" viewBox="0 0 1714 725" width="1714px" zoomAndPan="magnify"><title>&#48708;&#46041;&#44592; &#45824;&#54868; &#50517;&#52629; &#51089;&#50629; &#49444;&#44228; &#49345;&#53468;</title><defs/><g><text fill="#888888" font-family="sans-serif" font-size="10" lengthAdjust="spacing" textLength="230.2002" x="1470.5592" y="9.2822">UC-02 &#183; UC-03 &#183; UC-04 / BR-06 &#183; BR-12 &#183; BR-13</text><text fill="#000000" font-family="sans-serif" font-size="14" font-weight="bold" lengthAdjust="spacing" textLength="191.8094" x="754.475" y="35.6357">&#48708;&#46041;&#44592; &#45824;&#54868; &#50517;&#52629; &#51089;&#50629; &#49444;&#44228; &#49345;&#53468;</text><ellipse cx="813.56" cy="65.9375" fill="#222222" rx="10" ry="10" style="stroke:#222222;stroke-width:1.0;"/><rect fill="#F1F1F1" height="40" rx="12.5" ry="12.5" style="stroke:#181818;stroke-width:0.5;" width="61.5198" x="782.8" y="136.9375"/><text fill="#000000" font-family="sans-serif" font-size="14" lengthAdjust="spacing" textLength="51.5198" x="787.8" y="161.7842">&#51089;&#50629;&#50630;&#51020;</text><rect fill="#F1F1F1" height="40" rx="12.5" ry="12.5" style="stroke:#181818;stroke-width:0.5;" width="50" x="788.56" y="254.0675"/><text fill="#000000" font-family="sans-serif" font-size="14" lengthAdjust="spacing" textLength="38.6398" x="794.2401" y="278.9142">&#46321;&#47197;&#46120;</text><rect fill="#F1F1F1" height="40" rx="12.5" ry="12.5" style="stroke:#181818;stroke-width:0.5;" width="74.3997" x="776.36" y="371.2075"/><text fill="#000000" font-family="sans-serif" font-size="14" lengthAdjust="spacing" textLength="64.3997" x="781.36" y="396.0542">&#51076;&#45824;&#49892;&#54665;&#51473;</text><rect fill="#F1F1F1" height="40" rx="12.5" ry="12.5" style="stroke:#181818;stroke-width:0.5;" width="74.3997" x="417.36" y="488.3375"/><text fill="#000000" font-family="sans-serif" font-size="14" lengthAdjust="spacing" textLength="64.3997" x="422.36" y="513.1842">&#50756;&#47308;&#44172;&#49884;&#46120;</text><rect fill="#F1F1F1" height="40" rx="12.5" ry="12.5" style="stroke:#181818;stroke-width:0.5;" width="87.2797" x="935.92" y="488.3375"/><text fill="#000000" font-family="sans-serif" font-size="14" lengthAdjust="spacing" textLength="77.2797" x="940.92" y="513.1842">&#51116;&#49884;&#46020;&#50696;&#50557;&#46120;</text><rect fill="#F1F1F1" height="40" rx="12.5" ry="12.5" style="stroke:#181818;stroke-width:0.5;" width="87.2797" x="106.92" y="488.3375"/><text fill="#000000" font-family="sans-serif" font-size="14" lengthAdjust="spacing" textLength="77.2797" x="111.92" y="513.1842">&#49688;&#46041;&#52376;&#47532;&#45824;&#44592;</text><rect fill="#F1F1F1" height="40" rx="12.5" ry="12.5" style="stroke:#181818;stroke-width:0.5;" width="100.1596" x="1478.48" y="488.3375"/><text fill="#000000" font-family="sans-serif" font-size="14" lengthAdjust="spacing" textLength="90.1596" x="1483.48" y="513.1842">&#50724;&#47000;&#46108;&#54980;&#48372;&#54224;&#44592;</text><ellipse cx="382.56" cy="617.1675" fill="none" rx="11" ry="11" style="stroke:#222222;stroke-width:1.0;"/><ellipse cx="382.56" cy="617.1675" fill="#222222" rx="6" ry="6" style="stroke:#222222;stroke-width:1.0;"/><g id="elem_GMN25"><path d="M874.01,253.9375 L874.01,270.0675 L838.86,274.0675 L874.01,278.0675 L874.01,294.2031 A0,0 0 0 0 874.01,294.2031 L1123.1241,294.2031 A0,0 0 0 0 1123.1241,294.2031 L1123.1241,263.9375 L1113.1241,253.9375 L874.01,253.9375 A0,0 0 0 0 874.01,253.9375 " fill="#FEFFDD" style="stroke:#181818;stroke-width:0.5;"/><path d="M1113.1241,253.9375 L1113.1241,263.9375 L1123.1241,263.9375 L1113.1241,253.9375 " fill="#FEFFDD" style="stroke:#181818;stroke-width:0.5;"/><text fill="#000000" font-family="sans-serif" font-size="13" lengthAdjust="spacing" textLength="200.0617" x="880.01" y="271.0044">&#53556; &#54869;&#51221;&#44284; &#50896;&#47928; &#48372;&#51316;&#51012; &#54644;&#52824;&#51648; &#50506;&#46020;&#47197;</text><text fill="#000000" font-family="sans-serif" font-size="13" lengthAdjust="spacing" textLength="228.1141" x="880.01" y="286.1372">&#44057;&#51008; &#47784;&#54744; &#47196;&#52972; &#52964;&#48139;&#50640;&#49436; &#51089;&#50629;&#51012; &#46321;&#47197;&#54620;&#45796;.</text></g><g id="elem_GMN28"><path d="M526.96,488.2075 L526.96,504.3375 L492.2,508.3375 L526.96,512.3375 L526.96,528.4731 A0,0 0 0 0 526.96,528.4731 L792.1664,528.4731 A0,0 0 0 0 792.1664,528.4731 L792.1664,498.2075 L782.1664,488.2075 L526.96,488.2075 A0,0 0 0 0 526.96,488.2075 " fill="#FEFFDD" style="stroke:#181818;stroke-width:0.5;"/><path d="M782.1664,488.2075 L782.1664,498.2075 L792.1664,498.2075 L782.1664,488.2075 " fill="#FEFFDD" style="stroke:#181818;stroke-width:0.5;"/><text fill="#000000" font-family="sans-serif" font-size="13" lengthAdjust="spacing" textLength="244.2064" x="532.96" y="505.2744">&#49352; &#50836;&#50557;&#44284; &#49849;&#51064;&#46108; &#44592;&#47197; &#48320;&#44221;&#51012; &#54632;&#44760; &#44172;&#49884;&#54620;&#45796;.</text><text fill="#000000" font-family="sans-serif" font-size="13" lengthAdjust="spacing" textLength="237.4441" x="532.96" y="520.4072">&#50756;&#47308;&#46108; &#44208;&#44284;&#45716; &#45796;&#51020; GM &#50836;&#52397;&#48512;&#53552; &#49324;&#50857;&#54620;&#45796;.</text></g><g id="elem_GMN31"><path d="M820.97,597.0375 L820.97,637.3031 A0,0 0 0 0 820.97,637.3031 L1138.1488,637.3031 A0,0 0 0 0 1138.1488,637.3031 L1138.1488,607.0375 L1128.1488,597.0375 L983.56,597.0375 L979.56,528.4375 L975.56,597.0375 L820.97,597.0375 A0,0 0 0 0 820.97,597.0375 " fill="#FEFFDD" style="stroke:#181818;stroke-width:0.5;"/><path d="M1128.1488,597.0375 L1128.1488,607.0375 L1138.1488,607.0375 L1128.1488,597.0375 " fill="#FEFFDD" style="stroke:#181818;stroke-width:0.5;"/><text fill="#000000" font-family="sans-serif" font-size="13" lengthAdjust="spacing" textLength="296.1788" x="826.97" y="614.1044">&#49892;&#54056; &#51473;&#50640;&#46020; &#47560;&#51648;&#47561; &#51221;&#49345; &#50836;&#50557;&#44284; &#51204;&#52404; &#50896;&#47928;&#51012; &#48372;&#51316;&#54620;&#45796;.</text><text fill="#000000" font-family="sans-serif" font-size="13" lengthAdjust="spacing" textLength="280.0864" x="826.97" y="629.2372">&#50517;&#52629; &#51089;&#50629;&#51008; &#54540;&#47112;&#51060;&#50612; &#51025;&#45813;&#51012; &#44592;&#45796;&#47532;&#44172; &#54616;&#51648; &#50506;&#45716;&#45796;.</text></g><g id="elem_GMN34"><path d="M6,589.4675 L6,644.8659 A0,0 0 0 0 6,644.8659 L295.1264,644.8659 A0,0 0 0 0 295.1264,644.8659 L295.1264,599.4675 L285.1264,589.4675 L154.56,589.4675 L150.56,528.4375 L146.56,589.4675 L6,589.4675 A0,0 0 0 0 6,589.4675 " fill="#FEFFDD" style="stroke:#181818;stroke-width:0.5;"/><path d="M285.1264,589.4675 L285.1264,599.4675 L295.1264,599.4675 L285.1264,589.4675 " fill="#FEFFDD" style="stroke:#181818;stroke-width:0.5;"/><text fill="#000000" font-family="sans-serif" font-size="13" lengthAdjust="spacing" textLength="200.0617" x="12" y="606.5344">&#47924;&#54952; &#54980;&#48372;&#47484; &#51088;&#46041; &#51116;&#49884;&#46020;&#54616;&#51648; &#50506;&#45716;&#45796;.</text><text fill="#000000" font-family="sans-serif" font-size="13" lengthAdjust="spacing" textLength="228.1141" x="12" y="621.6672">&#44592;&#51316; &#51221;&#49345; &#51088;&#47308;&#50752; &#50896;&#47928;&#51008; &#44536;&#45824;&#47196; &#50976;&#51648;&#54620;&#45796;.</text><text fill="#000000" font-family="sans-serif" font-size="13" lengthAdjust="spacing" textLength="268.1264" x="12" y="636.8">&#54596;&#50836;&#54620; &#44221;&#50864; &#50868;&#50689;&#51088; &#51312;&#52824;&#47196; &#51089;&#50629;&#51012; &#45796;&#49884; &#46321;&#47197;&#54620;&#45796;.</text></g><!--link *start* to ????--><g id="link_*start*_&#51089;&#50629;&#50630;&#51020;"><path d="M813.56,76.1275 C813.56,90.3375 813.56,111.9575 813.56,130.6775 " fill="none" id="*start*-to-&#51089;&#50629;&#50630;&#51020;" style="stroke:#181818;stroke-width:1.0;"/><polygon fill="#181818" points="813.56,136.6775,817.56,127.6775,813.56,131.6775,809.56,127.6775,813.56,136.6775" style="stroke:#181818;stroke-width:1.0;"/></g><!--link ???? to ???--><g id="link_&#51089;&#50629;&#50630;&#51020;_&#46321;&#47197;&#46120;"><path d="M813.56,177.2075 C813.56,198.4575 813.56,226.4575 813.56,247.7375 " fill="none" id="&#51089;&#50629;&#50630;&#51020;-to-&#46321;&#47197;&#46120;" style="stroke:#181818;stroke-width:1.0;"/><polygon fill="#181818" points="813.56,253.7375,817.56,244.7375,813.56,248.7375,809.56,244.7375,813.56,253.7375" style="stroke:#181818;stroke-width:1.0;"/><text fill="#000000" font-family="sans-serif" font-size="13" lengthAdjust="spacing" textLength="244.2064" x="814.56" y="220.0044">&#54869;&#51221; &#53556;&#183;&#50896;&#47928;&#183;&#51089;&#50629;&#51012; &#44057;&#51008; &#47196;&#52972; &#52964;&#48139;&#51004;&#47196; &#51200;&#51109;</text></g><!--link ??? to ?????--><g id="link_&#46321;&#47197;&#46120;_&#51076;&#45824;&#49892;&#54665;&#51473;"><path d="M813.56,294.3375 C813.56,315.5975 813.56,343.5875 813.56,364.8675 " fill="none" id="&#46321;&#47197;&#46120;-to-&#51076;&#45824;&#49892;&#54665;&#51473;" style="stroke:#181818;stroke-width:1.0;"/><polygon fill="#181818" points="813.56,370.8675,817.56,361.8675,813.56,365.8675,809.56,361.8675,813.56,370.8675" style="stroke:#181818;stroke-width:1.0;"/><text fill="#000000" font-family="sans-serif" font-size="13" lengthAdjust="spacing" textLength="104.9847" x="814.56" y="337.2744">&#51089;&#50629;&#51088;&#44032; &#51076;&#45824; &#54925;&#46301;</text></g><!--link ????? to ?????--><g id="link_&#51076;&#45824;&#49892;&#54665;&#51473;_&#50756;&#47308;&#44172;&#49884;&#46120;"><path d="M776.23,394.6175 C724.7,398.9775 629.61,410.7375 554.56,441.2075 C526.21,452.7075 502.1894,469.1281 482.8294,484.1581 " fill="none" id="&#51076;&#45824;&#49892;&#54665;&#51473;-to-&#50756;&#47308;&#44172;&#49884;&#46120;" style="stroke:#181818;stroke-width:1.0;"/><polygon fill="#181818" points="478.09,487.8375,487.652,485.478,482.0395,484.7713,482.7462,479.1588,478.09,487.8375" style="stroke:#181818;stroke-width:1.0;"/><text fill="#000000" font-family="sans-serif" font-size="13" lengthAdjust="spacing" textLength="236.8157" x="555.56" y="454.2744">&#54980;&#48372; &#44160;&#51613; &#53685;&#44284; &#183; &#52572;&#49888; &#48260;&#51204; &#54869;&#51064; &#183; &#50896;&#51088; &#44172;&#49884;</text></g><!--link ????? to ??????--><g id="link_&#51076;&#45824;&#49892;&#54665;&#51473;_&#51116;&#49884;&#46020;&#50696;&#50557;&#46120;"><path d="M851.17,399.7175 C878.43,406.7175 914.87,419.4275 940.56,441.2075 C955.31,453.6975 963.4588,467.7589 969.8388,482.3689 " fill="none" id="&#51076;&#45824;&#49892;&#54665;&#51473;-to-&#51116;&#49884;&#46020;&#50696;&#50557;&#46120;" style="stroke:#181818;stroke-width:1.0;"/><polygon fill="#181818" points="972.24,487.8675,972.304,478.0189,970.239,483.2853,964.9725,481.2204,972.24,487.8675" style="stroke:#181818;stroke-width:1.0;"/><text fill="#000000" font-family="sans-serif" font-size="13" lengthAdjust="spacing" textLength="224.4187" x="955.61" y="454.2744">&#51228;&#44277;&#51088; &#51068;&#49884; &#50724;&#47448; &#183; &#51228;&#54620; &#54943;&#49688;&#50752; &#51648;&#49688; &#44036;&#44201;</text></g><!--link ?????? to ?????--><g id="link_&#51116;&#49884;&#46020;&#50696;&#50557;&#46120;_&#51076;&#45824;&#49892;&#54665;&#51473;"><path d="M935.83,500.9875 C889.88,493.3175 822.14,478.8175 806.56,458.2075 C796.56,444.9675 798.0697,431.4082 803.0097,417.1182 " fill="none" id="&#51116;&#49884;&#46020;&#50696;&#50557;&#46120;-to-&#51076;&#45824;&#49892;&#54665;&#51473;" style="stroke:#181818;stroke-width:1.0;"/><polygon fill="#181818" points="804.97,411.4475,798.249,418.6467,803.3364,416.1731,805.81,421.2605,804.97,411.4475" style="stroke:#181818;stroke-width:1.0;"/><text fill="#000000" font-family="sans-serif" font-size="13" lengthAdjust="spacing" textLength="124.1694" x="807.56" y="454.2744">&#50696;&#50557; &#49884;&#44033; &#46020;&#45804; &#54980; &#51076;&#45824;</text></g><!--link ????? to ??????--><g id="link_&#51076;&#45824;&#49892;&#54665;&#51473;_&#51116;&#49884;&#46020;&#50696;&#50557;&#46120;"><path d="M850.96,394.3275 C941.46,399.8675 1166.47,416.0375 1188.56,441.2075 C1236.27,495.5475 1104.0286,505.5186 1029.5886,507.1186 " fill="none" id="&#51076;&#45824;&#49892;&#54665;&#51473;-to-&#51116;&#49884;&#46020;&#50696;&#50557;&#46120;-1" style="stroke:#181818;stroke-width:1.0;"/><polygon fill="#181818" points="1023.59,507.2475,1032.6739,511.0532,1028.5888,507.1401,1032.502,503.055,1023.59,507.2475" style="stroke:#181818;stroke-width:1.0;"/><text fill="#000000" font-family="sans-serif" font-size="13" lengthAdjust="spacing" textLength="145.434" x="1198.82" y="454.2744">&#51076;&#45824; &#47564;&#47308; &#183; &#45796;&#49884; &#51076;&#45824; &#44032;&#45733;</text></g><!--link ????? to ??????--><g id="link_&#51076;&#45824;&#49892;&#54665;&#51473;_&#49688;&#46041;&#52376;&#47532;&#45824;&#44592;"><path d="M775.94,392.8875 C694.21,395.0675 494.78,404.0675 332.56,441.2075 C305.85,447.3175 244.9601,470.2779 200.1801,487.7379 " fill="none" id="&#51076;&#45824;&#49892;&#54665;&#51473;-to-&#49688;&#46041;&#52376;&#47532;&#45824;&#44592;" style="stroke:#181818;stroke-width:1.0;"/><polygon fill="#181818" points="194.59,489.9175,204.4282,490.3748,199.2484,488.1012,201.5221,482.9213,194.59,489.9175" style="stroke:#181818;stroke-width:1.0;"/><text fill="#000000" font-family="sans-serif" font-size="13" lengthAdjust="spacing" textLength="180.274" x="333.56" y="454.2744">&#54980;&#48372; &#47924;&#54952; &#183; &#51088;&#46041; &#51116;&#49884;&#46020;&#54616;&#51648; &#50506;&#51020;</text></g><!--link ????? to ??????--><g id="link_&#51076;&#45824;&#49892;&#54665;&#51473;_&#49688;&#46041;&#52376;&#47532;&#45824;&#44592;"><path d="M776.24,393.5175 C637.79,398.5775 160.44,417.6775 138.56,441.2075 C126.96,453.6775 129.9493,468.0067 136.8393,482.6767 " fill="none" id="&#51076;&#45824;&#49892;&#54665;&#51473;-to-&#49688;&#46041;&#52376;&#47532;&#45824;&#44592;-1" style="stroke:#181818;stroke-width:1.0;"/><polygon fill="#181818" points="139.39,488.1075,139.1845,478.2608,137.2644,483.5818,131.9434,481.6617,139.39,488.1075" style="stroke:#181818;stroke-width:1.0;"/><text fill="#000000" font-family="sans-serif" font-size="13" lengthAdjust="spacing" textLength="131.997" x="139.56" y="454.2744">&#54728;&#50857;&#46108; &#51116;&#49884;&#46020; &#54943;&#49688; &#49548;&#51652;</text></g><!--link ????? to ???????--><g id="link_&#51076;&#45824;&#49892;&#54665;&#51473;_&#50724;&#47000;&#46108;&#54980;&#48372;&#54224;&#44592;"><path d="M851.02,392.1775 C939.48,392.8375 1167.77,398.8975 1352.56,441.2075 C1399.81,452.0175 1445.9728,470.1332 1481.0228,485.4632 " fill="none" id="&#51076;&#45824;&#49892;&#54665;&#51473;-to-&#50724;&#47000;&#46108;&#54980;&#48372;&#54224;&#44592;" style="stroke:#181818;stroke-width:1.0;"/><polygon fill="#181818" points="1486.52,487.8675,1479.8771,480.5962,1481.939,485.8639,1476.6713,487.9258,1486.52,487.8675" style="stroke:#181818;stroke-width:1.0;"/><text fill="#000000" font-family="sans-serif" font-size="13" lengthAdjust="spacing" textLength="168.314" x="1408.08" y="454.2744">&#50896;&#52380; &#48260;&#51204;&#51060; &#50724;&#47000;&#46120; &#183; &#44172;&#49884; &#44144;&#48512;</text></g><!--link ??????? to ???--><g id="link_&#50724;&#47000;&#46108;&#54980;&#48372;&#54224;&#44592;_&#46321;&#47197;&#46120;"><path d="M1563,487.8775 C1581.72,474.8275 1598.62,457.1575 1585.56,441.2075 C1376.22,185.4275 1171.45,394.6575 856.56,294.2075 C850.65,292.3175 849.95,292.2654 844.17,289.7454 " fill="none" id="&#50724;&#47000;&#46108;&#54980;&#48372;&#54224;&#44592;-to-&#46321;&#47197;&#46120;" style="stroke:#181818;stroke-width:1.0;"/><polygon fill="#181818" points="838.67,287.3475,845.3214,294.611,843.2533,289.3458,848.5186,287.2777,838.67,287.3475" style="stroke:#181818;stroke-width:1.0;"/><text fill="#000000" font-family="sans-serif" font-size="13" lengthAdjust="spacing" textLength="148.0894" x="1558.67" y="395.7744">&#52572;&#49888; &#50896;&#52380;&#51004;&#47196; &#49352; &#51089;&#50629; &#46321;&#47197;</text></g><!--link ?????? to ???--><g id="link_&#49688;&#46041;&#52376;&#47532;&#45824;&#44592;_&#46321;&#47197;&#46120;"><path d="M132.79,487.9075 C122.16,473.8675 112.67,455.0375 123.56,441.2075 C209.06,332.6775 668.2516,287.3164 782.3216,277.6064 " fill="none" id="&#49688;&#46041;&#52376;&#47532;&#45824;&#44592;-to-&#46321;&#47197;&#46120;" style="stroke:#181818;stroke-width:1.0;"/><polygon fill="#181818" points="788.3,277.0975,778.9932,273.8753,783.318,277.5216,779.6717,281.8464,788.3,277.0975" style="stroke:#181818;stroke-width:1.0;"/><text fill="#000000" font-family="sans-serif" font-size="13" lengthAdjust="spacing" textLength="185.0094" x="242.3" y="395.7744">&#50868;&#50689;&#51088;&#44032; &#49688;&#46041; &#51116;&#46321;&#47197; &#46608;&#45716; &#51116;&#52376;&#47532;</text></g><!--link ????? to *end*--><g id="link_&#50756;&#47308;&#44172;&#49884;&#46120;_*end*"><path d="M441.69,528.4375 C425.92,551.8375 403.2237,585.5223 391.7037,602.6123 " fill="none" id="&#50756;&#47308;&#44172;&#49884;&#46120;-to-*end*" style="stroke:#181818;stroke-width:1.0;"/><polygon fill="#181818" points="388.35,607.5875,396.6973,602.3605,391.1447,603.4415,390.0637,597.8889,388.35,607.5875" style="stroke:#181818;stroke-width:1.0;"/></g><!--link ?????? to *end*--><g id="link_&#49688;&#46041;&#52376;&#47532;&#45824;&#44592;_*end*"><path d="M192.85,528.8075 C248.26,554.3275 336.5503,594.9773 367.1403,609.0673 " fill="none" id="&#49688;&#46041;&#52376;&#47532;&#45824;&#44592;-to-*end*" style="stroke:#181818;stroke-width:1.0;"/><polygon fill="#181818" points="372.59,611.5775,366.0889,604.1791,368.0486,609.4857,362.742,611.4454,372.59,611.5775" style="stroke:#181818;stroke-width:1.0;"/></g><rect fill="#DDDDDD" height="42.5938" id="_legend" rx="7.5" ry="7.5" style="stroke:#000000;stroke-width:1.0;" width="461.5013" x="619.629" y="662.8659"/><text fill="#000000" font-family="sans-serif" font-size="14" lengthAdjust="spacing" textLength="451.5013" x="624.629" y="680.8611">&#51060; &#49345;&#53468; &#51204;&#51060;&#45716; Adventure Runtime &#50504;&#51032; &#45236;&#44396;&#49457; &#48708;&#46041;&#44592; &#51089;&#50629; &#49444;&#44228; &#49345;&#53468;&#45796;.</text><text fill="#000000" font-family="sans-serif" font-size="14" lengthAdjust="spacing" textLength="325.0244" x="624.629" y="697.1579">Product Spec&#50640;&#49436; &#48324;&#46020; &#50629;&#47924; &#49345;&#53468;&#45716; &#51221;&#51032;&#54616;&#51648; &#50506;&#45716;&#45796;.</text><!--SRC=[bLLDRzD04BtxLymPgL1Qn8434d3WX8H0d107Q0oDr2PLS96ufNIfGc9KLws9azeXLTCcHK5o7OUcQhdmSxpZ_y3ihbr7QSh7AOvtT-QzD- -jZRonf0C_PNop4Oryu6OvRkm0sZR-i05RMrZ_2CWwqO01hg_5wwwsgB_CwILuzc1cTWv-dSY7-VJX5jo0-qzcPc-B5_HmSovzcDSMypaTzEKLuptazBSBfVoAaIyMDEtvjHSmCtCtwORr3VHCRVoFNENRntpFurOFxa3SiB5jGyp2NoUuQ_7-Y7xL0Oz1v3VGAmFVS_6i3tZMuNuDtNFw3zWkO-j0osgfleneOwqJV_c4dIsgdzHgMP5VJfOXRdxcsvuskLaMQ32-RqQ1YJKt0RZB-224A2ZZeGVnnZ0Qd0iXSEXYhGqyODXcaeOtakztBUe6giJq7gs-gBx9qAcW_LErmROR3ORY97hdj0peTFY18okstTXs2VLNh3ZO81hTCZsHE2mAZhGfvQwGGgu3ROxyDQ03lDONz9Ajqx5M7B8J1Wu_xDEYyDM59BmVnisUHDYoQ5T6BBOTmaZMgwhv_slTUWMRHznoiqe9Qy0D4xliF-HKa-PTayOf8F9QHwggtfCPUFLWUZdIlUKG2CKothGKE37Nm4tcZLvuiL4geCODqR7FVv2IKsjCMZzna2gSkdgzaaPLRTMcA7MfK3D4PotrkDmlL55RW3iMh-v8cMGHRTBZeXm5zwfEOaah50qTIlatYmOKNsVDDH39JK8iWg4Y34GQzqAHuDWEyJHrW_0SKOABN7_hnNLd8jvr2vaBsHsWcb42Q8JNDRsG0m5c4j84AUeXfMpka2KaiEef1LHuYtX9MGRbAFYf8FQYCoSPOTe7aehoHE1J2I6YS15TOWyVoSh1Tnfsp7p03tqoxXKGNnKDexWiCLvogcX3xZDxGFOZviBnl5iXkNZt4mNVfejwd0GvBmWJaQKsKkSnpEENlL0utZ5vkq9snIzqpjlYjQ6yLqc3MeVcJAGXIojH_0k3InQXfiazeBpE3yx_S1sa3K0W8EGN5Ed4lYdljeGRPVHaH2raADmsdSzOnZOZJSITA2ROzBC00ExvP3TvA3EGYlvLFbhItz0V8Pu8jVmmWegucFYzt3kzOAoMT7YoMZ3oophH83t9j1_2QDX7TZpsoPtsaKqmFouLSwiB1ZnTqHSIY_C14_Ec4wHWkbiabJJndAbJKLX_0m00]--></g></svg>