<svg xmlns="http://www.w3.org/2000/svg" xmlns:xlink="http://www.w3.org/1999/xlink" contentStyleType="text/css" height="672px" preserveAspectRatio="none" style="width:672px;height:672px;background:#FFFFFF;" version="1.1" viewBox="0 0 672 672" width="672px" zoomAndPan="magnify"><title>UC-278 &#8212; Combat Map Use Cases</title><defs/><g><text fill="#000000" font-family="sans-serif" font-size="14" font-weight="bold" lengthAdjust="spacing" textLength="264.168" x="197.276" y="22.9951">UC-278 &#8212; Combat Map Use Cases</text><!--cluster Combat Map--><g id="cluster_Combat Map"><rect fill="none" height="622" rx="2.5" ry="2.5" style="stroke:#181818;stroke-width:1.0;" width="332.2" x="334.52" y="44.2969"/><text fill="#000000" font-family="sans-serif" font-size="14" font-weight="bold" lengthAdjust="spacing" textLength="98.916" x="451.162" y="59.292">Combat Map</text></g><g id="elem_UC1"><ellipse cx="500.6157" cy="624.298" fill="#F1F1F1" rx="119.4057" ry="26.2811" style="stroke:#181818;stroke-width:0.5;"/><text fill="#000000" font-family="sans-serif" font-size="14" lengthAdjust="spacing" textLength="33.9814" x="483.625" y="618.9963">UC-1</text><text fill="#000000" font-family="sans-serif" font-size="14" lengthAdjust="spacing" textLength="154.2598" x="423.4858" y="635.2931">Prepare playable map</text></g><g id="elem_UC2"><ellipse cx="500.6152" cy="433.2941" fill="#F1F1F1" rx="98.7052" ry="26.0473" style="stroke:#181818;stroke-width:0.5;"/><text fill="#000000" font-family="sans-serif" font-size="14" lengthAdjust="spacing" textLength="33.9814" x="483.6245" y="427.9924">UC-2</text><text fill="#000000" font-family="sans-serif" font-size="14" lengthAdjust="spacing" textLength="123.3477" x="438.9414" y="444.2893">Align Printed Grid</text></g><g id="elem_UC3"><ellipse cx="500.6161" cy="520.2941" fill="#F1F1F1" rx="108.8561" ry="26.0473" style="stroke:#181818;stroke-width:0.5;"/><text fill="#000000" font-family="sans-serif" font-size="14" lengthAdjust="spacing" textLength="33.9814" x="483.6254" y="514.9924">UC-3</text><text fill="#000000" font-family="sans-serif" font-size="14" lengthAdjust="spacing" textLength="137.7031" x="431.7645" y="531.2893">Create fallback grid</text></g><g id="elem_UC4"><ellipse cx="500.6207" cy="340.299" fill="#F1F1F1" rx="145.5607" ry="31.5121" style="stroke:#181818;stroke-width:0.5;"/><text fill="#000000" font-family="sans-serif" font-size="14" lengthAdjust="spacing" textLength="33.9814" x="483.63" y="334.9973">UC-4</text><text fill="#000000" font-family="sans-serif" font-size="14" lengthAdjust="spacing" textLength="221.9561" x="389.6427" y="351.2941">Activate map and spawn player</text></g><g id="elem_UC5"><ellipse cx="500.6184" cy="225.2966" fill="#F1F1F1" rx="150.0984" ry="32.4197" style="stroke:#181818;stroke-width:0.5;"/><text fill="#000000" font-family="sans-serif" font-size="14" lengthAdjust="spacing" textLength="33.9814" x="483.6277" y="219.9948">UC-5</text><text fill="#000000" font-family="sans-serif" font-size="14" lengthAdjust="spacing" textLength="232.9346" x="384.1511" y="236.2917">Show Fog of War and exploration</text></g><g id="elem_UC6"><ellipse cx="500.6205" cy="110.299" fill="#F1F1F1" rx="143.8605" ry="31.1721" style="stroke:#181818;stroke-width:0.5;"/><text fill="#000000" font-family="sans-serif" font-size="14" lengthAdjust="spacing" textLength="33.9814" x="483.6298" y="104.9972">UC-6</text><text fill="#000000" font-family="sans-serif" font-size="14" lengthAdjust="spacing" textLength="217.7998" x="391.7206" y="121.2941">Display player map and tokens</text></g><!--entity Player--><g id="elem_Player"><ellipse cx="74.2614" cy="141.6469" fill="#F1F1F1" rx="8" ry="8" style="stroke:#181818;stroke-width:0.5;"/><path d="M74.2614,149.6469 L74.2614,176.6469 M61.2614,157.6469 L87.2614,157.6469 M74.2614,176.6469 L61.2614,191.6469 M74.2614,176.6469 L87.2614,191.6469 " fill="none" style="stroke:#181818;stroke-width:0.5;"/><text fill="#000000" font-family="sans-serif" font-size="14" lengthAdjust="spacing" textLength="77.9229" x="35.3" y="206.142">Solo Player</text></g><!--entity Runtime--><g id="elem_Runtime"><ellipse cx="74.2603" cy="275.6469" fill="#F1F1F1" rx="8" ry="8" style="stroke:#181818;stroke-width:0.5;"/><path d="M74.2603,283.6469 L74.2603,310.6469 M61.2603,291.6469 L87.2603,291.6469 M74.2603,310.6469 L61.2603,325.6469 M74.2603,310.6469 L87.2603,325.6469 " fill="none" style="stroke:#181818;stroke-width:0.5;"/><text fill="#000000" font-family="sans-serif" font-size="14" lengthAdjust="spacing" textLength="136.5205" x="6" y="340.142">Adventure Runtime</text></g><!--entity GM--><g id="elem_GM"><ellipse cx="74.2579" cy="469.6469" fill="#F1F1F1" rx="8" ry="8" style="stroke:#181818;stroke-width:0.5;"/><path d="M74.2579,477.6469 L74.2579,504.6469 M61.2579,485.6469 L87.2579,485.6469 M74.2579,504.6469 L61.2579,519.6469 M74.2579,504.6469 L87.2579,519.6469 " fill="none" style="stroke:#181818;stroke-width:0.5;"/><text fill="#000000" font-family="sans-serif" font-size="14" lengthAdjust="spacing" textLength="112.0957" x="18.21" y="534.142">AI Game Master</text></g><!--entity Source--><g id="elem_Source"><ellipse cx="74.2611" cy="594.6469" fill="#F1F1F1" rx="8" ry="8" style="stroke:#181818;stroke-width:0.5;"/><path d="M74.2611,602.6469 L74.2611,629.6469 M61.2611,610.6469 L87.2611,610.6469 M74.2611,629.6469 L61.2611,644.6469 M74.2611,629.6469 L87.2611,644.6469 " fill="none" style="stroke:#181818;stroke-width:0.5;"/><text fill="#000000" font-family="sans-serif" font-size="14" lengthAdjust="spacing" textLength="113.7021" x="17.41" y="659.142">Scenario Source</text></g><!--link Source to UC1--><g id="link_Source_UC1"><path d="M131.17,624.2969 C194.42,624.2969 293.22,624.2969 374.92,624.2969 " fill="none" id="Source-to-UC1" style="stroke:#181818;stroke-width:1.0;"/><polygon fill="#181818" points="380.92,624.2969,371.92,620.2969,375.92,624.2969,371.92,628.2969,380.92,624.2969" style="stroke:#181818;stroke-width:1.0;"/></g><!--link Runtime to UC4--><g id="link_Runtime_UC4"><path d="M142.97,310.8769 C202.29,315.7769 284.3203,322.5438 358.0603,328.6238 " fill="none" id="Runtime-to-UC4" style="stroke:#181818;stroke-width:1.0;"/><polygon fill="#181818" points="364.04,329.1169,355.3991,324.3908,359.0569,328.706,354.7417,332.3638,364.04,329.1169" style="stroke:#181818;stroke-width:1.0;"/></g><!--link Runtime to UC5--><g id="link_Runtime_UC5"><path d="M142.97,292.5369 C208.37,280.2069 302.7539,262.4086 380.3439,247.7786 " fill="none" id="Runtime-to-UC5" style="stroke:#181818;stroke-width:1.0;"/><polygon fill="#181818" points="386.24,246.6669,376.6547,244.4038,381.3266,247.5933,378.137,252.2652,386.24,246.6669" style="stroke:#181818;stroke-width:1.0;"/></g><!--link GM to UC4--><g id="link_GM_UC4"><path d="M130.59,519.1369 C185.63,534.9369 268.83,547.5569 318.52,501.2969 C336.78,484.2969 310.77,408.6469 326.52,389.2969 C338.84,374.1569 349.9153,365.7795 368.0053,358.2995 " fill="none" id="GM-to-UC4" style="stroke:#181818;stroke-width:1.0;"/><polygon fill="#181818" points="373.55,356.0069,363.7045,355.7494,368.9294,357.9174,366.7614,363.1423,373.55,356.0069" style="stroke:#181818;stroke-width:1.0;"/><text fill="#000000" font-family="sans-serif" font-size="13" lengthAdjust="spacing" textLength="112.6582" x="189.52" y="497.3638">proposes context</text></g><!--link Player to UC5--><g id="link_Player_UC5"><path d="M113.39,181.0769 C131.24,185.3669 152.87,190.1269 172.52,193.2969 C232.79,203.0269 293.8531,209.6809 351.4631,214.7509 " fill="none" id="Player-to-UC5" style="stroke:#181818;stroke-width:1.0;"/><polygon fill="#181818" points="357.44,215.2769,348.8253,210.5033,352.4593,214.8385,348.124,218.4725,357.44,215.2769" style="stroke:#181818;stroke-width:1.0;"/><text fill="#000000" font-family="sans-serif" font-size="13" lengthAdjust="spacing" textLength="144.4092" x="173.52" y="189.3638">moves / changes view</text></g><!--link Player to UC6--><g id="link_Player_UC6"><path d="M113.67,165.7769 C173.14,157.2269 284.061,141.2804 373.681,128.4004 " fill="none" id="Player-to-UC6" style="stroke:#181818;stroke-width:1.0;"/><polygon fill="#181818" points="379.62,127.5469,370.1425,124.8679,374.6709,128.2582,371.2806,132.7865,379.62,127.5469" style="stroke:#181818;stroke-width:1.0;"/></g><!--link UC1 to UC2--><g id="link_UC1_UC2"><path d="M420.96,604.3269 C328.68,577.5469 196.4,525.6769 255.54,459.7969 C295.92,414.8169 360.3852,410.7476 415.4152,416.7376 " fill="none" id="UC1-to-UC2" style="stroke:#181818;stroke-width:1.0;stroke-dasharray:7.0,7.0;"/><polygon fill="#181818" points="421.38,417.3869,412.8657,412.4365,416.4094,416.8458,412,420.3895,421.38,417.3869" style="stroke:#181818;stroke-width:1.0;"/><text fill="#000000" font-family="sans-serif" font-size="13" lengthAdjust="spacing" textLength="63.0068" x="214.02" y="472.8638">&#171;include&#187;</text></g><!--link UC1 to UC3--><g id="link_UC1_UC3"><path d="M500.62,597.7869 C500.62,582.1369 500.62,568.3969 500.62,552.7569 " fill="none" id="UC1-to-UC3" style="stroke:#181818;stroke-width:1.0;stroke-dasharray:7.0,7.0;"/><polygon fill="#181818" points="500.62,546.7569,496.62,555.7569,500.62,551.7569,504.62,555.7569,500.62,546.7569" style="stroke:#181818;stroke-width:1.0;"/><text fill="#000000" font-family="sans-serif" font-size="13" lengthAdjust="spacing" textLength="155.1177" x="411.62" y="576.7438">&#171;include when needed&#187;</text></g><!--link UC4 to UC5--><g id="link_UC4_UC5"><path d="M500.62,308.5669 C500.62,292.8769 500.62,279.9569 500.62,264.1269 " fill="none" id="UC4-to-UC5" style="stroke:#181818;stroke-width:1.0;stroke-dasharray:7.0,7.0;"/><polygon fill="#181818" points="500.62,258.1269,496.62,267.1269,500.62,263.1269,504.62,267.1269,500.62,258.1269" style="stroke:#181818;stroke-width:1.0;"/><text fill="#000000" font-family="sans-serif" font-size="13" lengthAdjust="spacing" textLength="63.0068" x="457.62" y="287.8138">&#171;include&#187;</text></g><!--link UC5 to UC6--><g id="link_UC5_UC6"><path d="M500.62,192.6469 C500.62,176.7169 500.62,163.6169 500.62,147.8369 " fill="none" id="UC5-to-UC6" style="stroke:#181818;stroke-width:1.0;stroke-dasharray:7.0,7.0;"/><polygon fill="#181818" points="500.62,141.8369,496.62,150.8369,500.62,146.8369,504.62,150.8369,500.62,141.8369" style="stroke:#181818;stroke-width:1.0;"/><text fill="#000000" font-family="sans-serif" font-size="13" lengthAdjust="spacing" textLength="63.0068" x="457.62" y="171.7438">&#171;include&#187;</text></g><!--SRC=[PPBDZjCm58NtVegZRDXGODec83IgD0eYOb6fegfcauthtARM97RaEEqW1E8XU4AUX9l4RPcmI7IjyvtxPx_2njcYKnxRXXHswUpk9_-IryWuuk-TyDfNr2lpzn_mvzTlfBRUIu-rRB1h2QbigHMYeeE7jt2wF7eKsf7osXeXbRSEqTPM5fjAVYCNGROXlAWFnOcCxnpXQsUyhcbWGdo5lY2JDN7XreSisVgQNv6HJbjiRUVKw1z38VfMf2bvYkZMUuJl0kXQKjm_edxot6mSDPAxQBWxkMT3tOESQfVUJUXvRXugNHfUe3QU2cHE5u6TJzX5Rb97qXCEighsKZsXlD6B2RtapBoxKyzpVKXJe6tasGnjXSbtwN9YYtEpFTepFjiIze17wGOdFJULTRA_Ys2C9yOaDvzqs-SE1QvLlNqYqmPR8du8CQuKizbgM4cueN1UJiwnoDON2H_HEDjOVYjGbXVsxCNu1Yum4xKziVmMwiZNnT59q_abbGWkYpTzE6V3_RqsgkeAMgrkmk9V0USZ6HYYWee1MevG_9yx7eNafV0N]--></g></svg>