<svg xmlns="http://www.w3.org/2000/svg" xmlns:xlink="http://www.w3.org/1999/xlink" contentStyleType="text/css" height="614px" preserveAspectRatio="none" style="width:1142px;height:614px;background:#FFFFFF;" version="1.1" viewBox="0 0 1142 614" width="1142px" zoomAndPan="magnify"><defs/><g><ellipse cx="375.4528" cy="20" fill="#222222" rx="10" ry="10" style="stroke:#222222;stroke-width:1.0;"/><polygon fill="#F1F1F1" points="268.5211,50,482.3844,50,494.3844,62,482.3844,74,268.5211,74,256.5211,62,268.5211,50" style="stroke:#181818;stroke-width:0.5;"/><text fill="#000000" font-family="sans-serif" font-size="11" lengthAdjust="spacing" textLength="213.8633" x="268.5211" y="65.8081">&#49324;&#50857;&#51088;&#44032; &#51060; &#53364;&#46972;&#51060;&#50616;&#53944;&#51032; &#50672;&#44208;&#47564; &#54644;&#51228;&#54616;&#45716;&#44032;?</text><text fill="#000000" font-family="sans-serif" font-size="11" lengthAdjust="spacing" textLength="10.1199" x="246.4012" y="59.4058">&#50696;</text><text fill="#000000" font-family="sans-serif" font-size="11" lengthAdjust="spacing" textLength="30.3598" x="494.3844" y="59.4058">&#50500;&#45768;&#50724;</text><rect fill="#F1F1F1" height="33.9688" rx="12.5" ry="12.5" style="stroke:#181818;stroke-width:0.5;" width="204.6735" x="11" y="84"/><text fill="#000000" font-family="sans-serif" font-size="12" lengthAdjust="spacing" textLength="184.6735" x="21" y="105.1387">&#51060; &#53364;&#46972;&#51060;&#50616;&#53944; &#49444;&#52824;&#51032; &#54788;&#51116; &#50672;&#44208; &#54644;&#51228;</text><rect fill="#F1F1F1" height="33.9688" rx="12.5" ry="12.5" style="stroke:#181818;stroke-width:0.5;" width="182.7103" x="21.9816" y="152.9688"/><text fill="#000000" font-family="sans-serif" font-size="12" lengthAdjust="spacing" textLength="162.7103" x="31.9816" y="174.1074">codex logout&#51012; &#49892;&#54665;&#54616;&#51648; &#50506;&#51020;</text><rect fill="#F1F1F1" height="33.9688" rx="12.5" ry="12.5" style="stroke:#181818;stroke-width:0.5;" width="143.0696" x="41.802" y="221.9375"/><text fill="#000000" font-family="sans-serif" font-size="12" lengthAdjust="spacing" textLength="123.0696" x="51.802" y="243.0762">Codex CLI &#47196;&#44536;&#51064; &#50976;&#51648;</text><ellipse cx="113.3368" cy="300.875" fill="none" rx="11" ry="11" style="stroke:#222222;stroke-width:1.0;"/><ellipse cx="113.3368" cy="300.875" fill="#222222" rx="6" ry="6" style="stroke:#222222;stroke-width:1.0;"/><polygon fill="#F1F1F1" points="555.5771,84,779.5604,84,791.5604,96,779.5604,108,555.5771,108,543.5771,96,555.5771,84" style="stroke:#181818;stroke-width:0.5;"/><text fill="#000000" font-family="sans-serif" font-size="11" lengthAdjust="spacing" textLength="223.9832" x="555.5771" y="99.8081">&#49324;&#50857;&#51088;&#44032; &#47749;&#49884;&#51201;&#51004;&#47196; &#45796;&#47480; &#44228;&#51221;&#51004;&#47196; &#51204;&#54872;&#54616;&#45716;&#44032;?</text><text fill="#000000" font-family="sans-serif" font-size="11" lengthAdjust="spacing" textLength="10.1199" x="533.4572" y="93.4058">&#50696;</text><text fill="#000000" font-family="sans-serif" font-size="11" lengthAdjust="spacing" textLength="30.3598" x="791.5604" y="93.4058">&#50500;&#45768;&#50724;</text><rect fill="#F1F1F1" height="47.9375" rx="12.5" ry="12.5" style="stroke:#181818;stroke-width:0.5;" width="247.4154" x="347.838" y="118"/><text fill="#000000" font-family="sans-serif" font-size="12" lengthAdjust="spacing" textLength="143.9244" x="357.838" y="139.1387">&#44592;&#51316; &#47196;&#44536;&#51064; &#49345;&#53468;&#50752; &#47924;&#44288;&#54616;&#44172;</text><text fill="#000000" font-family="sans-serif" font-size="12" lengthAdjust="spacing" textLength="227.4154" x="357.838" y="153.1074">Codex CLI &#47196;&#44536;&#51064; &#47749;&#47161;(codex login) &#49892;&#54665;</text><polygon fill="#F1F1F1" points="446.6384,200.9375,496.453,200.9375,508.453,212.9375,496.453,224.9375,446.6384,224.9375,434.6384,212.9375,446.6384,200.9375" style="stroke:#181818;stroke-width:0.5;"/><text fill="#000000" font-family="sans-serif" font-size="11" lengthAdjust="spacing" textLength="49.8146" x="446.6384" y="216.7456">&#51064;&#51613; &#49457;&#44277;?</text><text fill="#000000" font-family="sans-serif" font-size="11" lengthAdjust="spacing" textLength="10.1199" x="424.5185" y="210.3433">&#50696;</text><text fill="#000000" font-family="sans-serif" font-size="11" lengthAdjust="spacing" textLength="105.2751" x="508.453" y="210.3433">&#50500;&#45768;&#50724;: &#52712;&#49548; &#46608;&#45716; &#49892;&#54056;</text><rect fill="#F1F1F1" height="33.9688" rx="12.5" ry="12.5" style="stroke:#181818;stroke-width:0.5;" width="242.8336" x="235.3884" y="234.9375"/><text fill="#000000" font-family="sans-serif" font-size="12" lengthAdjust="spacing" textLength="222.8336" x="245.3884" y="256.0762">Codex CLI&#51032; &#44277;&#50976; &#44228;&#51221;&#51012; &#49352; &#44228;&#51221;&#51004;&#47196; &#48320;&#44221;</text><rect fill="#F1F1F1" height="33.9688" rx="12.5" ry="12.5" style="stroke:#181818;stroke-width:0.5;" width="262.2633" x="225.6735" y="302.875"/><text fill="#000000" font-family="sans-serif" font-size="12" lengthAdjust="spacing" textLength="242.2633" x="235.6735" y="324.0137">&#44057;&#51008; PC&#51032; &#45796;&#47480; Codex CLI &#49324;&#50857;&#50640;&#46020; &#48320;&#44221; &#51201;&#50857;</text><rect fill="#F1F1F1" height="33.9688" rx="12.5" ry="12.5" style="stroke:#181818;stroke-width:0.5;" width="193.6335" x="259.9885" y="370.8125"/><text fill="#000000" font-family="sans-serif" font-size="12" lengthAdjust="spacing" textLength="173.6335" x="269.9885" y="391.9512">&#51060; &#53364;&#46972;&#51060;&#50616;&#53944; &#49444;&#52824;&#51032; &#49352; &#50672;&#44208; &#51200;&#51109;</text><rect fill="#F1F1F1" height="33.9688" rx="12.5" ry="12.5" style="stroke:#181818;stroke-width:0.5;" width="167.7388" x="272.9358" y="438.75"/><text fill="#000000" font-family="sans-serif" font-size="12" lengthAdjust="spacing" textLength="147.7388" x="282.9358" y="459.8887">&#51060;&#54980; &#49892;&#54665;&#50640;&#49436; &#49352; &#50672;&#44208; &#51116;&#49324;&#50857;</text><ellipse cx="356.8052" cy="518.7188" fill="none" rx="11" ry="11" style="stroke:#222222;stroke-width:1.0;"/><ellipse cx="356.8052" cy="518.7188" fill="#222222" rx="6" ry="6" style="stroke:#222222;stroke-width:1.0;"/><rect fill="#F1F1F1" height="33.9688" rx="12.5" ry="12.5" style="stroke:#181818;stroke-width:0.5;" width="115.9496" x="528.3114" y="234.9375"/><text fill="#000000" font-family="sans-serif" font-size="12" lengthAdjust="spacing" textLength="95.9496" x="538.3114" y="256.0762">&#49444;&#51221; &#48120;&#50756;&#47308;&#47196; &#51333;&#47308;</text><rect fill="#F1F1F1" height="33.9688" rx="12.5" ry="12.5" style="stroke:#181818;stroke-width:0.5;" width="156.6987" x="507.9368" y="302.875"/><text fill="#000000" font-family="sans-serif" font-size="12" lengthAdjust="spacing" textLength="136.6987" x="517.9368" y="324.0137">&#45796;&#49884; &#51204;&#54872;&#51012; &#49884;&#46020;&#54624; &#49688; &#51080;&#51020;</text><ellipse cx="586.2862" cy="381.8125" fill="none" rx="11" ry="11" style="stroke:#222222;stroke-width:1.0;"/><ellipse cx="586.2862" cy="381.8125" fill="#222222" rx="6" ry="6" style="stroke:#222222;stroke-width:1.0;"/><rect fill="#F1F1F1" height="33.9688" rx="12.5" ry="12.5" style="stroke:#181818;stroke-width:0.5;" width="131.5121" x="797.8358" y="118"/><text fill="#000000" font-family="sans-serif" font-size="12" lengthAdjust="spacing" textLength="111.5121" x="807.8358" y="139.1387">&#51200;&#51109;&#46108; &#50672;&#44208;&#47196; AI &#50836;&#52397;</text><polygon fill="#F1F1F1" points="806.1364,186.9688,921.0473,186.9688,933.0473,198.9688,921.0473,210.9688,806.1364,210.9688,794.1364,198.9688,806.1364,186.9688" style="stroke:#181818;stroke-width:0.5;"/><text fill="#000000" font-family="sans-serif" font-size="11" lengthAdjust="spacing" textLength="114.9108" x="806.1364" y="202.7769">&#47196;&#44536;&#51064; &#53664;&#53360;&#51060; &#50976;&#54952;&#54620;&#44032;?</text><text fill="#000000" font-family="sans-serif" font-size="11" lengthAdjust="spacing" textLength="10.1199" x="784.0165" y="196.3745">&#50696;</text><text fill="#000000" font-family="sans-serif" font-size="11" lengthAdjust="spacing" textLength="105.2751" x="933.0473" y="196.3745">&#50500;&#45768;&#50724;: &#47924;&#54952; &#46608;&#45716; &#47564;&#47308;</text><rect fill="#F1F1F1" height="33.9688" rx="12.5" ry="12.5" style="stroke:#181818;stroke-width:0.5;" width="83.5373" x="704.6356" y="220.9688"/><text fill="#000000" font-family="sans-serif" font-size="12" lengthAdjust="spacing" textLength="63.5373" x="714.6356" y="242.1074">AI &#50836;&#52397; &#51652;&#54665;</text><ellipse cx="746.4042" cy="299.9063" fill="none" rx="11" ry="11" style="stroke:#222222;stroke-width:1.0;"/><ellipse cx="746.4042" cy="299.9063" fill="#222222" rx="6" ry="6" style="stroke:#222222;stroke-width:1.0;"/><rect fill="#F1F1F1" height="33.9688" rx="12.5" ry="12.5" style="stroke:#181818;stroke-width:0.5;" width="83.5373" x="939.0108" y="220.9688"/><text fill="#000000" font-family="sans-serif" font-size="12" lengthAdjust="spacing" textLength="63.5373" x="949.0108" y="242.1074">AI &#50836;&#52397; &#52264;&#45800;</text><rect fill="#F1F1F1" height="33.9688" rx="12.5" ry="12.5" style="stroke:#181818;stroke-width:0.5;" width="104.9095" x="928.3247" y="288.9063"/><text fill="#000000" font-family="sans-serif" font-size="12" lengthAdjust="spacing" textLength="84.9095" x="938.3247" y="310.0449">&#51116;&#51064;&#51613; &#50504;&#45236; &#54364;&#49884;</text><rect fill="#F1F1F1" height="33.9688" rx="12.5" ry="12.5" style="stroke:#181818;stroke-width:0.5;" width="184.4543" x="888.5523" y="356.8438"/><text fill="#000000" font-family="sans-serif" font-size="12" lengthAdjust="spacing" textLength="164.4543" x="898.5523" y="377.9824">Codex CLI &#44228;&#51221; OAuth &#51116;&#51064;&#51613;</text><polygon fill="#F1F1F1" points="950.8122,424.7813,1010.7467,424.7813,1022.7467,436.7813,1010.7467,448.7813,950.8122,448.7813,938.8122,436.7813,950.8122,424.7813" style="stroke:#181818;stroke-width:0.5;"/><text fill="#000000" font-family="sans-serif" font-size="11" lengthAdjust="spacing" textLength="59.9346" x="950.8122" y="440.5894">&#51116;&#51064;&#51613; &#49457;&#44277;?</text><text fill="#000000" font-family="sans-serif" font-size="11" lengthAdjust="spacing" textLength="10.1199" x="928.6923" y="434.187">&#50696;</text><text fill="#000000" font-family="sans-serif" font-size="11" lengthAdjust="spacing" textLength="105.2751" x="1022.7467" y="434.187">&#50500;&#45768;&#50724;: &#52712;&#49548; &#46608;&#45716; &#49892;&#54056;</text><rect fill="#F1F1F1" height="33.9688" rx="12.5" ry="12.5" style="stroke:#181818;stroke-width:0.5;" width="104.9095" x="844.9014" y="458.7813"/><text fill="#000000" font-family="sans-serif" font-size="12" lengthAdjust="spacing" textLength="84.9095" x="854.9014" y="479.9199">&#51200;&#51109;&#46108; &#50672;&#44208; &#44081;&#49888;</text><rect fill="#F1F1F1" height="33.9688" rx="12.5" ry="12.5" style="stroke:#181818;stroke-width:0.5;" width="158.3666" x="818.1729" y="527.75"/><text fill="#000000" font-family="sans-serif" font-size="12" lengthAdjust="spacing" textLength="138.3666" x="828.1729" y="548.8887">&#49324;&#50857;&#51088;&#44032; AI &#50836;&#52397; &#45796;&#49884; &#49884;&#46020;</text><ellipse cx="897.3562" cy="592.7188" fill="none" rx="11" ry="11" style="stroke:#222222;stroke-width:1.0;"/><ellipse cx="897.3562" cy="592.7188" fill="#222222" rx="6" ry="6" style="stroke:#222222;stroke-width:1.0;"/><rect fill="#F1F1F1" height="33.9688" rx="12.5" ry="12.5" style="stroke:#181818;stroke-width:0.5;" width="135.3265" x="996.5395" y="458.7813"/><text fill="#000000" font-family="sans-serif" font-size="12" lengthAdjust="spacing" textLength="115.3265" x="1006.5395" y="479.9199">AI &#50836;&#52397; &#52264;&#45800; &#49345;&#53468; &#50976;&#51648;</text><rect fill="#F1F1F1" height="33.9688" rx="12.5" ry="12.5" style="stroke:#181818;stroke-width:0.5;" width="116.9095" x="1005.748" y="527.75"/><text fill="#000000" font-family="sans-serif" font-size="12" lengthAdjust="spacing" textLength="96.9095" x="1015.748" y="548.8887">&#45208;&#51473;&#50640; &#51116;&#51064;&#51613; &#44032;&#45733;</text><ellipse cx="1064.2028" cy="592.7188" fill="none" rx="11" ry="11" style="stroke:#222222;stroke-width:1.0;"/><ellipse cx="1064.2028" cy="592.7188" fill="#222222" rx="6" ry="6" style="stroke:#222222;stroke-width:1.0;"/><line style="stroke:#181818;stroke-width:1.0;" x1="113.3368" x2="113.3368" y1="117.9688" y2="152.9688"/><polygon fill="#181818" points="109.3368,142.9688,113.3368,152.9688,117.3368,142.9688,113.3368,146.9688" style="stroke:#181818;stroke-width:1.0;"/><line style="stroke:#181818;stroke-width:1.0;" x1="113.3368" x2="113.3368" y1="186.9375" y2="221.9375"/><polygon fill="#181818" points="109.3368,211.9375,113.3368,221.9375,117.3368,211.9375,113.3368,215.9375" style="stroke:#181818;stroke-width:1.0;"/><line style="stroke:#181818;stroke-width:1.0;" x1="113.3368" x2="113.3368" y1="255.9063" y2="289.875"/><polygon fill="#181818" points="109.3368,279.875,113.3368,289.875,117.3368,279.875,113.3368,283.875" style="stroke:#181818;stroke-width:1.0;"/><line style="stroke:#181818;stroke-width:1.0;" x1="356.8052" x2="356.8052" y1="268.9063" y2="302.875"/><polygon fill="#181818" points="352.8052,292.875,356.8052,302.875,360.8052,292.875,356.8052,296.875" style="stroke:#181818;stroke-width:1.0;"/><line style="stroke:#181818;stroke-width:1.0;" x1="356.8052" x2="356.8052" y1="336.8438" y2="370.8125"/><polygon fill="#181818" points="352.8052,360.8125,356.8052,370.8125,360.8052,360.8125,356.8052,364.8125" style="stroke:#181818;stroke-width:1.0;"/><line style="stroke:#181818;stroke-width:1.0;" x1="356.8052" x2="356.8052" y1="404.7813" y2="438.75"/><polygon fill="#181818" points="352.8052,428.75,356.8052,438.75,360.8052,428.75,356.8052,432.75" style="stroke:#181818;stroke-width:1.0;"/><line style="stroke:#181818;stroke-width:1.0;" x1="356.8052" x2="356.8052" y1="472.7188" y2="507.7188"/><polygon fill="#181818" points="352.8052,497.7188,356.8052,507.7188,360.8052,497.7188,356.8052,501.7188" style="stroke:#181818;stroke-width:1.0;"/><line style="stroke:#181818;stroke-width:1.0;" x1="586.2862" x2="586.2862" y1="268.9063" y2="302.875"/><polygon fill="#181818" points="582.2862,292.875,586.2862,302.875,590.2862,292.875,586.2862,296.875" style="stroke:#181818;stroke-width:1.0;"/><line style="stroke:#181818;stroke-width:1.0;" x1="586.2862" x2="586.2862" y1="336.8438" y2="370.8125"/><polygon fill="#181818" points="582.2862,360.8125,586.2862,370.8125,590.2862,360.8125,586.2862,364.8125" style="stroke:#181818;stroke-width:1.0;"/><line style="stroke:#181818;stroke-width:1.0;" x1="434.6384" x2="356.8052" y1="212.9375" y2="212.9375"/><line style="stroke:#181818;stroke-width:1.0;" x1="356.8052" x2="356.8052" y1="212.9375" y2="234.9375"/><polygon fill="#181818" points="352.8052,224.9375,356.8052,234.9375,360.8052,224.9375,356.8052,228.9375" style="stroke:#181818;stroke-width:1.0;"/><line style="stroke:#181818;stroke-width:1.0;" x1="508.453" x2="586.2862" y1="212.9375" y2="212.9375"/><line style="stroke:#181818;stroke-width:1.0;" x1="586.2862" x2="586.2862" y1="212.9375" y2="234.9375"/><polygon fill="#181818" points="582.2862,224.9375,586.2862,234.9375,590.2862,224.9375,586.2862,228.9375" style="stroke:#181818;stroke-width:1.0;"/><line style="stroke:#181818;stroke-width:1.0;" x1="471.5457" x2="471.5457" y1="165.9375" y2="200.9375"/><polygon fill="#181818" points="467.5457,190.9375,471.5457,200.9375,475.5457,190.9375,471.5457,194.9375" style="stroke:#181818;stroke-width:1.0;"/><line style="stroke:#181818;stroke-width:1.0;" x1="746.4042" x2="746.4042" y1="254.9375" y2="288.9063"/><polygon fill="#181818" points="742.4042,278.9063,746.4042,288.9063,750.4042,278.9063,746.4042,282.9063" style="stroke:#181818;stroke-width:1.0;"/><line style="stroke:#181818;stroke-width:1.0;" x1="980.7795" x2="980.7795" y1="254.9375" y2="288.9063"/><polygon fill="#181818" points="976.7795,278.9063,980.7795,288.9063,984.7795,278.9063,980.7795,282.9063" style="stroke:#181818;stroke-width:1.0;"/><line style="stroke:#181818;stroke-width:1.0;" x1="980.7795" x2="980.7795" y1="322.875" y2="356.8438"/><polygon fill="#181818" points="976.7795,346.8438,980.7795,356.8438,984.7795,346.8438,980.7795,350.8438" style="stroke:#181818;stroke-width:1.0;"/><line style="stroke:#181818;stroke-width:1.0;" x1="897.3562" x2="897.3562" y1="492.75" y2="527.75"/><polygon fill="#181818" points="893.3562,517.75,897.3562,527.75,901.3562,517.75,897.3562,521.75" style="stroke:#181818;stroke-width:1.0;"/><line style="stroke:#181818;stroke-width:1.0;" x1="897.3562" x2="897.3562" y1="561.7188" y2="581.7188"/><polygon fill="#181818" points="893.3562,571.7188,897.3562,581.7188,901.3562,571.7188,897.3562,575.7188" style="stroke:#181818;stroke-width:1.0;"/><line style="stroke:#181818;stroke-width:1.0;" x1="1064.2028" x2="1064.2028" y1="492.75" y2="527.75"/><polygon fill="#181818" points="1060.2028,517.75,1064.2028,527.75,1068.2028,517.75,1064.2028,521.75" style="stroke:#181818;stroke-width:1.0;"/><line style="stroke:#181818;stroke-width:1.0;" x1="1064.2028" x2="1064.2028" y1="561.7188" y2="581.7188"/><polygon fill="#181818" points="1060.2028,571.7188,1064.2028,581.7188,1068.2028,571.7188,1064.2028,575.7188" style="stroke:#181818;stroke-width:1.0;"/><line style="stroke:#181818;stroke-width:1.0;" x1="938.8122" x2="897.3562" y1="436.7813" y2="436.7813"/><line style="stroke:#181818;stroke-width:1.0;" x1="897.3562" x2="897.3562" y1="436.7813" y2="458.7813"/><polygon fill="#181818" points="893.3562,448.7813,897.3562,458.7813,901.3562,448.7813,897.3562,452.7813" style="stroke:#181818;stroke-width:1.0;"/><line style="stroke:#181818;stroke-width:1.0;" x1="1022.7467" x2="1064.2028" y1="436.7813" y2="436.7813"/><line style="stroke:#181818;stroke-width:1.0;" x1="1064.2028" x2="1064.2028" y1="436.7813" y2="458.7813"/><polygon fill="#181818" points="1060.2028,448.7813,1064.2028,458.7813,1068.2028,448.7813,1064.2028,452.7813" style="stroke:#181818;stroke-width:1.0;"/><line style="stroke:#181818;stroke-width:1.0;" x1="980.7795" x2="980.7795" y1="390.8125" y2="424.7813"/><polygon fill="#181818" points="976.7795,414.7813,980.7795,424.7813,984.7795,414.7813,980.7795,418.7813" style="stroke:#181818;stroke-width:1.0;"/><line style="stroke:#181818;stroke-width:1.0;" x1="794.1364" x2="746.4042" y1="198.9688" y2="198.9688"/><line style="stroke:#181818;stroke-width:1.0;" x1="746.4042" x2="746.4042" y1="198.9688" y2="220.9688"/><polygon fill="#181818" points="742.4042,210.9688,746.4042,220.9688,750.4042,210.9688,746.4042,214.9688" style="stroke:#181818;stroke-width:1.0;"/><line style="stroke:#181818;stroke-width:1.0;" x1="933.0473" x2="980.7795" y1="198.9688" y2="198.9688"/><line style="stroke:#181818;stroke-width:1.0;" x1="980.7795" x2="980.7795" y1="198.9688" y2="220.9688"/><polygon fill="#181818" points="976.7795,210.9688,980.7795,220.9688,984.7795,210.9688,980.7795,214.9688" style="stroke:#181818;stroke-width:1.0;"/><line style="stroke:#181818;stroke-width:1.0;" x1="863.5918" x2="863.5918" y1="151.9688" y2="186.9688"/><polygon fill="#181818" points="859.5918,176.9688,863.5918,186.9688,867.5918,176.9688,863.5918,180.9688" style="stroke:#181818;stroke-width:1.0;"/><line style="stroke:#181818;stroke-width:1.0;" x1="543.5771" x2="471.5457" y1="96" y2="96"/><line style="stroke:#181818;stroke-width:1.0;" x1="471.5457" x2="471.5457" y1="96" y2="118"/><polygon fill="#181818" points="467.5457,108,471.5457,118,475.5457,108,471.5457,112" style="stroke:#181818;stroke-width:1.0;"/><line style="stroke:#181818;stroke-width:1.0;" x1="791.5604" x2="863.5918" y1="96" y2="96"/><line style="stroke:#181818;stroke-width:1.0;" x1="863.5918" x2="863.5918" y1="96" y2="118"/><polygon fill="#181818" points="859.5918,108,863.5918,118,867.5918,108,863.5918,112" style="stroke:#181818;stroke-width:1.0;"/><line style="stroke:#181818;stroke-width:1.0;" x1="256.5211" x2="113.3368" y1="62" y2="62"/><line style="stroke:#181818;stroke-width:1.0;" x1="113.3368" x2="113.3368" y1="62" y2="84"/><polygon fill="#181818" points="109.3368,74,113.3368,84,117.3368,74,113.3368,78" style="stroke:#181818;stroke-width:1.0;"/><line style="stroke:#181818;stroke-width:1.0;" x1="494.3844" x2="667.5688" y1="62" y2="62"/><line style="stroke:#181818;stroke-width:1.0;" x1="667.5688" x2="667.5688" y1="62" y2="84"/><polygon fill="#181818" points="663.5688,74,667.5688,84,671.5688,74,667.5688,78" style="stroke:#181818;stroke-width:1.0;"/><line style="stroke:#181818;stroke-width:1.0;" x1="375.4528" x2="375.4528" y1="30" y2="50"/><polygon fill="#181818" points="371.4528,40,375.4528,50,379.4528,40,375.4528,44" style="stroke:#181818;stroke-width:1.0;"/><!--SRC=[bLJBQXfH6DxFK_oxnaMWT1aNHToqK4WNpGD8rIXDDKH3k_Go2LQ56CWaevsHIQlL54idNeY1z8Nc_EST-f_npCKw2NIZXvd_yjtEF8Ezv7PoDx7txjNsynU0LxOpjO7D5ivY0im-0sUcegNHauep_QEKFkGBXwcZr4SevLBfugTyOH-ogODIHYcLKqTbHSbdOGjh4-pTOB_Zs1L0SmwyEcVc0vtmSicRIpHrkOYDsi2rELe6rtJMlA26bp4evp85cg8tOWh0JiG0G7M0zxgOmtKL-nCFzsfMNBIzBwOpd-6Wk5yyBgEf0hO6_F8BhS4HWTAQQBRTkgHRbtpp6jYruTmHE1flM5GbNfVAnKCbG_m8ZwQoLWFrWK2rGPFzFC6MWLOLZGSQ1AmrOCEbL4y-GqlbNVrHfWJ6MTfuFGyZgLTvtS0kBPZCdNc5cfrfsosE0auec7M_vNFF5sAIUDpjSM6RI_nXaeItpconYI4iYH2OYaWEZuWGijvOfxMAHjphTkmkcXLucnJTKeO0gnJjgiFELDa9GhNUZJ_WQSF5UkasMXNi3yDz_AjdD6r0rLYhxazMoxq6rrjn-CVV7S2xCPwsWUaTSieTs1xxwWWeuaByNc9NPT_RhhFVJkZa8o7M50Rfzofy1l7bcWNO80hzXapVEen2EfzLDk38QAp8iexXNHrQco0zUnSu_HMu6sI1drgyQWinoJ_U6tFDY0mTpVRd08vKFonFAKHff96UGdIDYNxKE7lCMkF08R90fazhi1hPV6wGDF6Du7bVdTt4SJa7VfjNwCOucFLeaYDa0yU-nPOL3rM4ht40tVFGTIuezoNvpzX4o28lT-XhuyMdfkFWd18SC2VO5TOSHkEGkGaboFrtV_y2]--></g></svg>