<svg xmlns="http://www.w3.org/2000/svg" xmlns:xlink="http://www.w3.org/1999/xlink" contentStyleType="text/css" height="426px" preserveAspectRatio="none" style="width:2438px;height:426px;background:#FFFFFF;" version="1.1" viewBox="0 0 2438 426" width="2438px" zoomAndPan="magnify"><defs/><g><!--cluster ? ????? ??--><g id="cluster_&#51060; &#53364;&#46972;&#51060;&#50616;&#53944; &#49444;&#52824;"><rect fill="none" height="176" rx="2.5" ry="2.5" style="stroke:#181818;stroke-width:1.0;" width="2340.54" x="91.64" y="153.13"/><text fill="#000000" font-family="sans-serif" font-size="14" font-weight="bold" lengthAdjust="spacing" textLength="112.7876" x="1205.5162" y="168.1251">&#51060; &#53364;&#46972;&#51060;&#50616;&#53944; &#49444;&#52824;</text></g><g id="elem_request"><ellipse cx="1407.3309" cy="278.1302" fill="#F1F1F1" rx="84.9009" ry="19.3802" style="stroke:#181818;stroke-width:0.5;"/><text fill="#000000" font-family="sans-serif" font-size="14" lengthAdjust="spacing" textLength="130.0962" x="1342.2828" y="280.9769">&#51200;&#51109;&#46108; &#50672;&#44208;&#47196; AI &#50836;&#52397;</text></g><g id="elem_reauthGuide"><ellipse cx="1809.13" cy="278.126" fill="#F1F1F1" rx="72.33" ry="16.866" style="stroke:#181818;stroke-width:0.5;"/><text fill="#000000" font-family="sans-serif" font-size="14" lengthAdjust="spacing" textLength="99.06" x="1756.6" y="281.8736">&#51116;&#51064;&#51613; &#50504;&#45236; &#54364;&#49884;</text></g><g id="elem_reauthorize"><ellipse cx="2055.2321" cy="278.1344" fill="#F1F1F1" rx="112.7721" ry="24.9544" style="stroke:#181818;stroke-width:0.5;"/><text fill="#000000" font-family="sans-serif" font-size="14" lengthAdjust="spacing" textLength="191.8626" x="1959.3008" y="280.9811">Codex CLI &#44228;&#51221; OAuth &#51116;&#51064;&#51613;</text></g><g id="elem_retry"><ellipse cx="2348.5875" cy="278.1275" fill="#F1F1F1" rx="67.5875" ry="15.9175" style="stroke:#181818;stroke-width:0.5;"/><text fill="#000000" font-family="sans-serif" font-size="14" lengthAdjust="spacing" textLength="86.1801" x="2302.4975" y="281.8751">&#50836;&#52397; &#45796;&#49884; &#49884;&#46020;</text></g><g id="elem_disconnect"><ellipse cx="891.033" cy="210.1346" fill="#F1F1F1" rx="95.923" ry="21.5846" style="stroke:#181818;stroke-width:0.5;"/><text fill="#000000" font-family="sans-serif" font-size="14" lengthAdjust="spacing" textLength="155.03" x="813.518" y="212.9813">&#51060; &#53364;&#46972;&#51060;&#50616;&#53944;&#51032; &#50672;&#44208; &#54644;&#51228;</text></g><g id="elem_switchAccount"><ellipse cx="197.8208" cy="282.1262" fill="#F1F1F1" rx="90.1808" ry="20.4362" style="stroke:#181818;stroke-width:0.5;"/><text fill="#000000" font-family="sans-serif" font-size="14" lengthAdjust="spacing" textLength="142.15" x="126.7457" y="284.9728">&#45796;&#47480; &#44228;&#51221;&#51004;&#47196; &#51204;&#54872; &#49440;&#53469;</text></g><g id="elem_login"><ellipse cx="490.6146" cy="282.1309" fill="#F1F1F1" rx="141.6046" ry="30.7209" style="stroke:#181818;stroke-width:0.5;"/><text fill="#000000" font-family="sans-serif" font-size="14" lengthAdjust="spacing" textLength="252.9626" x="364.1332" y="284.9776">&#44592;&#51316; &#47196;&#44536;&#51064;&#44284; &#47924;&#44288;&#54616;&#44172; codex login &#49892;&#54665;</text></g><g id="elem_save"><ellipse cx="891.0269" cy="290.1274" fill="#F1F1F1" rx="104.4369" ry="23.2874" style="stroke:#181818;stroke-width:0.5;"/><text fill="#000000" font-family="sans-serif" font-size="14" lengthAdjust="spacing" textLength="173.7905" x="804.1317" y="292.9741">Codex CLI&#51032; &#44277;&#50976; &#44228;&#51221; &#48320;&#44221;</text></g><!--entity user--><g id="elem_user"><ellipse cx="25.3199" cy="252.48" fill="#F1F1F1" rx="8" ry="8" style="stroke:#181818;stroke-width:0.5;"/><path d="M25.3199,260.48 L25.3199,287.48 M12.3199,268.48 L38.3199,268.48 M25.3199,287.48 L12.3199,302.48 M25.3199,287.48 L38.3199,302.48 " fill="none" style="stroke:#181818;stroke-width:0.5;"/><text fill="#000000" font-family="sans-serif" font-size="14" lengthAdjust="spacing" textLength="38.6398" x="6" y="316.9751">&#49324;&#50857;&#51088;</text></g><!--entity cli--><g id="elem_cli"><ellipse cx="1809.1301" cy="353.48" fill="#F1F1F1" rx="8" ry="8" style="stroke:#181818;stroke-width:0.5;"/><path d="M1809.1301,361.48 L1809.1301,388.48 M1796.1301,369.48 L1822.1301,369.48 M1809.1301,388.48 L1796.1301,403.48 M1809.1301,388.48 L1822.1301,403.48 " fill="none" style="stroke:#181818;stroke-width:0.5;"/><text fill="#000000" font-family="sans-serif" font-size="14" lengthAdjust="spacing" textLength="70.2803" x="1773.99" y="417.9751">Codex CLI</text></g><g id="elem_GMN24"><path d="M1278.86,97 L1278.86,137.2656 A0,0 0 0 0 1278.86,137.2656 L1403.33,137.2656 L1407.33,258.32 L1411.33,137.2656 L1535.8017,137.2656 A0,0 0 0 0 1535.8017,137.2656 L1535.8017,107 L1525.8017,97 L1278.86,97 A0,0 0 0 0 1278.86,97 " fill="#FEFFDD" style="stroke:#181818;stroke-width:0.5;"/><path d="M1525.8017,97 L1525.8017,107 L1535.8017,107 L1525.8017,97 " fill="#FEFFDD" style="stroke:#181818;stroke-width:0.5;"/><text fill="#000000" font-family="sans-serif" font-size="13" lengthAdjust="spacing" textLength="235.9417" x="1284.86" y="114.0669">&#53664;&#53360;&#51060; &#47924;&#54952;&#54616;&#44144;&#45208; &#47564;&#47308;&#46108; &#50836;&#52397;&#51008; &#52264;&#45800;&#54620;&#45796;.</text><text fill="#000000" font-family="sans-serif" font-size="13" lengthAdjust="spacing" textLength="201.1017" x="1284.86" y="129.1997">&#51116;&#51064;&#51613;&#54620; &#46244; &#49324;&#50857;&#51088;&#44032; &#45796;&#49884; &#49884;&#46020;&#54620;&#45796;.</text></g><g id="elem_GMN27"><path d="M774.52,81.43 L774.52,136.8284 A0,0 0 0 0 774.52,136.8284 L887.03,136.8284 L891.03,188.43 L895.03,136.8284 L1007.5417,136.8284 A0,0 0 0 0 1007.5417,136.8284 L1007.5417,91.43 L997.5417,81.43 L774.52,81.43 A0,0 0 0 0 774.52,81.43 " fill="#FEFFDD" style="stroke:#181818;stroke-width:0.5;"/><path d="M997.5417,81.43 L997.5417,91.43 L1007.5417,91.43 L997.5417,81.43 " fill="#FEFFDD" style="stroke:#181818;stroke-width:0.5;"/><text fill="#000000" font-family="sans-serif" font-size="13" lengthAdjust="spacing" textLength="212.0217" x="780.52" y="98.4969">&#51060; &#53364;&#46972;&#51060;&#50616;&#53944; &#49444;&#52824;&#51032; &#50672;&#44208;&#47564; &#54644;&#51228;&#54620;&#45796;.</text><text fill="#000000" font-family="sans-serif" font-size="13" lengthAdjust="spacing" textLength="192.3612" x="780.52" y="113.6297">codex logout&#51008; &#49892;&#54665;&#54616;&#51648; &#50506;&#51004;&#47728;,</text><text fill="#000000" font-family="sans-serif" font-size="13" lengthAdjust="spacing" textLength="173.3373" x="780.52" y="128.7625">Codex CLI &#47196;&#44536;&#51064;&#51008; &#50976;&#51648;&#46108;&#45796;.</text></g><g id="elem_GMN30"><path d="M745.21,6 L745.21,46.2656 L1036.8546,46.2656 L1036.8546,16 L1026.8546,6 L745.21,6 " fill="#FEFFDD" style="stroke:#181818;stroke-width:0.5;"/><path d="M1026.8546,6 L1026.8546,16 L1036.8546,16 L1026.8546,6 " fill="#FEFFDD" style="stroke:#181818;stroke-width:1.0;"/><text fill="#000000" font-family="sans-serif" font-size="13" lengthAdjust="spacing" textLength="270.6446" x="751.21" y="23.0669">Codex CLI &#44228;&#51221;&#51008; &#44057;&#51008; PC&#51032; &#45796;&#47480; CLI &#49324;&#50857;&#50640;&#46020;</text><text fill="#000000" font-family="sans-serif" font-size="13" lengthAdjust="spacing" textLength="212.0217" x="751.21" y="38.1997">&#44277;&#50976;&#46104;&#48064;&#47196; &#44228;&#51221; &#48320;&#44221;&#51032; &#50689;&#54693;&#51012; &#48155;&#45716;&#45796;.</text></g><!--link user to request--><g id="link_user_request"><path d="M44.79,298.33 C74.59,322.74 136.1,366.13 196.82,366.13 C196.82,366.13 196.82,366.13 892.03,366.13 C1062.56,366.13 1254.5997,320.1223 1347.3697,294.9323 " fill="none" id="user-to-request" style="stroke:#181818;stroke-width:1.0;"/><polygon fill="#181818" points="1353.16,293.36,1343.4263,291.8582,1348.3347,294.6702,1345.5227,299.5786,1353.16,293.36" style="stroke:#181818;stroke-width:1.0;"/></g><!--link request to cli--><g id="link_request_cli"><path d="M1464.34,292.84 C1548.36,314.91 1698.7467,354.4063 1767.8767,372.5563 " fill="none" id="request-to-cli" style="stroke:#181818;stroke-width:1.0;"/><polygon fill="#181818" points="1773.68,374.08,1765.9908,367.9256,1768.8439,372.8103,1763.9593,375.6634,1773.68,374.08" style="stroke:#181818;stroke-width:1.0;"/></g><!--link request to reauthGuide--><g id="link_request_reauthGuide"><path d="M1492.62,278.13 C1564.9,278.13 1661.91,278.13 1730.32,278.13 " fill="none" id="request-to-reauthGuide" style="stroke:#181818;stroke-width:1.0;"/><polygon fill="#181818" points="1736.32,278.13,1727.32,274.13,1731.32,278.13,1727.32,282.13,1736.32,278.13" style="stroke:#181818;stroke-width:1.0;"/><text fill="#000000" font-family="sans-serif" font-size="13" lengthAdjust="spacing" textLength="139.8247" x="1566.8" y="274.1969">&#53664;&#53360;&#51060; &#47924;&#54952;&#54616;&#44144;&#45208; &#47564;&#47308;&#46120;</text></g><!--link reauthGuide to reauthorize--><g id="link_reauthGuide_reauthorize"><path d="M1881.72,278.13 C1900.71,278.13 1915.68,278.13 1936.26,278.13 " fill="none" id="reauthGuide-to-reauthorize" style="stroke:#181818;stroke-width:1.0;"/><polygon fill="#181818" points="1942.26,278.13,1933.26,274.13,1937.26,278.13,1933.26,282.13,1942.26,278.13" style="stroke:#181818;stroke-width:1.0;"/></g><!--link reauthorize to retry--><g id="link_reauthorize_retry"><path d="M2168.46,278.13 C2206.29,278.13 2241.31,278.13 2274.53,278.13 " fill="none" id="reauthorize-to-retry" style="stroke:#181818;stroke-width:1.0;"/><polygon fill="#181818" points="2280.53,278.13,2271.53,274.13,2275.53,278.13,2271.53,282.13,2280.53,278.13" style="stroke:#181818;stroke-width:1.0;"/><text fill="#000000" font-family="sans-serif" font-size="13" lengthAdjust="spacing" textLength="51.9724" x="2199" y="274.1969">&#51064;&#51613; &#49457;&#44277;</text></g><!--link user to disconnect--><g id="link_user_disconnect"><path d="M45.09,265.89 C55.67,257.76 69.56,248.7 83.64,244.13 C336.71,162.01 652.0257,182.3467 801.1057,198.6767 " fill="none" id="user-to-disconnect" style="stroke:#181818;stroke-width:1.0;"/><polygon fill="#181818" points="807.07,199.33,798.5591,194.3738,802.0997,198.7856,797.688,202.3262,807.07,199.33" style="stroke:#181818;stroke-width:1.0;"/></g><!--link user to switchAccount--><g id="link_user_switchAccount"><path d="M44.89,282.13 C60.34,282.13 77.56,282.13 101.22,282.13 " fill="none" id="user-to-switchAccount" style="stroke:#181818;stroke-width:1.0;"/><polygon fill="#181818" points="107.22,282.13,98.22,278.13,102.22,282.13,98.22,286.13,107.22,282.13" style="stroke:#181818;stroke-width:1.0;"/></g><!--link disconnect to request--><g id="link_disconnect_request"><path d="M974.59,220.97 C1046.92,230.47 1154.86,244.67 1248.86,257.13 C1276.47,260.79 1300.8627,264.0366 1327.4727,267.5866 " fill="none" id="disconnect-to-request" style="stroke:#181818;stroke-width:1.0;"/><polygon fill="#181818" points="1333.42,268.38,1325.028,263.225,1328.4639,267.7188,1323.9701,271.1547,1333.42,268.38" style="stroke:#181818;stroke-width:1.0;"/><text fill="#000000" font-family="sans-serif" font-size="13" lengthAdjust="spacing" textLength="180.274" x="1067.86" y="230.0169">&#51060;&#54980; &#50836;&#52397;&#50640; &#44592;&#51316; &#50672;&#44208; &#49324;&#50857; &#50504; &#54632;</text></g><!--link switchAccount to login--><g id="link_switchAccount_login"><path d="M288.44,282.13 C307.55,282.13 322.17,282.13 342.67,282.13 " fill="none" id="switchAccount-to-login" style="stroke:#181818;stroke-width:1.0;"/><polygon fill="#181818" points="348.67,282.13,339.67,278.13,343.67,282.13,339.67,286.13,348.67,282.13" style="stroke:#181818;stroke-width:1.0;"/></g><!--link login to save--><g id="link_login_save"><path d="M632.08,284.95 C682.93,285.97 733.4012,286.9903 780.5112,287.9303 " fill="none" id="login-to-save" style="stroke:#181818;stroke-width:1.0;"/><polygon fill="#181818" points="786.51,288.05,777.5916,283.8713,781.511,287.9503,777.432,291.8697,786.51,288.05" style="stroke:#181818;stroke-width:1.0;"/><text fill="#000000" font-family="sans-serif" font-size="13" lengthAdjust="spacing" textLength="51.9724" x="663.21" y="281.7169">&#51064;&#51613; &#49457;&#44277;</text></g><!--link save to request--><g id="link_save_request"><path d="M995.18,287.72 C1091.36,285.48 1227.0416,282.3095 1316.4616,280.2295 " fill="none" id="save-to-request" style="stroke:#181818;stroke-width:1.0;"/><polygon fill="#181818" points="1322.46,280.09,1313.3694,276.3004,1317.4614,280.2063,1313.5555,284.2982,1322.46,280.09" style="stroke:#181818;stroke-width:1.0;"/><text fill="#000000" font-family="sans-serif" font-size="13" lengthAdjust="spacing" textLength="131.997" x="1092.36" y="278.0769">&#48148;&#45072; &#44228;&#51221;&#51004;&#47196; &#51060;&#54980; &#50836;&#52397;</text></g><!--link save to GMN30--><g id="link_save_GMN30"><path d="M788.26,285.65 C750.71,278.37 711.82,262.98 688.71,231.63 C649.15,177.97 649.15,135.29 688.71,81.63 C702.81,62.5 722.87,49.52 744.93,40.79 " fill="none" id="save-GMN30" style="stroke:#181818;stroke-width:1.0;stroke-dasharray:7.0,7.0;"/></g><!--SRC=[XLJBRjDG4DtxAqRTi248iMI156K1bIgL1Vq0uxY9HUeBjaDv2Caj5eAsKWrAshIrArUaD9M2S1DN1AdyaE_rFp3tsl63ybXOjg_dd3bpPiOtOALHQopNLnuzgDs-0sm_Z2SXqEbbV3a66kv2F7LOqCSJEvxyb3hggWKM0KDhjIreQeQgM1hH9VE9fZ-L3NaDpBRS9EkQte9LkMEgaYGh5Z5WWMsEsU4vEtONG3QXQwh6_4k3DDKNq5XQ55-KZYPnLbblTLI4-H4a6n7rh_29xSsIhHamPyX-31RWjGISI95D7XZOxFYKkbvM0ptneBu8xB379by5iw4-wwgcLG4TZva_OrzyOFttT1DJVVJOjfU5orshVR-hDTKo95SxTsQvZc6GCvMmnD1ULR2f6A3RGqm2UD5T9uktZ9ULoEjbCtymRq_IZrYGgcngfa9q7Gqhmp43FPrb2fbtnSrWWPCS88KJ96zJbUQwPYdjkgAGhbw1nxEGdKI0gFWxvft5qokWuoYExAG_Y2Sxe0WJEgIbwLZ6CDdx80Z5mH_DukBZwINpWkf0fJhavwhqHfBuK42jTY_lL7ONP-bS5E-bzi1TIDu5oKR8NKEToU68wxm8wUO0wDaE_Rn3tP5KHXGCQPDApzatR0ZopgV3kK3rXS2Iw_bPrSqYeboHO8oI8oURIxRlGcPsrjfqJVWuOfT7KeLKCAKUfzQBj6ZUDQ7Yi9gNXZrgkx-DH5cB9Ed4Kk4niIoo1cIrj2__TzUR5-JRmC8HtSOO3wVm5gBprS0Ze9-6aFyAuj2kBiCSfEfDu6gkQQgC-z__3SMkeC1iNGf1-VIIhYK4Ymd6ejWPllItk3lduKsCB9OztmK1y08CnQh_BLRCTPaaCnyPul20tnuskD9iMtb4Pis-YsOWD5qPwWxeDvithB8xeiZ1Hh9todm7-tj4jteLGRy0]--></g></svg>