<svg xmlns="http://www.w3.org/2000/svg" xmlns:xlink="http://www.w3.org/1999/xlink" contentStyleType="text/css" height="679px" preserveAspectRatio="none" style="width:1099px;height:679px;background:#FFFFFF;" version="1.1" viewBox="0 0 1099 679" width="1099px" zoomAndPan="magnify"><title>&#47605; &#44201;&#51088; &#47582;&#52628;&#44592; &#8212; &#51200;&#51109; &#49345;&#53468;</title><defs/><g><text fill="#000000" font-family="sans-serif" font-size="14" font-weight="bold" lengthAdjust="spacing" textLength="167.1696" x="459.1617" y="22.9951">&#47605; &#44201;&#51088; &#47582;&#52628;&#44592; &#8212; &#51200;&#51109; &#49345;&#53468;</text><ellipse cx="647.1335" cy="53.2969" fill="#222222" rx="10" ry="10" style="stroke:#222222;stroke-width:1.0;"/><g id="&#54200;&#51665;"><rect fill="#F1F1F1" height="50" rx="12.5" ry="12.5" style="stroke:#181818;stroke-width:0.5;" width="50" x="622.1335" y="142.1269"/><line style="stroke:#181818;stroke-width:0.5;" x1="622.1335" x2="672.1335" y1="168.4237" y2="168.4237"/><text fill="#000000" font-family="sans-serif" font-size="14" lengthAdjust="spacing" textLength="25.7599" x="634.2536" y="160.122">&#54200;&#51665;</text></g><g id="&#51200;&#51109;&#51473;"><rect fill="#F1F1F1" height="50" rx="12.5" ry="12.5" style="stroke:#181818;stroke-width:0.5;" width="58.6398" x="422.8135" y="286.9569"/><line style="stroke:#181818;stroke-width:0.5;" x1="422.8135" x2="481.4534" y1="313.2537" y2="313.2537"/><text fill="#000000" font-family="sans-serif" font-size="14" lengthAdjust="spacing" textLength="38.6398" x="432.8135" y="304.952">&#51200;&#51109;&#51473;</text></g><ellipse cx="26.1335" cy="662.9569" fill="none" rx="11" ry="11" style="stroke:#222222;stroke-width:1.0;"/><ellipse cx="26.1335" cy="662.9569" fill="#222222" rx="6" ry="6" style="stroke:#222222;stroke-width:1.0;"/><g id="&#54869;&#51064;&#46120;"><rect fill="#F1F1F1" height="50" rx="12.5" ry="12.5" style="stroke:#181818;stroke-width:0.5;" width="58.6398" x="101.8135" y="540.9569"/><line style="stroke:#181818;stroke-width:0.5;" x1="101.8135" x2="160.4534" y1="567.2538" y2="567.2538"/><text fill="#000000" font-family="sans-serif" font-size="14" lengthAdjust="spacing" textLength="38.6398" x="111.8135" y="558.952">&#54869;&#51064;&#46120;</text></g><g id="&#44208;&#44284;&#48520;&#47749;"><rect fill="#F1F1F1" height="50" rx="12.5" ry="12.5" style="stroke:#181818;stroke-width:0.5;" width="71.5198" x="293.3735" y="413.9569"/><line style="stroke:#181818;stroke-width:0.5;" x1="293.3735" x2="364.8933" y1="440.2537" y2="440.2537"/><text fill="#000000" font-family="sans-serif" font-size="14" lengthAdjust="spacing" textLength="51.5198" x="303.3735" y="431.952">&#44208;&#44284;&#48520;&#47749;</text></g><g id="&#50724;&#47448;"><rect fill="#F1F1F1" height="50" rx="12.5" ry="12.5" style="stroke:#181818;stroke-width:0.5;" width="50" x="552.1335" y="540.9569"/><line style="stroke:#181818;stroke-width:0.5;" x1="552.1335" x2="602.1335" y1="567.2538" y2="567.2538"/><text fill="#000000" font-family="sans-serif" font-size="14" lengthAdjust="spacing" textLength="25.7599" x="564.2536" y="558.952">&#50724;&#47448;</text></g><g id="&#52649;&#46028;"><rect fill="#F1F1F1" height="50" rx="12.5" ry="12.5" style="stroke:#181818;stroke-width:0.5;" width="50" x="757.1335" y="413.9569"/><line style="stroke:#181818;stroke-width:0.5;" x1="757.1335" x2="807.1335" y1="440.2537" y2="440.2537"/><text fill="#000000" font-family="sans-serif" font-size="14" lengthAdjust="spacing" textLength="25.7599" x="769.2536" y="431.952">&#52649;&#46028;</text></g><g id="&#52572;&#49888;&#49345;&#53468;&#54869;&#51064;"><rect fill="#F1F1F1" height="50" rx="12.5" ry="12.5" style="stroke:#181818;stroke-width:0.5;" width="97.2797" x="807.4935" y="540.9569"/><line style="stroke:#181818;stroke-width:0.5;" x1="807.4935" x2="904.7732" y1="567.2538" y2="567.2538"/><text fill="#000000" font-family="sans-serif" font-size="14" lengthAdjust="spacing" textLength="77.2797" x="817.4935" y="558.952">&#52572;&#49888;&#49345;&#53468;&#54869;&#51064;</text></g><g id="elem_GMN26"><path d="M706.8035,124.2969 L706.8035,163.1269 L672.3335,167.1269 L706.8035,171.1269 L706.8035,209.9609 A0,0 0 0 0 706.8035,209.9609 L931.4699,209.9609 A0,0 0 0 0 931.4699,209.9609 L931.4699,134.2969 L921.4699,124.2969 L706.8035,124.2969 A0,0 0 0 0 706.8035,124.2969 " fill="#FEFFDD" style="stroke:#181818;stroke-width:0.5;"/><path d="M921.4699,124.2969 L921.4699,134.2969 L931.4699,134.2969 L921.4699,124.2969 " fill="#FEFFDD" style="stroke:#181818;stroke-width:0.5;"/><text fill="#000000" font-family="sans-serif" font-size="13" lengthAdjust="spacing" textLength="203.6664" x="712.8035" y="141.3638">R1&#183;R2 / UC-1: 3&#45800;&#44228; &#54200;&#51665;&#44284; &#54869;&#45824;&#44221;</text><text fill="#000000" font-family="sans-serif" font-size="13" lengthAdjust="spacing" textLength="197.8794" x="712.8035" y="156.4966">R3 / UC-2: &#51200;&#51109;&#46108; &#51221;&#47148;&#50640;&#49436; &#51116;&#54200;&#51665;</text><text fill="#000000" font-family="sans-serif" font-size="13" lengthAdjust="spacing" textLength="163.7269" x="712.8035" y="171.6294">R4 / B2: &#44172;&#51076; &#49345;&#53468; &#50416;&#44592; &#50630;&#51020;</text><text fill="#000000" font-family="sans-serif" font-size="13" lengthAdjust="spacing" textLength="161.9993" x="712.8035" y="186.7622">R5 / UC-3: &#49892;&#54056;&#183;&#51116;&#49884;&#46020;&#183;&#52712;&#49548;</text><text fill="#000000" font-family="sans-serif" font-size="13" lengthAdjust="spacing" textLength="175.6869" x="712.8035" y="201.895">R6 / B4: &#44277;&#44060; &#51060;&#48120;&#51648; &#48276;&#50948; &#50976;&#51648;</text></g><!--link *start* to ??--><g id="link_*start*_&#54200;&#51665;"><path d="M647.1335,63.4469 C647.1335,80.4469 647.1335,111.4269 647.1335,136.0469 " fill="none" id="*start*-to-&#54200;&#51665;" style="stroke:#181818;stroke-width:1.0;"/><polygon fill="#181818" points="647.1335,142.0469,651.1335,133.0469,647.1335,137.0469,643.1335,133.0469,647.1335,142.0469" style="stroke:#181818;stroke-width:1.0;"/></g><!--link ?? to ???--><g id="link_&#54200;&#51665;_&#51200;&#51109;&#51473;"><path d="M642.1635,192.3869 C636.9035,212.2669 626.7035,239.8269 608.1335,256.9569 C572.6435,289.7069 522.2191,301.8596 487.8491,306.9396 " fill="none" id="&#54200;&#51665;-to-&#51200;&#51109;&#51473;" style="stroke:#181818;stroke-width:1.0;"/><polygon fill="#181818" points="481.9135,307.8169,491.4017,310.458,486.8598,307.0858,490.2319,302.5439,481.9135,307.8169" style="stroke:#181818;stroke-width:1.0;"/><text fill="#000000" font-family="sans-serif" font-size="13" lengthAdjust="spacing" textLength="139.0876" x="622.5435" y="253.0238">&#51201;&#50857;(commandId &#44256;&#51221;)</text></g><!--link ??? to ??--><g id="link_&#51200;&#51109;&#51473;_&#54200;&#51665;"><path d="M442.1635,286.5269 C437.8635,271.7769 435.7035,253.3169 445.1335,239.9569 C485.9135,182.1769 571.4404,170.8839 615.9104,168.7539 " fill="none" id="&#51200;&#51109;&#51473;-to-&#54200;&#51665;" style="stroke:#181818;stroke-width:1.0;"/><polygon fill="#181818" points="621.9035,168.4669,612.7225,164.902,616.9093,168.7061,613.1052,172.8929,621.9035,168.4669" style="stroke:#181818;stroke-width:1.0;"/><text fill="#000000" font-family="sans-serif" font-size="13" lengthAdjust="spacing" textLength="153.7992" x="446.1335" y="253.0238">&#44160;&#51613; &#49892;&#54056; / 400 &#183; &#52488;&#50504; &#50976;&#51648;</text></g><!--link ?? to *end*--><g id="link_&#54200;&#51665;_*end*"><path d="M622.0035,168.2469 C503.4935,169.4969 6.1335,182.4069 6.1335,310.9569 C6.1335,310.9569 6.1335,310.9569 6.1335,566.9569 C6.1335,598.6469 15.0162,629.3381 20.7462,646.4281 " fill="none" id="&#54200;&#51665;-to-*end*" style="stroke:#181818;stroke-width:1.0;"/><polygon fill="#181818" points="22.6535,652.1169,23.585,642.3122,21.0641,647.3762,16,644.8553,22.6535,652.1169" style="stroke:#181818;stroke-width:1.0;"/><text fill="#000000" font-family="sans-serif" font-size="13" lengthAdjust="spacing" textLength="53.8683" x="7.1335" y="443.5238">&#52712;&#49548; / R5</text></g><!--link ??? to ???--><g id="link_&#51200;&#51109;&#51473;_&#54869;&#51064;&#46120;"><path d="M422.7435,314.5569 C358.0835,318.7069 206.4235,331.9969 171.1335,366.9569 C124.1735,413.4769 124.1785,492.8582 127.7085,534.6482 " fill="none" id="&#51200;&#51109;&#51473;-to-&#54869;&#51064;&#46120;" style="stroke:#181818;stroke-width:1.0;"/><polygon fill="#181818" points="128.2135,540.6269,131.4418,531.3221,127.7927,535.6446,123.4702,531.9955,128.2135,540.6269" style="stroke:#181818;stroke-width:1.0;"/><text fill="#000000" font-family="sans-serif" font-size="13" lengthAdjust="spacing" textLength="51.9724" x="142.3935" y="443.5238">&#51200;&#51109; &#49457;&#44277;</text></g><!--link ??? to ????--><g id="link_&#51200;&#51109;&#51473;_&#44208;&#44284;&#48520;&#47749;"><path d="M422.3835,314.4269 C359.3535,318.2269 215.7335,330.7469 186.1335,366.9569 C154.0335,406.2269 234.9707,424.7415 287.1207,432.6115 " fill="none" id="&#51200;&#51109;&#51473;-to-&#44208;&#44284;&#48520;&#47749;" style="stroke:#181818;stroke-width:1.0;"/><polygon fill="#181818" points="293.0535,433.5069,284.7512,428.2087,288.1095,432.7608,283.5574,436.1191,293.0535,433.5069" style="stroke:#181818;stroke-width:1.0;"/><text fill="#000000" font-family="sans-serif" font-size="13" lengthAdjust="spacing" textLength="172.6939" x="187.1335" y="380.0238">&#49884;&#44036; &#52488;&#44284;&#183;&#51025;&#45813; &#50976;&#49892; / &#52488;&#50504; &#50976;&#51648;</text></g><!--link ???? to ???--><g id="link_&#44208;&#44284;&#48520;&#47749;_&#51200;&#51109;&#51473;"><path d="M353.0835,413.6169 C374.7335,391.6169 402.245,363.6534 423.915,341.6334 " fill="none" id="&#44208;&#44284;&#48520;&#47749;-to-&#51200;&#51109;&#51473;" style="stroke:#181818;stroke-width:1.0;"/><polygon fill="#181818" points="428.1235,337.3569,418.9598,340.9659,424.6164,340.9206,424.6618,346.5773,428.1235,337.3569" style="stroke:#181818;stroke-width:1.0;"/><text fill="#000000" font-family="sans-serif" font-size="13" lengthAdjust="spacing" textLength="156.9964" x="398.9935" y="380.0238">&#44057;&#51008; commandId&#47196; &#51116;&#49884;&#46020;</text></g><!--link ???? to ???--><g id="link_&#44208;&#44284;&#48520;&#47749;_&#54869;&#51064;&#46120;"><path d="M293.2435,455.3869 C271.4735,465.3169 243.4735,479.1069 220.1335,493.9569 C198.2835,507.8569 180.0615,522.2367 163.0115,536.7567 " fill="none" id="&#44208;&#44284;&#48520;&#47749;-to-&#54869;&#51064;&#46120;" style="stroke:#181818;stroke-width:1.0;"/><polygon fill="#181818" points="158.4435,540.6469,167.889,537.857,162.2502,537.4051,162.7021,531.7663,158.4435,540.6469" style="stroke:#181818;stroke-width:1.0;"/><text fill="#000000" font-family="sans-serif" font-size="13" lengthAdjust="spacing" textLength="161.1287" x="221.1335" y="507.0238">&#44057;&#51008; commandId &#44208;&#44284; &#51116;&#49373;</text></g><!--link ???? to ??--><g id="link_&#44208;&#44284;&#48520;&#47749;_&#50724;&#47448;"><path d="M358.5035,464.2969 C377.4935,479.1969 403.2435,497.8469 428.1335,510.9569 C469.3935,532.6969 515.5683,547.655 545.9583,556.415 " fill="none" id="&#44208;&#44284;&#48520;&#47749;-to-&#50724;&#47448;" style="stroke:#181818;stroke-width:1.0;"/><polygon fill="#181818" points="551.7235,558.0769,544.1835,551.7406,546.9191,556.692,541.9677,559.4276,551.7235,558.0769" style="stroke:#181818;stroke-width:1.0;"/><text fill="#000000" font-family="sans-serif" font-size="13" lengthAdjust="spacing" textLength="121.077" x="429.1335" y="507.0238">&#51116;&#49373; &#48520;&#44032; &#51064;&#54532;&#46972; &#50724;&#47448;</text></g><!--link ??? to ??--><g id="link_&#51200;&#51109;&#51473;_&#52649;&#46028;"><path d="M481.6835,322.6269 C513.5235,333.1469 565.6335,350.6469 610.1335,366.9569 C663.9135,386.6669 677.4435,391.4969 730.1335,413.9569 C738.9135,417.6969 742.9831,419.4766 751.4331,423.4066 " fill="none" id="&#51200;&#51109;&#51473;-to-&#52649;&#46028;" style="stroke:#181818;stroke-width:1.0;"/><polygon fill="#181818" points="756.8735,425.9369,750.3998,418.5146,752.3399,423.8283,747.0261,425.7684,756.8735,425.9369" style="stroke:#181818;stroke-width:1.0;"/><text fill="#000000" font-family="sans-serif" font-size="13" lengthAdjust="spacing" textLength="157.4946" x="655.1535" y="380.0238">&#51221;&#47148;&#183;&#51060;&#48120;&#51648; &#48260;&#51204; &#52649;&#46028; / 409</text></g><!--link ?? to ??????--><g id="link_&#52649;&#46028;_&#52572;&#49888;&#49345;&#53468;&#54869;&#51064;"><path d="M796.5735,464.3569 C809.6135,486.3769 825.6477,513.4534 838.6677,535.4534 " fill="none" id="&#52649;&#46028;-to-&#52572;&#49888;&#49345;&#53468;&#54869;&#51064;" style="stroke:#181818;stroke-width:1.0;"/><polygon fill="#181818" points="841.7235,540.6169,840.5821,530.8344,839.177,536.314,833.6974,534.9089,841.7235,540.6169" style="stroke:#181818;stroke-width:1.0;"/><text fill="#000000" font-family="sans-serif" font-size="13" lengthAdjust="spacing" textLength="168.314" x="824.5635" y="507.0238">&#52488;&#50504; &#50976;&#51648;, &#52572;&#49888; &#51221;&#47148; &#45796;&#49884; &#51069;&#44592;</text></g><!--link ?????? to ??--><g id="link_&#52572;&#49888;&#49345;&#53468;&#54869;&#51064;_&#54200;&#51665;"><path d="M888.4635,540.5469 C933.0235,503.7369 1004.3535,431.4669 972.1335,366.9569 C930.1535,282.8969 887.7035,280.8969 803.1335,239.9569 C755.9735,217.1269 734.5935,236.0069 689.1335,209.9569 C681.0935,205.3469 677.7367,203.0888 671.2867,196.5488 " fill="none" id="&#52572;&#49888;&#49345;&#53468;&#54869;&#51064;-to-&#54200;&#51665;" style="stroke:#181818;stroke-width:1.0;"/><polygon fill="#181818" points="667.0735,192.2769,670.5453,201.4935,670.5845,195.8368,676.2412,195.876,667.0735,192.2769" style="stroke:#181818;stroke-width:1.0;"/><text fill="#000000" font-family="sans-serif" font-size="13" lengthAdjust="spacing" textLength="112.2094" x="979.2835" y="380.0238">&#49352; &#47749;&#47161; &#51204; &#52488;&#50504; &#48708;&#44368;</text></g><!--link ??? to ??--><g id="link_&#51200;&#51109;&#51473;_&#50724;&#47448;"><path d="M481.8635,318.9269 C507.6935,325.7969 543.7735,339.8269 562.1335,366.9569 C598.0735,420.0569 590.7742,494.6132 583.5142,534.6432 " fill="none" id="&#51200;&#51109;&#51473;-to-&#50724;&#47448;" style="stroke:#181818;stroke-width:1.0;"/><polygon fill="#181818" points="582.4435,540.5469,587.9854,532.4051,583.3358,535.6271,580.1138,530.9775,582.4435,540.5469" style="stroke:#181818;stroke-width:1.0;"/><text fill="#000000" font-family="sans-serif" font-size="13" lengthAdjust="spacing" textLength="143.0981" x="589.6435" y="443.5238">DB&#183;&#51060;&#48120;&#51648; &#52376;&#47532;&#183;&#53685;&#49888; &#49892;&#54056;</text></g><!--link ?? to ??--><g id="link_&#50724;&#47448;_&#54200;&#51665;"><path d="M602.2535,563.6569 C661.7335,559.9969 808.4735,547.3769 838.1335,510.9569 C877.3335,462.8069 814.6335,283.2569 770.1335,239.9569 C742.6235,213.1869 721.4735,230.6469 689.1335,209.9569 C681.5035,205.0769 678.3828,202.8628 672.0328,196.4728 " fill="none" id="&#50724;&#47448;-to-&#54200;&#51665;" style="stroke:#181818;stroke-width:1.0;"/><polygon fill="#181818" points="667.8035,192.2169,671.3102,201.4203,671.3279,195.7635,676.9848,195.7813,667.8035,192.2169" style="stroke:#181818;stroke-width:1.0;"/><text fill="#000000" font-family="sans-serif" font-size="13" lengthAdjust="spacing" textLength="124.1694" x="838.7135" y="380.0238">&#52488;&#50504; &#50976;&#51648;, &#49688;&#46041; &#51116;&#49884;&#46020;</text></g><!--link ??? to *end*--><g id="link_&#54869;&#51064;&#46120;_*end*"><path d="M104.0935,591.4169 C80.7635,612.5369 53.0222,637.6308 38.3922,650.8708 " fill="none" id="&#54869;&#51064;&#46120;-to-*end*" style="stroke:#181818;stroke-width:1.0;"/><polygon fill="#181818" points="33.9435,654.8969,43.3006,651.8236,37.6508,651.5418,37.9326,645.892,33.9435,654.8969" style="stroke:#181818;stroke-width:1.0;"/></g><!--SRC=[RLF1Rjf04BtlLyonhOgI0AbK3ZsalVHggQUgXwhGDb83KiK7E6ABa6mLK461oaQEH094aUf234HABdnAZxl3FtHslIxWvkIr_URDUszcgyVLBoMGemZ4T8A35Xq7EE-8PGX_x0vWOEFW0h1skgvvZBrzyWuocHUm_hx4KPl53_qb1kAm3GKwd-BFoQCFbPEJz-NYwoA8MO11z_4sNZ4HSZ76kWjxO1so3OFkqE-YlvIjiUQBHV3VOXQbSJ5bWUJRUEa3EiErEoR6_Fu-h1Q0DmtiDW2z04TsgbPCGp6xa_E6lFgcsZYU2BcgeA-h1VfjwKIwqXaIuIxJJcqw017sqRVXNm3ot0CSN5C3sUJ_bsvxJPSQaRgyvZ_GjZUK5psbNWE0VedG1k9RTxZqxmmWvHpd4zbqTRHT6LmhipVo5oLfWvno37Y2K3a-P-P5LqOUEa6y3x5knR8TpLE3CTmWdI4P9qNtj5JiWVgTCMAj0UHD1hUWPSJCyfQBg9KsaLX_TRHj0ASzUKcMrlL8gz0BmGnujrTATgCdc_sjGMtcOZQMiNAbMeAlnvy-Lw7oCRa6ri5gOMKfgpSlCmS5o4bdB6RS_5N38oBfsc9wpwnS3CicMorRdWaAprh8zPuaj7d27cNLQhiuuEOI0lu8rUt4iphwBhCEOy9SmJYbA183TDJtYrdF55EUc6QH2DKiDjFkeCUJfIwLYw0S_WK0]--></g></svg>