<svg xmlns="http://www.w3.org/2000/svg" xmlns:xlink="http://www.w3.org/1999/xlink" contentStyleType="text/css" height="1888px" preserveAspectRatio="none" style="width:963px;height:1888px;background:#FFFFFF;" version="1.1" viewBox="0 0 963 1888" width="963px" zoomAndPan="magnify"><title>UC-HR-001 &#44540;&#44144; &#44160;&#49353; &#48143; &#52649;&#48516;&#49457; &#54032;&#45800; &#55120;&#47492;</title><defs/><g><text fill="#000000" font-family="sans-serif" font-size="14" font-weight="bold" lengthAdjust="spacing" textLength="268.7878" x="345.6873" y="32.9951">UC-HR-001 &#44540;&#44144; &#44160;&#49353; &#48143; &#52649;&#48516;&#49457; &#54032;&#45800; &#55120;&#47492;</text><ellipse cx="313.0286" cy="57.2969" fill="#222222" rx="10" ry="10" style="stroke:#222222;stroke-width:1.0;"/><rect fill="#F1F1F1" height="33.9688" rx="12.5" ry="12.5" style="stroke:#181818;stroke-width:0.5;" width="279.6353" x="173.2109" y="87.2969"/><text fill="#000000" font-family="sans-serif" font-size="12" lengthAdjust="spacing" textLength="259.6353" x="183.2109" y="108.4355">AI Game Master&#44032; &#54788;&#51116; &#44172;&#51076; &#49345;&#53468;&#50752; &#51656;&#51032;&#47196; &#50836;&#52397;</text><rect fill="#F1F1F1" height="47.9375" rx="12.5" ry="12.5" style="stroke:#181818;stroke-width:0.5;" width="304.5415" x="160.7578" y="141.2656"/><text fill="#000000" font-family="sans-serif" font-size="12" lengthAdjust="spacing" textLength="132.8843" x="170.7578" y="162.4043">&#49464;&#49496;&#50640; &#44256;&#51221;&#46108; &#47928;&#49436; &#48276;&#50948;&#50752;</text><text fill="#000000" font-family="sans-serif" font-size="12" lengthAdjust="spacing" textLength="284.5415" x="170.7578" y="176.373">&#44160;&#49353; &#45824;&#49345; &#50976;&#54805; &#49440;&#53469;(STORYBOOK/RULEBOOK/&#46168; &#45796;)</text><rect fill="#F1F1F1" height="47.9375" rx="12.5" ry="12.5" style="stroke:#181818;stroke-width:0.5;" width="193.6335" x="216.2119" y="209.2031"/><text fill="#000000" font-family="sans-serif" font-size="12" lengthAdjust="spacing" textLength="173.6335" x="226.2119" y="230.3418">&#49884;&#45208;&#47532;&#50724; &#54876;&#49457; &#50896;&#47928; &#50948;&#52824; &#50864;&#49440; &#50976;&#51648;</text><text fill="#000000" font-family="sans-serif" font-size="12" lengthAdjust="spacing" textLength="172.9166" x="226.2119" y="244.3105">(&#44160;&#49353; &#50976;&#54805; &#44032;&#51473;&#52824;&#183;&#44256;&#51221; &#54624;&#45817; &#50630;&#51020;)</text><rect fill="#F1F1F1" height="33.9688" rx="12.5" ry="12.5" style="stroke:#181818;stroke-width:0.5;" width="247.3344" x="189.3614" y="277.1406"/><text fill="#000000" font-family="sans-serif" font-size="12" lengthAdjust="spacing" textLength="227.3344" x="199.3614" y="298.2793">Dense &#52572;&#45824; 30&#44060; + BM25 &#52572;&#45824; 30&#44060; &#44160;&#49353;</text><rect fill="#F1F1F1" height="33.9688" rx="12.5" ry="12.5" style="stroke:#181818;stroke-width:0.5;" width="127.3988" x="249.3292" y="379.5117"/><text fill="#000000" font-family="sans-serif" font-size="12" lengthAdjust="spacing" textLength="107.3988" x="259.3292" y="400.6504">&#54644;&#45817; &#45800;&#44228; 1&#54924; &#51116;&#49884;&#46020;</text><rect fill="#F1F1F1" height="33.9688" rx="12.5" ry="12.5" style="stroke:#181818;stroke-width:0.5;" width="171.5533" x="227.252" y="481.8828"/><text fill="#000000" font-family="sans-serif" font-size="12" lengthAdjust="spacing" textLength="151.5533" x="237.252" y="503.0215">&#48512;&#48516; &#51652;&#54665; &#50630;&#51060; &#51204;&#52404; &#50836;&#52397; &#50724;&#47448;</text><ellipse cx="313.0286" cy="555.3672" fill="none" rx="11" ry="11" style="stroke:#222222;stroke-width:1.0;"/><ellipse cx="313.0286" cy="555.3672" fill="#222222" rx="6" ry="6" style="stroke:#222222;stroke-width:1.0;"/><polygon fill="#F1F1F1" points="278.0014,433.4805,348.0558,433.4805,360.0558,445.4805,348.0558,457.4805,278.0014,457.4805,266.0014,445.4805,278.0014,433.4805" style="stroke:#181818;stroke-width:0.5;"/><text fill="#000000" font-family="sans-serif" font-size="11" lengthAdjust="spacing" textLength="10.1199" x="317.0286" y="467.6909">&#50696;</text><text fill="#000000" font-family="sans-serif" font-size="11" lengthAdjust="spacing" textLength="70.0545" x="278.0014" y="449.2886">&#51116;&#49884;&#46020;&#46020; &#49892;&#54056;?</text><polygon fill="#F1F1F1" points="276.2531,331.1094,349.8041,331.1094,361.8041,343.1094,349.8041,355.1094,276.2531,355.1094,264.2531,343.1094,276.2531,331.1094" style="stroke:#181818;stroke-width:0.5;"/><text fill="#000000" font-family="sans-serif" font-size="11" lengthAdjust="spacing" textLength="10.1199" x="317.0286" y="365.3198">&#50696;</text><text fill="#000000" font-family="sans-serif" font-size="11" lengthAdjust="spacing" textLength="73.5511" x="276.2531" y="346.9175">&#44160;&#49353; &#45800;&#44228; &#50724;&#47448;?</text><polygon fill="#F1F1F1" points="313.0286,608.3672,325.0286,620.3672,313.0286,632.3672,301.0286,620.3672,313.0286,608.3672" style="stroke:#181818;stroke-width:0.5;"/><rect fill="#F1F1F1" height="47.9375" rx="12.5" ry="12.5" style="stroke:#181818;stroke-width:0.5;" width="236.9353" x="194.561" y="652.3672"/><text fill="#000000" font-family="sans-serif" font-size="12" lengthAdjust="spacing" textLength="167.9058" x="204.561" y="673.5059">&#44057;&#51008; &#52397;&#53356; &#51473;&#48373; &#48337;&#54633; &#48143; RRF &#53685;&#54633;</text><text fill="#000000" font-family="sans-serif" font-size="12" lengthAdjust="spacing" textLength="216.9353" x="204.561" y="687.4746">(&#44256;&#50976; &#54980;&#48372; &#52572;&#45824; 60&#44060;, &#48512;&#51313;&#54616;&#47732; &#51080;&#45716; &#47564;&#53372;)</text><rect fill="#F1F1F1" height="47.9375" rx="12.5" ry="12.5" style="stroke:#181818;stroke-width:0.5;" width="206.1715" x="209.9429" y="720.3047"/><text fill="#000000" font-family="sans-serif" font-size="12" lengthAdjust="spacing" textLength="186.1715" x="219.9429" y="741.4434">&#52572;&#52488; RRF &#44208;&#44284; &#51204;&#52404;&#47484; &#44288;&#47144;&#46020; &#51116;&#51221;&#47148;</text><text fill="#000000" font-family="sans-serif" font-size="12" lengthAdjust="spacing" textLength="176.9447" x="219.9429" y="755.4121">(&#51216;&#49688; threshold&#47196; &#51228;&#44144;&#54616;&#51648; &#50506;&#51020;)</text><rect fill="#F1F1F1" height="33.9688" rx="12.5" ry="12.5" style="stroke:#181818;stroke-width:0.5;" width="216.1228" x="204.9672" y="836.6445"/><text fill="#000000" font-family="sans-serif" font-size="12" lengthAdjust="spacing" textLength="196.1228" x="214.9672" y="857.7832">1&#54924; &#51116;&#49884;&#46020; &#54980; &#49892;&#54056;&#54616;&#47732; &#51204;&#52404; &#50836;&#52397; &#50724;&#47448;</text><ellipse cx="313.0286" cy="910.1289" fill="none" rx="11" ry="11" style="stroke:#222222;stroke-width:1.0;"/><ellipse cx="313.0286" cy="910.1289" fill="#222222" rx="6" ry="6" style="stroke:#222222;stroke-width:1.0;"/><polygon fill="#F1F1F1" points="283.0613,788.2422,342.9959,788.2422,354.9959,800.2422,342.9959,812.2422,283.0613,812.2422,271.0613,800.2422,283.0613,788.2422" style="stroke:#181818;stroke-width:0.5;"/><text fill="#000000" font-family="sans-serif" font-size="11" lengthAdjust="spacing" textLength="10.1199" x="317.0286" y="822.4526">&#50696;</text><text fill="#000000" font-family="sans-serif" font-size="11" lengthAdjust="spacing" textLength="59.9346" x="283.0613" y="804.0503">&#51116;&#51221;&#47148; &#50724;&#47448;?</text><rect fill="#F1F1F1" height="33.9688" rx="12.5" ry="12.5" style="stroke:#181818;stroke-width:0.5;" width="167.7388" x="229.1592" y="1011.5313"/><text fill="#000000" font-family="sans-serif" font-size="12" lengthAdjust="spacing" textLength="147.7388" x="239.1592" y="1032.6699">&#51221;&#49345; &#48712; &#44208;&#44284;&#47196; &#48152;&#54872;&#54616;&#44256; &#52628;&#51201;</text><ellipse cx="313.0286" cy="1085.0156" fill="none" rx="11" ry="11" style="stroke:#222222;stroke-width:1.0;"/><ellipse cx="313.0286" cy="1085.0156" fill="#222222" rx="6" ry="6" style="stroke:#222222;stroke-width:1.0;"/><polygon fill="#F1F1F1" points="289.682,963.1289,336.3752,963.1289,348.3752,975.1289,336.3752,987.1289,289.682,987.1289,277.682,975.1289,289.682,963.1289" style="stroke:#181818;stroke-width:0.5;"/><text fill="#000000" font-family="sans-serif" font-size="11" lengthAdjust="spacing" textLength="10.1199" x="317.0286" y="997.3394">&#50696;</text><text fill="#000000" font-family="sans-serif" font-size="11" lengthAdjust="spacing" textLength="46.6933" x="289.682" y="978.937">&#54980;&#48372; 0&#44060;?</text><rect fill="#F1F1F1" height="33.9688" rx="12.5" ry="12.5" style="stroke:#181818;stroke-width:0.5;" width="255.201" x="185.4281" y="1138.0156"/><text fill="#000000" font-family="sans-serif" font-size="12" lengthAdjust="spacing" textLength="235.201" x="195.4281" y="1159.1543">&#49345;&#50948; 30&#44060;(&#46608;&#45716; &#51080;&#45716; &#47564;&#53372;)&#47484; &#54032;&#45800; &#54980;&#48372;&#47196; &#51204;&#45804;</text><rect fill="#F1F1F1" height="47.9375" rx="12.5" ry="12.5" style="stroke:#181818;stroke-width:0.5;" width="275.8808" x="175.0882" y="1235.9844"/><text fill="#000000" font-family="sans-serif" font-size="12" lengthAdjust="spacing" textLength="84.9095" x="185.0882" y="1257.123">&#44540;&#44144; &#52649;&#48516;&#49457; &#54032;&#45800;</text><text fill="#000000" font-family="sans-serif" font-size="12" lengthAdjust="spacing" textLength="255.8808" x="185.0882" y="1271.0918">(&#54788;&#51116; &#44172;&#51076; &#49345;&#53468;+&#54980;&#48372;, &#51076;&#51032; &#48512;&#48516;&#51665;&#54633;&#51032; &#52572;&#49548; &#51312;&#54633;)</text><rect fill="#F1F1F1" height="33.9688" rx="12.5" ry="12.5" style="stroke:#181818;stroke-width:0.5;" width="216.1228" x="204.9672" y="1352.3242"/><text fill="#000000" font-family="sans-serif" font-size="12" lengthAdjust="spacing" textLength="196.1228" x="214.9672" y="1373.4629">1&#54924; &#51116;&#49884;&#46020; &#54980; &#49892;&#54056;&#54616;&#47732; &#51204;&#52404; &#50836;&#52397; &#50724;&#47448;</text><ellipse cx="313.0286" cy="1425.8086" fill="none" rx="11" ry="11" style="stroke:#222222;stroke-width:1.0;"/><ellipse cx="313.0286" cy="1425.8086" fill="#222222" rx="6" ry="6" style="stroke:#222222;stroke-width:1.0;"/><polygon fill="#F1F1F1" points="240.6484,1303.9219,385.4088,1303.9219,397.4088,1315.9219,385.4088,1327.9219,240.6484,1327.9219,228.6484,1315.9219,240.6484,1303.9219" style="stroke:#181818;stroke-width:0.5;"/><text fill="#000000" font-family="sans-serif" font-size="11" lengthAdjust="spacing" textLength="10.1199" x="317.0286" y="1338.1323">&#50696;</text><text fill="#000000" font-family="sans-serif" font-size="11" lengthAdjust="spacing" textLength="144.7603" x="240.6484" y="1319.73">&#54032;&#45800; &#50724;&#47448; &#46608;&#45716; &#52636;&#47141; &#54805;&#49885; &#50724;&#47448;?</text><polygon fill="#F1F1F1" points="289.4295,1478.8086,336.6277,1478.8086,348.6277,1490.8086,336.6277,1502.8086,289.4295,1502.8086,277.4295,1490.8086,289.4295,1478.8086" style="stroke:#181818;stroke-width:0.5;"/><text fill="#000000" font-family="sans-serif" font-size="11" lengthAdjust="spacing" textLength="47.1981" x="289.4295" y="1494.6167">&#52649;&#48516;&#54620;&#44032;?</text><text fill="#000000" font-family="sans-serif" font-size="11" lengthAdjust="spacing" textLength="10.1199" x="267.3096" y="1488.2144">&#50696;</text><text fill="#000000" font-family="sans-serif" font-size="11" lengthAdjust="spacing" textLength="20.2398" x="348.6277" y="1488.2144">&#48512;&#51313;</text><rect fill="#F1F1F1" height="33.9688" rx="12.5" ry="12.5" style="stroke:#181818;stroke-width:0.5;" width="215.7788" x="11.5136" y="1512.8086"/><text fill="#000000" font-family="sans-serif" font-size="12" lengthAdjust="spacing" textLength="195.7788" x="21.5136" y="1533.9473">&#52572;&#49548; &#52649;&#48516; &#44540;&#44144; &#47926;&#51020;&#44284; sufficient &#48152;&#54872;</text><rect fill="#F1F1F1" height="33.9688" rx="12.5" ry="12.5" style="stroke:#181818;stroke-width:0.5;" width="216.806" x="11" y="1566.7773"/><text fill="#000000" font-family="sans-serif" font-size="12" lengthAdjust="spacing" textLength="196.806" x="21" y="1587.916">AI Game Master&#44032; &#44540;&#44144;&#47196; &#45796;&#51020; &#54032;&#51221;</text><ellipse cx="119.403" cy="1646.7461" fill="none" rx="11" ry="11" style="stroke:#222222;stroke-width:1.0;"/><ellipse cx="119.403" cy="1646.7461" fill="#222222" rx="6" ry="6" style="stroke:#222222;stroke-width:1.0;"/><rect fill="#F1F1F1" height="33.9688" rx="12.5" ry="12.5" style="stroke:#181818;stroke-width:0.5;" width="259.2082" x="377.0501" y="1512.8086"/><text fill="#000000" font-family="sans-serif" font-size="12" lengthAdjust="spacing" textLength="239.2082" x="387.0501" y="1533.9473">selectedEvidenceIds &#50976;&#51648; &#48143; missing &#48152;&#54872;</text><polygon fill="#F1F1F1" points="457.8344,1566.7773,555.474,1566.7773,567.474,1578.7773,555.474,1590.7773,457.8344,1590.7773,445.8344,1578.7773,457.8344,1566.7773" style="stroke:#181818;stroke-width:0.5;"/><text fill="#000000" font-family="sans-serif" font-size="11" lengthAdjust="spacing" textLength="97.6396" x="457.8344" y="1582.5854">&#52628;&#44032; &#44160;&#49353; &#54943;&#49688; &lt; 2?</text><text fill="#000000" font-family="sans-serif" font-size="11" lengthAdjust="spacing" textLength="10.1199" x="435.7145" y="1576.1831">&#50696;</text><text fill="#000000" font-family="sans-serif" font-size="11" lengthAdjust="spacing" textLength="30.3598" x="567.474" y="1576.1831">&#50500;&#45768;&#50724;</text><rect fill="#F1F1F1" height="33.9688" rx="12.5" ry="12.5" style="stroke:#181818;stroke-width:0.5;" width="166.8079" x="308.1535" y="1600.7773"/><text fill="#000000" font-family="sans-serif" font-size="12" lengthAdjust="spacing" textLength="146.8079" x="318.1535" y="1621.916">missing&#51004;&#47196; &#52628;&#44032; &#48373;&#54633; &#44160;&#49353;</text><rect fill="#F1F1F1" height="33.9688" rx="12.5" ry="12.5" style="stroke:#181818;stroke-width:0.5;" width="244.4373" x="269.3388" y="1669.7461"/><text fill="#000000" font-family="sans-serif" font-size="12" lengthAdjust="spacing" textLength="224.4373" x="279.3388" y="1690.8848">&#51060;&#51204; &#51204;&#52404; &#54980;&#48372;+&#49352; &#54980;&#48372; &#51473;&#48373; &#51228;&#44144; &#54980; &#51116;&#51221;&#47148;</text><rect fill="#F1F1F1" height="33.9688" rx="12.5" ry="12.5" style="stroke:#181818;stroke-width:0.5;" width="253.4666" x="264.8241" y="1725.7148"/><text fill="#000000" font-family="sans-serif" font-size="12" lengthAdjust="spacing" textLength="233.4666" x="274.8241" y="1746.8535">&#49440;&#53469; &#44540;&#44144; &#44256;&#51221;, &#45208;&#47672;&#51648;&#47484; &#52292;&#50892; &#52572;&#45824; 30&#44060; &#44396;&#49457;</text><rect fill="#F1F1F1" height="33.9688" rx="12.5" ry="12.5" style="stroke:#181818;stroke-width:0.5;" width="267.5029" x="257.806" y="1779.6836"/><text fill="#000000" font-family="sans-serif" font-size="12" lengthAdjust="spacing" textLength="247.5029" x="267.806" y="1800.8223">&#51116;&#51221;&#47148; &#44208;&#44284;&#47484; &#45796;&#51020; &#44540;&#44144; &#52649;&#48516;&#49457; &#54032;&#45800; &#54980;&#48372;&#47196; &#51204;&#45804;</text><path d="M718.1931,1604.6133 L718.1931,1620.7461 L698.1931,1624.7461 L718.1931,1628.7461 L718.1931,1644.8789 A0,0 0 0 0 718.1931,1644.8789 L923.1625,1644.8789 A0,0 0 0 0 923.1625,1644.8789 L923.1625,1614.6133 L913.1625,1604.6133 L718.1931,1604.6133 A0,0 0 0 0 718.1931,1604.6133 " fill="#FEFFDD" style="stroke:#181818;stroke-width:0.5;"/><path d="M913.1625,1604.6133 L913.1625,1614.6133 L923.1625,1614.6133 L913.1625,1604.6133 " fill="#FEFFDD" style="stroke:#181818;stroke-width:0.5;"/><text fill="#000000" font-family="sans-serif" font-size="13" lengthAdjust="spacing" textLength="172.0094" x="724.1931" y="1621.6802">&#54540;&#47112;&#51060;&#50612; &#54665;&#46041; &#54032;&#51221; &#51221;&#52293;&#51068; &#46412;&#47564;</text><text fill="#000000" font-family="sans-serif" font-size="13" lengthAdjust="spacing" textLength="183.9694" x="724.1931" y="1636.813">&#51228;&#54620;&#46108; &#51076;&#49884; &#54032;&#51221;&#44284; &#54540;&#47112;&#51060;&#50612; &#54364;&#49884;</text><rect fill="#F1F1F1" height="47.9375" rx="12.5" ry="12.5" style="stroke:#181818;stroke-width:0.5;" width="152.8843" x="545.3089" y="1600.7773"/><text fill="#000000" font-family="sans-serif" font-size="12" lengthAdjust="spacing" textLength="132.8843" x="555.3089" y="1621.916">&#49440;&#53469;&#46108; &#44540;&#44144; &#52649;&#48516;&#49457; &#51221;&#52293;&#51032;</text><text fill="#000000" font-family="sans-serif" font-size="12" lengthAdjust="spacing" textLength="110.8041" x="555.3089" y="1635.8848">&#52572;&#51333; &#48512;&#51313; &#44208;&#44284;&#47196; &#50948;&#51076;</text><ellipse cx="621.751" cy="1694.7148" fill="none" rx="11" ry="11" style="stroke:#222222;stroke-width:1.0;"/><ellipse cx="621.751" cy="1694.7148" fill="#222222" rx="6" ry="6" style="stroke:#222222;stroke-width:1.0;"/><polygon fill="#F1F1F1" points="313.0286,1191.9844,325.0286,1203.9844,313.0286,1215.9844,301.0286,1203.9844,313.0286,1191.9844" style="stroke:#181818;stroke-width:0.5;"/><polygon fill="#F1F1F1" points="266.864,1833.6523,359.1932,1833.6523,371.1932,1845.6523,359.1932,1857.6523,266.864,1857.6523,254.864,1845.6523,266.864,1833.6523" style="stroke:#181818;stroke-width:0.5;"/><text fill="#000000" font-family="sans-serif" font-size="11" lengthAdjust="spacing" textLength="92.3292" x="266.864" y="1849.4604">&#52628;&#44032; &#44160;&#49353; &#54980; &#51116;&#54032;&#45800;</text><line style="stroke:#181818;stroke-width:1.0;" x1="313.0286" x2="313.0286" y1="67.2969" y2="87.2969"/><polygon fill="#181818" points="309.0286,77.2969,313.0286,87.2969,317.0286,77.2969,313.0286,81.2969" style="stroke:#181818;stroke-width:1.0;"/><line style="stroke:#181818;stroke-width:1.0;" x1="313.0286" x2="313.0286" y1="121.2656" y2="141.2656"/><polygon fill="#181818" points="309.0286,131.2656,313.0286,141.2656,317.0286,131.2656,313.0286,135.2656" style="stroke:#181818;stroke-width:1.0;"/><line style="stroke:#181818;stroke-width:1.0;" x1="313.0286" x2="313.0286" y1="189.2031" y2="209.2031"/><polygon fill="#181818" points="309.0286,199.2031,313.0286,209.2031,317.0286,199.2031,313.0286,203.2031" style="stroke:#181818;stroke-width:1.0;"/><line style="stroke:#181818;stroke-width:1.0;" x1="313.0286" x2="313.0286" y1="257.1406" y2="277.1406"/><polygon fill="#181818" points="309.0286,267.1406,313.0286,277.1406,317.0286,267.1406,313.0286,271.1406" style="stroke:#181818;stroke-width:1.0;"/><line style="stroke:#181818;stroke-width:1.0;" x1="313.0286" x2="313.0286" y1="515.8516" y2="544.3672"/><polygon fill="#181818" points="309.0286,534.3672,313.0286,544.3672,317.0286,534.3672,313.0286,538.3672" style="stroke:#181818;stroke-width:1.0;"/><line style="stroke:#181818;stroke-width:1.0;" x1="313.0286" x2="313.0286" y1="457.4805" y2="481.8828"/><polygon fill="#181818" points="309.0286,471.8828,313.0286,481.8828,317.0286,471.8828,313.0286,475.8828" style="stroke:#181818;stroke-width:1.0;"/><line style="stroke:#181818;stroke-width:1.0;" x1="360.0558" x2="408.8052" y1="445.4805" y2="445.4805"/><polygon fill="#181818" points="404.8052,514.3672,408.8052,524.3672,412.8052,514.3672,408.8052,518.3672" style="stroke:#181818;stroke-width:1.0;"/><line style="stroke:#181818;stroke-width:1.0;" x1="408.8052" x2="408.8052" y1="445.4805" y2="588.3672"/><line style="stroke:#181818;stroke-width:1.0;" x1="408.8052" x2="313.0286" y1="588.3672" y2="588.3672"/><line style="stroke:#181818;stroke-width:1.0;" x1="313.0286" x2="313.0286" y1="588.3672" y2="608.3672"/><polygon fill="#181818" points="309.0286,598.3672,313.0286,608.3672,317.0286,598.3672,313.0286,602.3672" style="stroke:#181818;stroke-width:1.0;"/><line style="stroke:#181818;stroke-width:1.0;" x1="313.0286" x2="313.0286" y1="413.4805" y2="433.4805"/><polygon fill="#181818" points="309.0286,423.4805,313.0286,433.4805,317.0286,423.4805,313.0286,427.4805" style="stroke:#181818;stroke-width:1.0;"/><line style="stroke:#181818;stroke-width:1.0;" x1="313.0286" x2="313.0286" y1="355.1094" y2="379.5117"/><polygon fill="#181818" points="309.0286,369.5117,313.0286,379.5117,317.0286,369.5117,313.0286,373.5117" style="stroke:#181818;stroke-width:1.0;"/><line style="stroke:#181818;stroke-width:1.0;" x1="361.8041" x2="430.8052" y1="343.1094" y2="343.1094"/><polygon fill="#181818" points="426.8052,473.8828,430.8052,483.8828,434.8052,473.8828,430.8052,477.8828" style="stroke:#181818;stroke-width:1.0;"/><line style="stroke:#181818;stroke-width:1.0;" x1="430.8052" x2="430.8052" y1="343.1094" y2="620.3672"/><line style="stroke:#181818;stroke-width:1.0;" x1="430.8052" x2="325.0286" y1="620.3672" y2="620.3672"/><polygon fill="#181818" points="335.0286,616.3672,325.0286,620.3672,335.0286,624.3672,331.0286,620.3672" style="stroke:#181818;stroke-width:1.0;"/><line style="stroke:#181818;stroke-width:1.0;" x1="313.0286" x2="313.0286" y1="311.1094" y2="331.1094"/><polygon fill="#181818" points="309.0286,321.1094,313.0286,331.1094,317.0286,321.1094,313.0286,325.1094" style="stroke:#181818;stroke-width:1.0;"/><line style="stroke:#181818;stroke-width:1.0;" x1="313.0286" x2="313.0286" y1="632.3672" y2="652.3672"/><polygon fill="#181818" points="309.0286,642.3672,313.0286,652.3672,317.0286,642.3672,313.0286,646.3672" style="stroke:#181818;stroke-width:1.0;"/><line style="stroke:#181818;stroke-width:1.0;" x1="313.0286" x2="313.0286" y1="700.3047" y2="720.3047"/><polygon fill="#181818" points="309.0286,710.3047,313.0286,720.3047,317.0286,710.3047,313.0286,714.3047" style="stroke:#181818;stroke-width:1.0;"/><line style="stroke:#181818;stroke-width:1.0;" x1="313.0286" x2="313.0286" y1="870.6133" y2="899.1289"/><polygon fill="#181818" points="309.0286,889.1289,313.0286,899.1289,317.0286,889.1289,313.0286,893.1289" style="stroke:#181818;stroke-width:1.0;"/><line style="stroke:#181818;stroke-width:1.0;" x1="313.0286" x2="313.0286" y1="812.2422" y2="836.6445"/><polygon fill="#181818" points="309.0286,826.6445,313.0286,836.6445,317.0286,826.6445,313.0286,830.6445" style="stroke:#181818;stroke-width:1.0;"/><line style="stroke:#181818;stroke-width:1.0;" x1="354.9959" x2="431.09" y1="800.2422" y2="800.2422"/><polygon fill="#181818" points="427.09,869.1289,431.09,879.1289,435.09,869.1289,431.09,873.1289" style="stroke:#181818;stroke-width:1.0;"/><line style="stroke:#181818;stroke-width:1.0;" x1="431.09" x2="431.09" y1="800.2422" y2="943.1289"/><line style="stroke:#181818;stroke-width:1.0;" x1="431.09" x2="313.0286" y1="943.1289" y2="943.1289"/><line style="stroke:#181818;stroke-width:1.0;" x1="313.0286" x2="313.0286" y1="943.1289" y2="963.1289"/><polygon fill="#181818" points="309.0286,953.1289,313.0286,963.1289,317.0286,953.1289,313.0286,957.1289" style="stroke:#181818;stroke-width:1.0;"/><line style="stroke:#181818;stroke-width:1.0;" x1="313.0286" x2="313.0286" y1="768.2422" y2="788.2422"/><polygon fill="#181818" points="309.0286,778.2422,313.0286,788.2422,317.0286,778.2422,313.0286,782.2422" style="stroke:#181818;stroke-width:1.0;"/><line style="stroke:#181818;stroke-width:1.0;" x1="313.0286" x2="313.0286" y1="1045.5" y2="1074.0156"/><polygon fill="#181818" points="309.0286,1064.0156,313.0286,1074.0156,317.0286,1064.0156,313.0286,1068.0156" style="stroke:#181818;stroke-width:1.0;"/><line style="stroke:#181818;stroke-width:1.0;" x1="313.0286" x2="313.0286" y1="987.1289" y2="1011.5313"/><polygon fill="#181818" points="309.0286,1001.5313,313.0286,1011.5313,317.0286,1001.5313,313.0286,1005.5313" style="stroke:#181818;stroke-width:1.0;"/><line style="stroke:#181818;stroke-width:1.0;" x1="348.3752" x2="406.898" y1="975.1289" y2="975.1289"/><polygon fill="#181818" points="402.898,1044.0156,406.898,1054.0156,410.898,1044.0156,406.898,1048.0156" style="stroke:#181818;stroke-width:1.0;"/><line style="stroke:#181818;stroke-width:1.0;" x1="406.898" x2="406.898" y1="975.1289" y2="1118.0156"/><line style="stroke:#181818;stroke-width:1.0;" x1="406.898" x2="313.0286" y1="1118.0156" y2="1118.0156"/><line style="stroke:#181818;stroke-width:1.0;" x1="313.0286" x2="313.0286" y1="1118.0156" y2="1138.0156"/><polygon fill="#181818" points="309.0286,1128.0156,313.0286,1138.0156,317.0286,1128.0156,313.0286,1132.0156" style="stroke:#181818;stroke-width:1.0;"/><line style="stroke:#181818;stroke-width:1.0;" x1="313.0286" x2="313.0286" y1="1386.293" y2="1414.8086"/><polygon fill="#181818" points="309.0286,1404.8086,313.0286,1414.8086,317.0286,1404.8086,313.0286,1408.8086" style="stroke:#181818;stroke-width:1.0;"/><line style="stroke:#181818;stroke-width:1.0;" x1="313.0286" x2="313.0286" y1="1327.9219" y2="1352.3242"/><polygon fill="#181818" points="309.0286,1342.3242,313.0286,1352.3242,317.0286,1342.3242,313.0286,1346.3242" style="stroke:#181818;stroke-width:1.0;"/><line style="stroke:#181818;stroke-width:1.0;" x1="397.4088" x2="431.09" y1="1315.9219" y2="1315.9219"/><polygon fill="#181818" points="427.09,1384.8086,431.09,1394.8086,435.09,1384.8086,431.09,1388.8086" style="stroke:#181818;stroke-width:1.0;"/><line style="stroke:#181818;stroke-width:1.0;" x1="431.09" x2="431.09" y1="1315.9219" y2="1458.8086"/><line style="stroke:#181818;stroke-width:1.0;" x1="431.09" x2="313.0286" y1="1458.8086" y2="1458.8086"/><line style="stroke:#181818;stroke-width:1.0;" x1="313.0286" x2="313.0286" y1="1458.8086" y2="1478.8086"/><polygon fill="#181818" points="309.0286,1468.8086,313.0286,1478.8086,317.0286,1468.8086,313.0286,1472.8086" style="stroke:#181818;stroke-width:1.0;"/><line style="stroke:#181818;stroke-width:1.0;" x1="313.0286" x2="313.0286" y1="1283.9219" y2="1303.9219"/><polygon fill="#181818" points="309.0286,1293.9219,313.0286,1303.9219,317.0286,1293.9219,313.0286,1297.9219" style="stroke:#181818;stroke-width:1.0;"/><line style="stroke:#181818;stroke-width:1.0;" x1="119.403" x2="119.403" y1="1546.7773" y2="1566.7773"/><polygon fill="#181818" points="115.403,1556.7773,119.403,1566.7773,123.403,1556.7773,119.403,1560.7773" style="stroke:#181818;stroke-width:1.0;"/><line style="stroke:#181818;stroke-width:1.0;" x1="119.403" x2="119.403" y1="1600.7461" y2="1635.7461"/><polygon fill="#181818" points="115.403,1625.7461,119.403,1635.7461,123.403,1625.7461,119.403,1629.7461" style="stroke:#181818;stroke-width:1.0;"/><line style="stroke:#181818;stroke-width:1.0;" x1="391.5574" x2="391.5574" y1="1634.7461" y2="1669.7461"/><polygon fill="#181818" points="387.5574,1659.7461,391.5574,1669.7461,395.5574,1659.7461,391.5574,1663.7461" style="stroke:#181818;stroke-width:1.0;"/><line style="stroke:#181818;stroke-width:1.0;" x1="391.5574" x2="391.5574" y1="1703.7148" y2="1725.7148"/><polygon fill="#181818" points="387.5574,1715.7148,391.5574,1725.7148,395.5574,1715.7148,391.5574,1719.7148" style="stroke:#181818;stroke-width:1.0;"/><line style="stroke:#181818;stroke-width:1.0;" x1="391.5574" x2="391.5574" y1="1759.6836" y2="1779.6836"/><polygon fill="#181818" points="387.5574,1769.6836,391.5574,1779.6836,395.5574,1769.6836,391.5574,1773.6836" style="stroke:#181818;stroke-width:1.0;"/><line style="stroke:#181818;stroke-width:1.0;" x1="621.751" x2="621.751" y1="1648.7148" y2="1683.7148"/><polygon fill="#181818" points="617.751,1673.7148,621.751,1683.7148,625.751,1673.7148,621.751,1677.7148" style="stroke:#181818;stroke-width:1.0;"/><line style="stroke:#181818;stroke-width:1.0;" x1="445.8344" x2="391.5574" y1="1578.7773" y2="1578.7773"/><line style="stroke:#181818;stroke-width:1.0;" x1="391.5574" x2="391.5574" y1="1578.7773" y2="1600.7773"/><polygon fill="#181818" points="387.5574,1590.7773,391.5574,1600.7773,395.5574,1590.7773,391.5574,1594.7773" style="stroke:#181818;stroke-width:1.0;"/><line style="stroke:#181818;stroke-width:1.0;" x1="567.474" x2="621.751" y1="1578.7773" y2="1578.7773"/><line style="stroke:#181818;stroke-width:1.0;" x1="621.751" x2="621.751" y1="1578.7773" y2="1600.7773"/><polygon fill="#181818" points="617.751,1590.7773,621.751,1600.7773,625.751,1590.7773,621.751,1594.7773" style="stroke:#181818;stroke-width:1.0;"/><line style="stroke:#181818;stroke-width:1.0;" x1="391.5574" x2="391.5574" y1="1813.6523" y2="1818.6523"/><line style="stroke:#181818;stroke-width:1.0;" x1="391.5574" x2="313.0286" y1="1818.6523" y2="1818.6523"/><line style="stroke:#181818;stroke-width:1.0;" x1="313.0286" x2="313.0286" y1="1818.6523" y2="1833.6523"/><polygon fill="#181818" points="309.0286,1823.6523,313.0286,1833.6523,317.0286,1823.6523,313.0286,1827.6523" style="stroke:#181818;stroke-width:1.0;"/><line style="stroke:#181818;stroke-width:1.0;" x1="506.6542" x2="506.6542" y1="1546.7773" y2="1566.7773"/><polygon fill="#181818" points="502.6542,1556.7773,506.6542,1566.7773,510.6542,1556.7773,506.6542,1560.7773" style="stroke:#181818;stroke-width:1.0;"/><line style="stroke:#181818;stroke-width:1.0;" x1="277.4295" x2="119.403" y1="1490.8086" y2="1490.8086"/><line style="stroke:#181818;stroke-width:1.0;" x1="119.403" x2="119.403" y1="1490.8086" y2="1512.8086"/><polygon fill="#181818" points="115.403,1502.8086,119.403,1512.8086,123.403,1502.8086,119.403,1506.8086" style="stroke:#181818;stroke-width:1.0;"/><line style="stroke:#181818;stroke-width:1.0;" x1="348.6277" x2="506.6542" y1="1490.8086" y2="1490.8086"/><line style="stroke:#181818;stroke-width:1.0;" x1="506.6542" x2="506.6542" y1="1490.8086" y2="1512.8086"/><polygon fill="#181818" points="502.6542,1502.8086,506.6542,1512.8086,510.6542,1502.8086,506.6542,1506.8086" style="stroke:#181818;stroke-width:1.0;"/><line style="stroke:#181818;stroke-width:1.0;" x1="313.0286" x2="313.0286" y1="1215.9844" y2="1235.9844"/><polygon fill="#181818" points="309.0286,1225.9844,313.0286,1235.9844,317.0286,1225.9844,313.0286,1229.9844" style="stroke:#181818;stroke-width:1.0;"/><line style="stroke:#181818;stroke-width:1.0;" x1="371.1932" x2="937.1625" y1="1845.6523" y2="1845.6523"/><polygon fill="#181818" points="933.1625,1539.875,937.1625,1529.875,941.1625,1539.875,937.1625,1535.875" style="stroke:#181818;stroke-width:1.0;"/><line style="stroke:#181818;stroke-width:1.0;" x1="937.1625" x2="937.1625" y1="1203.9844" y2="1845.6523"/><line style="stroke:#181818;stroke-width:1.0;" x1="937.1625" x2="325.0286" y1="1203.9844" y2="1203.9844"/><polygon fill="#181818" points="335.0286,1199.9844,325.0286,1203.9844,335.0286,1207.9844,331.0286,1203.9844" style="stroke:#181818;stroke-width:1.0;"/><line style="stroke:#181818;stroke-width:1.0;" x1="313.0286" x2="313.0286" y1="1171.9844" y2="1191.9844"/><polygon fill="#181818" points="309.0286,1181.9844,313.0286,1191.9844,317.0286,1181.9844,313.0286,1185.9844" style="stroke:#181818;stroke-width:1.0;"/><text fill="#000000" font-family="sans-serif" font-size="14" lengthAdjust="spacing" textLength="429.9962" x="265.0832" y="1871.6475">&#44288;&#47144; BR: BR-HR-001~BR-HR-009 / AC: AC-HR-001~AC-HR-010</text><!--SRC=[fLLTQnjN47tNhvX72IV4JccXwq28yz66DXZKvg6G5s6jumLbRRIRzgr8rTh8qO9bq3ehU-MkYnpRe82-hDZWf_oSlNF_G-VklRkf8lcf8B6VSsRcp3cpjc6NT7Zv-EwF-RkBYqiGVRg91ds8XXMixGBhxm5EBjZ4GMS0t6sonZdmJfDzS39hXItRs3GX6bTOU0uhUOt-2kRFvEnxk0UF7clqJvweiwN5Z6KNodP6U_GSVYYyqU55mRBrSjIl0FSTFEvH3IuUEu2rAgy5sAu0djMnuxEJ0F2mXSEFonaDdIlSzl5z4w9HYA77cW6mtXKwT1YsC70exfMPTEFIeGeOXDpt09sGrphPNtvTpV-sihhwqxtyov-VnYTitmVMwEO4VYDWV_diGm_zBl1s86Z0eoQb005-xLCfVK8Ie7X6gR8gbqf2xM1tdzxx_4aM2DmBMUCQyFqETbnAaG7jYMvQEk1bG0N2DujHFu05M7bn_zlfUn9vEGF6EYHfQ1xHY3Zok-pKVvW3UqCt8Oj-FPS108rxOv5ClRN43rqWPaLJUywoU4D0fNVe1zZeSlTy1ecmsAH2Eg0XEFnWLzO_1WmT78xLF5GPopB0iZUtn9bk5etrJ7BGeduREpJBuKTUxG6HmqQNm4RxtBk8vPRFFmE-SqcNWapYB0Y17pbiD4xO-4wmSGUe7ZmPSCzd5_JekCxUjO2TkRnwGwo2HY_Zk1x3HSD-DBfHjRBJ6oNPk5tgdLGJzYWPXasi-zHuMRSsDal5M6XXG7QW93HSGE-Td5bAMnnwA_lJV8ik5Br9qRUH9wbJZ8bSYW3H-6mQgaB8cbtNLQUYSDRtUTkdH4GXMRY5ONKMMgCuah7KLvRvJS7XD9M2hiJtSH6I5OSrUgJTihwb5sp2rTJU-7fP4AtptBmWiUvGCeSi3L9RU2PK8Ax5y7Q8knEY_a8GBbcGTKYY82bt4h3mb7Q6XutERQFu7xD8TAmeawEFk-HUGFQUaokfFduhsQYiDo7n21rQRzVNZJL3Dsqr9PbdpYAKeV4u6rsA5gJIjAVhAj7ko4epgFoMNjBNRBtuz7UZg9jh-lEYfVPJxB0tXcKPvkkfvBAhLfnKRXP- -BTmmmEuFsSPWAP0C8ZLfaB9oiB6wQAIhzAU87OJXkNa5x1MJsqjTu2qcfnCOgql6F6oJhzEyIgb5K2h-VoA-X8gnO63H-vNA_EoHrhyWf9QLXc5mXIpj-XtZkW5aYGTFRfJ9wtafiiK7w4PFE7ImJQ9-vKfzF7FjbfW__6i-A8SEqcrvgQjGzbulM6h6m2yvRAmBlWy828FTjbUMqaYXQU6F9UycyOGhIHKKPBmMYDG0KA8qt3x0JrLOIJsEB-wJ5PvQW9vbEw7FpQCaZuZ7pb6oMBkNm00]--></g></svg>